<svg width="598" height="400" viewBox="0 0 598 400" fill="none" xmlns="http://www.w3.org/2000/svg">
<g clip-path="url(#clip0_433_3524)">
<rect x="225.518" y="160.31" width="147.46" height="78.8768" rx="39.4384" fill="#54EE46"/>
<path d="M269.336 215V206.879L269.594 206.234V191.453H269.4L259.023 203.27H271.656L272.73 202.904H280.873V208.598H251.611V203.549L269.895 183.719H276.146V215H269.336ZM283.773 200.82V197.555C283.773 192.971 285.041 189.426 287.576 186.92C290.126 184.413 293.771 183.16 298.512 183.16C303.281 183.16 306.941 184.399 309.49 186.877C312.04 189.34 313.314 192.9 313.314 197.555V200.842C313.314 205.626 312.004 209.278 309.383 211.799C306.776 214.305 303.152 215.559 298.512 215.559C293.728 215.559 290.076 214.277 287.555 211.713C285.034 209.135 283.773 205.504 283.773 200.82ZM291.078 201.271C291.078 204.279 291.68 206.571 292.883 208.146C294.086 209.708 295.962 210.488 298.512 210.488C301.076 210.488 302.966 209.708 304.184 208.146C305.415 206.571 306.031 204.286 306.031 201.293V197.168C306.031 194.289 305.408 192.112 304.162 190.637C302.916 189.147 301.033 188.402 298.512 188.402C295.991 188.402 294.122 189.14 292.904 190.615C291.687 192.09 291.078 194.275 291.078 197.168V201.271ZM334.047 215V206.879L334.305 206.234V191.453H334.111L323.734 203.27H336.367L337.441 202.904H345.584V208.598H316.322V203.549L334.605 183.719H340.857V215H334.047Z" fill="#2F2B43"/>
<rect opacity="0.0526316" x="61.1855" y="-4.02345" width="475.63" height="407.047" rx="203.523" stroke="#54EE46" stroke-width="2"/>
<rect opacity="0.105263" x="70.3711" y="5.16174" width="457.259" height="388.677" rx="194.338" stroke="#54EE46" stroke-width="2"/>
<rect opacity="0.157895" x="79.5547" y="14.3469" width="438.889" height="370.306" rx="185.153" stroke="#54EE46" stroke-width="2"/>
<rect opacity="0.210526" x="88.7402" y="23.5321" width="420.519" height="351.936" rx="175.968" stroke="#54EE46" stroke-width="2"/>
<rect opacity="0.263158" x="97.9258" y="32.7173" width="402.148" height="333.565" rx="166.783" stroke="#54EE46" stroke-width="2"/>
<rect opacity="0.315789" x="107.111" y="41.9025" width="383.778" height="315.195" rx="157.598" stroke="#54EE46" stroke-width="2"/>
<rect opacity="0.368421" x="116.297" y="51.0876" width="365.407" height="296.825" rx="148.412" stroke="#54EE46" stroke-width="2"/>
<rect opacity="0.421053" x="125.482" y="60.2728" width="347.037" height="278.454" rx="139.227" stroke="#54EE46" stroke-width="2"/>
<rect opacity="0.473684" x="134.666" y="69.458" width="328.667" height="260.084" rx="130.042" stroke="#54EE46" stroke-width="2"/>
<rect opacity="0.526316" x="143.852" y="78.6432" width="310.296" height="241.714" rx="120.857" stroke="#54EE46" stroke-width="2"/>
<rect opacity="0.578947" x="153.037" y="87.8284" width="291.926" height="223.343" rx="111.672" stroke="#54EE46" stroke-width="2"/>
<rect opacity="0.631579" x="162.223" y="97.0136" width="273.556" height="204.973" rx="102.486" stroke="#54EE46" stroke-width="2"/>
<rect opacity="0.684211" x="171.408" y="106.199" width="255.185" height="186.602" rx="93.3012" stroke="#54EE46" stroke-width="2"/>
<rect opacity="0.736842" x="180.592" y="115.384" width="236.815" height="168.232" rx="84.1161" stroke="#54EE46" stroke-width="2"/>
<rect opacity="0.789474" x="189.777" y="124.569" width="218.444" height="149.862" rx="74.9309" stroke="#54EE46" stroke-width="2"/>
<rect opacity="0.842105" x="198.963" y="133.754" width="200.074" height="131.491" rx="65.7457" stroke="#54EE46" stroke-width="2"/>
<rect opacity="0.894737" x="208.148" y="142.94" width="181.704" height="113.121" rx="56.5605" stroke="#54EE46" stroke-width="2"/>
<rect opacity="0.947368" x="217.334" y="152.125" width="163.333" height="94.7506" rx="47.3753" stroke="#54EE46" stroke-width="2"/>
<rect x="226.518" y="161.31" width="144.963" height="76.3802" rx="38.1901" stroke="#54EE46" stroke-width="2"/>
</g>
<defs>
<clipPath id="clip0_433_3524">
<rect width="598" height="400" fill="white"/>
</clipPath>
</defs>
</svg>
