<svg width="25" height="24" viewBox="0 0 25 24" fill="none" xmlns="http://www.w3.org/2000/svg">
<path fill-rule="evenodd" clip-rule="evenodd" d="M1.80078 3.14024C1.80078 2.72602 2.13657 2.39024 2.55078 2.39024H4.76172C5.14962 2.39024 5.47352 2.68602 5.50864 3.07233L5.74812 5.70664H22.4492C22.6666 5.70664 22.8734 5.80099 23.0158 5.96524C23.1583 6.12949 23.2224 6.34747 23.1917 6.56271L22.3144 12.7039C22.1313 13.9854 21.0792 14.9657 19.7879 15.058L7.8773 15.9087C6.38307 16.0155 5.07829 14.9066 4.94267 13.4147L4.07681 3.89024H2.55078C2.13657 3.89024 1.80078 3.55445 1.80078 3.14024ZM5.88448 7.20664L6.43651 13.2789C6.49815 13.957 7.09123 14.461 7.77043 14.4125L19.6811 13.5618C20.268 13.5199 20.7462 13.0742 20.8294 12.4917L21.5845 7.20664H5.88448Z" fill="#2F2B43"/>
<circle cx="8.63132" cy="19.8769" r="1.28683" fill="#2F2B43"/>
<circle cx="18.5805" cy="19.8769" r="1.28683" fill="#2F2B43"/>
</svg>
