<svg width="40" height="40" viewBox="0 0 40 40" fill="none" xmlns="http://www.w3.org/2000/svg">
<rect width="40" height="40" rx="20" fill="#2F2B43" fill-opacity="0.04"/>
<path fill-rule="evenodd" clip-rule="evenodd" d="M24.999 21.5056C24.7595 21.3864 23.5851 20.812 23.3664 20.732C23.1478 20.6528 22.9886 20.6136 22.8287 20.852C22.6695 21.0888 22.2121 21.6248 22.073 21.7832C21.9332 21.9424 21.7941 21.9616 21.5554 21.8432C21.3166 21.7232 20.5465 21.4728 19.6342 20.6632C18.9244 20.0328 18.4445 19.2544 18.3054 19.016C18.1663 18.7784 18.2901 18.6496 18.4099 18.5312C18.5176 18.4248 18.6486 18.2536 18.7684 18.1152C18.8882 17.976 18.9276 17.8768 19.0071 17.7176C19.0875 17.5592 19.0473 17.4208 18.9871 17.3016C18.9276 17.1824 18.4501 16.012 18.2507 15.536C18.057 15.0728 17.8601 15.136 17.7138 15.128C17.5739 15.1216 17.4147 15.12 17.2556 15.12C17.0964 15.12 16.8376 15.1792 16.6189 15.4176C16.3995 15.6552 15.7829 16.2304 15.7829 17.4008C15.7829 18.5704 16.6382 19.7008 16.758 19.86C16.8778 20.0184 18.442 22.42 20.8383 23.4496C21.4091 23.6944 21.8536 23.8408 22.2 23.9496C22.7724 24.1312 23.2933 24.1056 23.7048 24.044C24.163 23.976 25.118 23.4688 25.3174 22.9136C25.5159 22.3584 25.5159 21.8824 25.4564 21.7832C25.397 21.684 25.2378 21.6248 24.9982 21.5056H24.999ZM20.6406 27.428H20.6374C19.2141 27.4283 17.8169 27.0475 16.5924 26.3256L16.303 26.1544L13.295 26.94L14.098 24.0216L13.9091 23.7224C13.1134 22.4619 12.6923 21.003 12.6945 19.5144C12.6961 15.1544 16.2604 11.6072 20.6438 11.6072C22.766 11.6072 24.7611 12.4312 26.2611 13.9256C27.0009 14.6589 27.5873 15.5309 27.9864 16.4911C28.3854 17.4514 28.5892 18.4809 28.5858 19.52C28.5842 23.88 25.0199 27.428 20.6406 27.428ZM27.4026 12.7904C26.5169 11.9032 25.4631 11.1997 24.3022 10.7207C23.1413 10.2417 21.8965 9.99674 20.6398 10C15.3713 10 11.082 14.268 11.0804 19.5136C11.0796 21.1904 11.5193 22.8272 12.3561 24.2696L11 29.2L16.0675 27.8768C17.4693 28.6369 19.0402 29.0352 20.6366 29.0352H20.6406C25.909 29.0352 30.1983 24.7672 30.2 19.5208C30.2038 18.2706 29.9586 17.0321 29.4784 15.8768C28.9983 14.7216 28.2927 13.6726 27.4026 12.7904Z" fill="#2F2B43"/>
</svg>
