<svg width="48" height="48" viewBox="0 0 48 48" fill="none" xmlns="http://www.w3.org/2000/svg"><path fill-rule="evenodd" clip-rule="evenodd" d="M34.649 32.2146C34.3793 32.3184 34.1063 32.4143 33.8303 32.5022C32.2016 39.1041 26.2401 43.9998 19.1351 43.9998C10.7762 43.9998 4 37.2235 4 28.8646C4 21.7597 8.89562 15.7982 15.4976 14.1695C15.5785 13.915 15.6664 13.6631 15.7609 13.414C16.4423 11.6194 17.4736 9.9705 18.8016 8.5663C20.5909 6.67435 22.8538 5.29559 25.3556 4.57305C27.8574 3.85052 30.507 3.81051 33.0295 4.45718C35.552 5.10386 37.8555 6.41366 39.7011 8.25073C41.5467 10.0878 42.8672 12.3852 43.5256 14.9047C44.184 17.4241 44.1562 20.0738 43.4453 22.579C42.7344 25.0841 41.3662 27.3534 39.4826 29.1515C38.0845 30.486 36.4404 31.5249 34.649 32.2146ZM37.971 27.5679C36.878 28.6113 35.608 29.442 34.2265 30.0248C34.2555 29.6419 34.2703 29.255 34.2703 28.8646C34.2703 20.5057 27.494 13.7295 19.1351 13.7295C18.7448 13.7295 18.3579 13.7443 17.9749 13.7733C18.5502 12.4096 19.3672 11.1543 20.3921 10.0705C21.913 8.46238 23.8365 7.29044 25.9631 6.67628C28.0896 6.06213 30.3417 6.02812 32.4858 6.5778C34.6299 7.12747 36.5879 8.2408 38.1567 9.80231C39.7255 11.3638 40.8479 13.3166 41.4075 15.4581C41.9671 17.5997 41.9436 19.8519 41.3393 21.9813C40.735 24.1107 39.572 26.0396 37.971 27.5679ZM19.1351 41.9998C26.3895 41.9998 32.2703 36.119 32.2703 28.8646C32.2703 21.6103 26.3895 15.7295 19.1351 15.7295C11.8808 15.7295 6 21.6103 6 28.8646C6 36.119 11.8808 41.9998 19.1351 41.9998ZM16.5158 34.5697V28.8226C16.5849 28.8226 16.7073 28.8195 16.8832 28.8133C17.0654 28.8071 17.2098 28.804 17.3166 28.804L18.1362 28.7947C18.6827 28.7947 19.0752 28.8102 19.3139 28.8412C20.0487 28.9156 20.6234 29.2039 21.038 29.706C21.4525 30.2082 21.6597 30.8003 21.6597 31.4823C21.6597 32.0464 21.5247 32.5641 21.2546 33.0353C20.9908 33.5065 20.614 33.8816 20.1241 34.1606C19.6342 34.4333 19.0721 34.5697 18.4377 34.5697H16.5158ZM14.8105 22.3779V35.3509L19.1349 35.3323C19.5431 35.3323 19.9325 35.2827 20.3031 35.1835C20.6799 35.0843 21.0442 34.9448 21.396 34.765C22.068 34.4178 22.5799 33.956 22.9316 33.3794C23.2833 32.7966 23.4592 32.1332 23.4592 31.3893C23.4592 30.2299 23.0572 29.3898 22.2533 28.8691C21.4493 28.3421 20.1272 28.0786 18.287 28.0786H16.5158V23.28H18.579L20.8872 23.3172C21.1008 23.3172 21.3614 23.3358 21.6692 23.373C21.9769 23.4102 22.2972 23.4598 22.6301 23.5218C22.5924 23.342 22.5736 23.1529 22.5736 22.9545C22.5736 22.7127 22.5924 22.5205 22.6301 22.3779H14.8105Z" fill="#1A1A1A"></path></svg>