<svg width="60" height="40" viewBox="0 0 60 40" fill="none" xmlns="http://www.w3.org/2000/svg">
<g clip-path="url(#clip0_4818_1509)">
<path d="M50.0026 12.8572H40.3765C40.9372 16.0347 44.0213 19.0254 47.3858 19.0254H55.0494C55.1428 18.745 55.1428 18.2777 55.1428 17.9974C55.1428 15.1936 52.8064 12.8572 50.0026 12.8572Z" fill="url(#paint0_linear_4818_1509)"/>
<path d="M41.2175 19.5862V27.3432H45.8904V23.231H50.0026C52.2456 23.231 54.2082 21.6423 54.8624 19.5862H41.2175Z" fill="#4FAD50"/>
<path d="M24.7689 12.8572V27.2497H28.8811C28.8811 27.2497 29.9091 27.2497 30.4699 26.2217C33.2736 20.7076 34.1147 19.0254 34.1147 19.0254H34.6755V27.2497H39.3484V12.8572H35.2362C35.2362 12.8572 34.2082 12.9506 33.6474 13.8852C31.311 18.6516 30.0026 21.0815 30.0026 21.0815H29.4418V12.8572H24.7689Z" fill="#4FAD50"/>
<path d="M5.14282 27.3432V12.9507H9.81572C9.81572 12.9507 11.1241 12.9507 11.8718 15.0068C13.741 20.4273 13.9279 21.175 13.9279 21.175C13.9279 21.175 14.3017 19.8666 15.984 15.0068C16.7316 12.9507 18.04 12.9507 18.04 12.9507H22.7129V27.3432H18.04V19.5862H17.4793L14.8625 27.3432H12.8064L10.1896 19.5862H9.62882V27.3432H5.14282Z" fill="#4FAD50"/>
</g>
<defs>
<linearGradient id="paint0_linear_4818_1509" x1="40.3598" y1="15.9855" x2="55.1097" y2="15.9855" gradientUnits="userSpaceOnUse">
<stop stop-color="#27B1E6"/>
<stop offset="1" stop-color="#148ACA"/>
</linearGradient>
<clipPath id="clip0_4818_1509">
<rect width="60" height="40" fill="white"/>
</clipPath>
</defs>
</svg>