<svg xmlns="http://www.w3.org/2000/svg" width="24" height="24" viewBox="0 0 24 24" fill="none">
<circle cx="12" cy="12" r="9" stroke="#1A1A1A" stroke-width="2"/>
<mask id="path-2-inside-1_5697_152282" fill="white">
<path d="M21 12C21.5523 12 22.0052 11.5512 21.95 11.0017C21.8526 10.0309 21.6135 9.07783 21.2388 8.17317C20.7362 6.95991 19.9997 5.85752 19.0711 4.92893C18.1425 4.00035 17.0401 3.26375 15.8268 2.7612C14.9222 2.38648 13.9691 2.14736 12.9983 2.04996C12.4488 1.99482 12 2.44772 12 3C12 3.55228 12.4494 3.99356 12.9974 4.06242C13.7053 4.15137 14.3996 4.3348 15.0615 4.60896C16.0321 5.011 16.914 5.60028 17.6569 6.34315C18.3997 7.08601 18.989 7.96793 19.391 8.93853C19.6652 9.60043 19.8486 10.2947 19.9376 11.0026C20.0064 11.5506 20.4477 12 21 12Z"/>
</mask>
<path d="M21 12C21.5523 12 22.0052 11.5512 21.95 11.0017C21.8526 10.0309 21.6135 9.07783 21.2388 8.17317C20.7362 6.95991 19.9997 5.85752 19.0711 4.92893C18.1425 4.00035 17.0401 3.26375 15.8268 2.7612C14.9222 2.38648 13.9691 2.14736 12.9983 2.04996C12.4488 1.99482 12 2.44772 12 3C12 3.55228 12.4494 3.99356 12.9974 4.06242C13.7053 4.15137 14.3996 4.3348 15.0615 4.60896C16.0321 5.011 16.914 5.60028 17.6569 6.34315C18.3997 7.08601 18.989 7.96793 19.391 8.93853C19.6652 9.60043 19.8486 10.2947 19.9376 11.0026C20.0064 11.5506 20.4477 12 21 12Z" stroke="#E42222" stroke-width="4" mask="url(#path-2-inside-1_5697_152282)"/>
</svg>