<svg xmlns="http://www.w3.org/2000/svg" width="20" height="24" viewBox="0 0 20 24" fill="none">
<path d="M6.73864 7.5C6.32442 7.5 5.98864 7.83579 5.98864 8.25C5.98864 8.66421 6.32442 9 6.73864 9V7.5ZM13.2258 9C13.64 9 13.9758 8.66421 13.9758 8.25C13.9758 7.83579 13.64 7.5 13.2258 7.5V9ZM7.73666 11.5C7.32245 11.5 6.98666 11.8358 6.98666 12.25C6.98666 12.6642 7.32245 13 7.73666 13V11.5ZM12.2278 13C12.642 13 12.9778 12.6642 12.9778 12.25C12.9778 11.8358 12.642 11.5 12.2278 11.5V13ZM14.2348 22.8938C14.5274 23.1869 15.0023 23.1874 15.2955 22.8948C15.5887 22.6022 15.5892 22.1273 15.2966 21.8341L14.2348 22.8938ZM11.9429 19.5355L11.412 19.0057C11.1198 19.2985 11.1198 19.7726 11.412 20.0653L11.9429 19.5355ZM15.2966 17.2369C15.5892 16.9437 15.5887 16.4688 15.2955 16.1762C15.0023 15.8836 14.5274 15.8841 14.2348 16.1773L15.2966 17.2369ZM19 20.2855C19.4142 20.2855 19.75 19.9497 19.75 19.5355C19.75 19.1213 19.4142 18.7855 19 18.7855L19 20.2855ZM18.2144 14C18.2144 14.4142 18.5502 14.75 18.9644 14.75C19.3786 14.75 19.7144 14.4142 19.7144 14H18.2144ZM9.98221 23.75C10.3964 23.75 10.7322 23.4142 10.7322 23C10.7322 22.5858 10.3964 22.25 9.98221 22.25V23.75ZM6.73864 9H13.2258V7.5H6.73864V9ZM7.73666 13H12.2278V11.5H7.73666V13ZM15.2966 21.8341L12.4737 19.0057L11.412 20.0653L14.2348 22.8938L15.2966 21.8341ZM12.4737 20.0653L15.2966 17.2369L14.2348 16.1773L11.412 19.0057L12.4737 20.0653ZM11.9429 20.2855L19 20.2855L19 18.7855L11.9429 18.7855L11.9429 20.2855ZM2.99605 1.75H16.9684V0.25H2.99605V1.75ZM1.75 21V3H0.25V21H1.75ZM18.2144 3V14H19.7144V3H18.2144ZM9.98221 22.25H2.99605V23.75H9.98221V22.25ZM0.25 21C0.25 22.5174 1.47805 23.75 2.99605 23.75V22.25C2.30927 22.25 1.75 21.6918 1.75 21H0.25ZM16.9684 1.75C17.6552 1.75 18.2144 2.30824 18.2144 3H19.7144C19.7144 1.48262 18.4864 0.25 16.9684 0.25V1.75ZM2.99605 0.25C1.47805 0.25 0.25 1.48262 0.25 3H1.75C1.75 2.30824 2.30927 1.75 2.99605 1.75V0.25Z" fill="#1A1A1A"/>
</svg>