<svg width="60" height="40" viewBox="0 0 60 40" fill="none" xmlns="http://www.w3.org/2000/svg">
<path d="M18.3025 8.33447H27.626C28.9275 8.33447 29.737 9.38044 29.4334 10.6679L25.0926 29.0436C24.7863 30.3266 23.4832 31.3735 22.1808 31.3735H12.8582C11.5586 31.3735 10.7473 30.3266 11.0509 29.0436L15.3935 10.6679C15.6971 9.38044 16.9995 8.33447 18.3025 8.33447Z" fill="#E21836"/>
<path d="M26.8497 8.33325H37.5715C38.8727 8.33325 38.286 9.37922 37.9798 10.6667L33.6398 29.0423C33.3352 30.3254 33.4302 31.3722 32.1263 31.3722H21.4045C20.1005 31.3722 19.2935 30.3254 19.5998 29.0423L23.9397 10.6667C24.2478 9.37922 25.5475 8.33325 26.8497 8.33325Z" fill="#00447C"/>
<path d="M37.1465 8.33325H46.47C47.7733 8.33325 48.5828 9.37922 48.2767 10.6667L43.9366 29.0423C43.6302 30.3254 42.3263 31.3722 41.0232 31.3722H31.704C30.4 31.3722 29.5912 30.3254 29.8966 29.0423L34.2374 10.6667C34.541 9.37922 35.8425 8.33325 37.1465 8.33325Z" fill="#007B84"/>
<path d="M20.7371 14.2221C19.7783 14.2318 19.4952 14.2221 19.4047 14.2011C19.3699 14.364 18.723 17.3067 18.7211 17.3092C18.5818 17.9045 18.4805 18.3289 18.1362 18.603C17.9408 18.7623 17.7126 18.8391 17.4481 18.8391C17.0229 18.8391 16.7752 18.631 16.7336 18.2361L16.7256 18.1006C16.7256 18.1006 16.8552 17.3031 16.8552 17.2986C16.8552 17.2986 17.5342 14.617 17.6558 14.2625C17.6621 14.2423 17.664 14.2318 17.6655 14.2221C16.3438 14.2336 16.1095 14.2221 16.0934 14.2011C16.0845 14.23 16.0518 14.3962 16.0518 14.3962L15.3585 17.4187L15.2989 17.6751L15.1837 18.5136C15.1837 18.7623 15.2333 18.9653 15.3319 19.1369C15.6478 19.6812 16.5488 19.7627 17.0586 19.7627C17.7153 19.7627 18.3314 19.6252 18.7477 19.374C19.4704 18.953 19.6595 18.2949 19.8281 17.71L19.9063 17.41C19.9063 17.41 20.6057 14.6248 20.7246 14.2625C20.7291 14.2423 20.731 14.2318 20.7371 14.2221ZM23.1171 16.469C22.9484 16.469 22.6403 16.5093 22.3635 16.6431C22.263 16.694 22.168 16.7527 22.0678 16.8111L22.1583 16.4892L22.1087 16.4349C21.5217 16.5521 21.3904 16.5678 20.8482 16.6431L20.8027 16.6729C20.7398 17.1876 20.6839 17.5746 20.4505 18.5862C20.3616 18.9591 20.2693 19.3355 20.1769 19.7075L20.2019 19.7548C20.7575 19.7259 20.9261 19.7259 21.409 19.7337L21.4481 19.6918C21.5095 19.3819 21.5174 19.3093 21.6533 18.6817C21.7172 18.3841 21.8503 17.7303 21.916 17.4975C22.0367 17.4424 22.1558 17.3881 22.2694 17.3881C22.5401 17.3881 22.5071 17.6209 22.4967 17.7137C22.4851 17.8694 22.3864 18.3781 22.2853 18.8148L22.2178 19.0967C22.1708 19.3048 22.1192 19.5072 22.0721 19.7135L22.0926 19.7548C22.6403 19.7259 22.8073 19.7259 23.275 19.7337L23.33 19.6918C23.4145 19.2078 23.4393 19.0783 23.5893 18.3736L23.6647 18.0498C23.8113 17.4161 23.8849 17.0948 23.774 16.8331C23.6568 16.5398 23.3754 16.469 23.1171 16.469ZM25.7757 17.1324C25.4846 17.1876 25.299 17.2243 25.1144 17.2481C24.9315 17.277 24.7531 17.3032 24.4718 17.3417L24.4495 17.3617L24.429 17.3776C24.3997 17.5842 24.3793 17.7628 24.3404 17.9727C24.3075 18.1898 24.2568 18.4365 24.1743 18.791C24.1104 19.0624 24.0775 19.1569 24.0411 19.2524C24.0057 19.3478 23.9666 19.4406 23.8948 19.7075L23.9116 19.7321L23.9257 19.7547C24.1886 19.7424 24.3606 19.7337 24.5374 19.7321C24.714 19.7258 24.8969 19.7321 25.1801 19.7337L25.2049 19.7137L25.2315 19.6918C25.2724 19.4511 25.2785 19.3864 25.3035 19.269C25.3283 19.143 25.371 18.9687 25.4758 18.5031C25.5253 18.2844 25.5805 18.0664 25.6319 17.8432C25.6853 17.6209 25.7412 17.402 25.7944 17.1833L25.7864 17.1569L25.7757 17.1324ZM25.7819 16.2379C25.5174 16.084 25.0531 16.1328 24.7407 16.3455C24.4291 16.5538 24.3937 16.8496 24.6573 17.0056C24.9172 17.1553 25.3833 17.1107 25.6931 16.8962C26.004 16.6834 26.0428 16.3903 25.7819 16.2379ZM27.3817 19.803C27.9169 19.803 28.4655 19.6576 28.8784 19.226C29.1961 18.876 29.3417 18.3553 29.3922 18.1408C29.5565 17.4301 29.4286 17.0982 29.2679 16.8961C29.0238 16.588 28.5925 16.4892 28.145 16.4892C27.876 16.4892 27.2351 16.5154 26.7345 16.9705C26.375 17.2988 26.2088 17.7442 26.1086 18.1713C26.0075 18.6064 25.8911 19.3898 26.6218 19.6813C26.8472 19.7768 27.1722 19.803 27.3817 19.803ZM27.3399 18.2038C27.4633 17.6656 27.6089 17.2138 27.9807 17.2138C28.2721 17.2138 28.2932 17.55 28.1637 18.09C28.1405 18.2098 28.0341 18.6555 27.8903 18.8453C27.7898 18.9854 27.671 19.0703 27.5396 19.0703C27.5005 19.0703 27.2681 19.0703 27.2644 18.7299C27.2626 18.5619 27.2974 18.3902 27.3399 18.2038ZM30.73 19.7338L30.7719 19.6919C30.8312 19.382 30.8409 19.3092 30.9723 18.6818C31.038 18.3842 31.1739 17.7304 31.2377 17.4975C31.3586 17.4422 31.4757 17.388 31.5929 17.388C31.8618 17.388 31.829 17.6208 31.8184 17.7135C31.8086 17.8695 31.71 18.3779 31.607 18.8146L31.5431 19.0965C31.4943 19.3049 31.4411 19.507 31.3941 19.7136L31.4145 19.7548C31.964 19.7259 32.1247 19.7259 32.5951 19.7338L32.6519 19.6919C32.7344 19.2077 32.7567 19.0781 32.9112 18.3737L32.9848 18.0497C33.1321 17.416 33.2066 17.0949 33.0976 16.8332C32.9769 16.5399 32.6937 16.4691 32.439 16.4691C32.2701 16.4691 31.9604 16.5092 31.6852 16.6432C31.5868 16.694 31.4882 16.7525 31.3913 16.8112L31.4757 16.4892L31.4304 16.4348C30.8437 16.5522 30.7096 16.5679 30.168 16.6432L30.1265 16.673C30.0608 17.1877 30.0074 17.5744 29.774 18.5863C29.6851 18.9592 29.5929 19.3356 29.5006 19.7076L29.5254 19.7548C30.0819 19.7259 30.248 19.7259 30.73 19.7338ZM34.7673 19.7547C34.8018 19.5885 35.0071 18.603 35.0089 18.603C35.0089 18.603 35.1836 17.8799 35.1943 17.8537C35.1943 17.8537 35.2493 17.7784 35.3043 17.7486H35.3852C36.1485 17.7486 37.0105 17.7486 37.6861 17.2586C38.1459 16.9225 38.4602 16.4261 38.6004 15.823C38.6367 15.6751 38.6636 15.4992 38.6636 15.3233C38.6636 15.0923 38.6165 14.8637 38.4806 14.6851C38.1361 14.2099 37.45 14.2011 36.6581 14.1975C36.6556 14.1975 36.2676 14.2011 36.2676 14.2011C35.2539 14.2134 34.8473 14.2099 34.6803 14.1897C34.6662 14.2625 34.6396 14.392 34.6396 14.392C34.6396 14.392 34.2764 16.0515 34.2764 16.0542C34.2764 16.0542 33.4074 19.5824 33.3665 19.7487C34.2517 19.7381 34.6146 19.7381 34.7673 19.7547ZM35.4402 16.8068C35.4402 16.8068 35.8263 15.1507 35.8245 15.157L35.837 15.0721L35.8424 15.0073L35.9967 15.023C35.9967 15.023 36.793 15.0905 36.8117 15.0923C37.126 15.2121 37.2555 15.5211 37.1651 15.9245C37.0826 16.2931 36.8401 16.6029 36.5285 16.7526C36.2719 16.8794 35.9577 16.89 35.6338 16.89H35.4243L35.4402 16.8068ZM37.8442 18.2345C37.7421 18.6633 37.6249 19.4467 38.3519 19.7259C38.5837 19.8231 38.7914 19.852 39.0025 19.8415C39.2254 19.8296 39.432 19.7194 39.6233 19.5607C39.6061 19.6259 39.5888 19.6912 39.5715 19.7566L39.6045 19.7985C40.1274 19.7768 40.2896 19.7768 40.8562 19.781L40.9075 19.7425C40.9903 19.263 41.0682 18.7973 41.2832 17.88C41.388 17.4406 41.4925 17.0054 41.6 16.5678L41.5832 16.5197C40.9982 16.6265 40.8419 16.6494 40.2792 16.728L40.2365 16.7623C40.2308 16.8069 40.2249 16.8497 40.2194 16.8925C40.1319 16.7531 40.0051 16.6342 39.8095 16.56C39.5593 16.463 38.9716 16.588 38.4664 17.0415C38.1114 17.3653 37.941 17.809 37.8442 18.2345ZM39.0727 18.2607C39.1979 17.7321 39.3418 17.2849 39.7145 17.2849C39.9501 17.2849 40.0742 17.4993 40.049 17.865C40.029 17.9562 40.0074 18.0523 39.9817 18.161C39.9444 18.318 39.904 18.4738 39.8647 18.6297C39.8247 18.7364 39.7781 18.837 39.727 18.904C39.6311 19.038 39.4029 19.1211 39.2716 19.1211C39.2343 19.1211 39.0043 19.1211 38.9963 18.7868C38.9945 18.6203 39.0293 18.4489 39.0727 18.2607ZM45.4882 16.5154L45.443 16.4645C44.8641 16.5801 44.7594 16.5985 44.2276 16.6693L44.1885 16.7079C44.1867 16.7141 44.1851 16.7238 44.1824 16.7325L44.1806 16.7238C43.7847 17.6243 43.7963 17.43 43.474 18.139C43.4722 18.1067 43.4722 18.0866 43.4704 18.0523L43.3897 16.5154L43.339 16.4645C42.7327 16.5801 42.7184 16.5985 42.1585 16.6693L42.1148 16.7079C42.1087 16.7262 42.1087 16.7464 42.1051 16.7684L42.1087 16.7762C42.1787 17.1289 42.1619 17.0502 42.2321 17.6068C42.2648 17.88 42.3085 18.1547 42.3412 18.4245C42.3964 18.876 42.4273 19.0982 42.4948 19.7873C42.1166 20.4026 42.0271 20.6354 41.6631 21.1754L41.6656 21.1808L41.4092 21.5805C41.3799 21.6226 41.3533 21.6515 41.316 21.6639C41.2751 21.6838 41.222 21.6874 41.1481 21.6874H41.0061L40.7949 22.3798L41.5192 22.3921C41.9444 22.3903 42.2116 22.1942 42.3555 21.9307L42.8109 21.1613H42.8036L42.8516 21.107C43.1579 20.4568 45.4882 16.5154 45.4882 16.5154ZM37.8442 25.6087H37.5369L38.6741 21.9001H39.0513L39.1711 21.5181L39.1827 21.9429C39.1686 22.2055 39.3781 22.4384 39.9285 22.3998H40.5651L40.7841 21.6857H40.5446C40.4069 21.6857 40.343 21.6514 40.351 21.5779L40.3394 21.1457H39.1606V21.1479C38.7795 21.1558 37.6414 21.184 37.411 21.2445C37.1322 21.3153 36.8383 21.5237 36.8383 21.5237L36.9538 21.1412H35.8511L35.6214 21.9001L34.469 25.6654H34.2454L34.0261 26.3744H36.2222L36.1486 26.6108H37.2308L37.3026 26.3744H37.6062L37.8442 25.6087ZM36.9431 22.6537C36.7665 22.7019 36.4379 22.848 36.4379 22.848L36.7302 21.9001H37.6062L37.3949 22.5907C37.3949 22.5907 37.1242 22.6064 36.9431 22.6537ZM36.9599 24.0077C36.9599 24.0077 36.6847 24.0418 36.5036 24.0821C36.3252 24.1355 35.9907 24.3035 35.9907 24.3035L36.2925 23.3172H37.1731L36.9599 24.0077ZM36.469 25.6175H35.5903L35.845 24.785H36.7211L36.469 25.6175ZM38.5854 23.3172H39.8521L39.67 23.8984H38.3865L38.1938 24.5339H39.3169L38.4665 25.7145C38.407 25.8012 38.3536 25.8319 38.2943 25.8563C38.2347 25.8861 38.1565 25.9211 38.0661 25.9211H37.7545L37.5405 26.6171H38.3554C38.779 26.6171 39.0292 26.427 39.2139 26.1777L39.7971 25.3907L39.9223 26.1898C39.9489 26.3394 40.058 26.427 40.1318 26.4611C40.2134 26.5014 40.2977 26.5707 40.4168 26.581C40.5445 26.5864 40.6368 26.5906 40.6981 26.5906H41.0986L41.339 25.8117H41.181C41.0904 25.8117 40.9343 25.7967 40.9077 25.7687C40.8811 25.7347 40.8811 25.6822 40.8668 25.6025L40.7397 24.8016H40.2195L40.4477 24.5339H41.7287L41.9258 23.8984H40.7397L40.9245 23.3172H42.1069L42.3262 22.6004H38.801L38.5854 23.3172ZM27.8867 25.7793L28.1823 24.8095H29.3975L29.6195 24.0883H28.4032L28.5889 23.4913H29.7774L29.9976 22.7929H27.0238L26.8081 23.4913H27.4838L27.3036 24.0883H26.6261L26.4016 24.8219H27.077L26.6829 26.1049C26.6298 26.2747 26.7079 26.3395 26.7575 26.4184C26.8081 26.4952 26.8595 26.5461 26.975 26.575C27.094 26.6012 27.1756 26.6169 27.2865 26.6169H28.6564L28.9005 25.8179L28.2932 25.9001C28.176 25.9001 27.8512 25.8862 27.8867 25.7793ZM28.0261 21.1368L27.7181 21.6856C27.6522 21.8055 27.5929 21.8799 27.5395 21.9141C27.4925 21.943 27.3993 21.9551 27.2643 21.9551H27.1036L26.8889 22.6572H27.4225C27.679 22.6572 27.8761 22.5644 27.9702 22.518C28.0713 22.4647 28.0979 22.4952 28.1761 22.4208L28.3563 22.2668H30.0225L30.2436 21.5359H29.0239L29.2369 21.1368H28.0261ZM30.4859 25.7934C30.4575 25.7531 30.478 25.6821 30.5214 25.5342L30.9768 24.0479H32.5969C32.833 24.0445 33.0035 24.0419 33.1144 24.034C33.2334 24.0217 33.363 23.9798 33.5041 23.9045C33.6498 23.8256 33.7243 23.7425 33.7873 23.647C33.8575 23.5518 33.9702 23.3434 34.067 23.0221L34.6395 21.1413L32.9582 21.1509C32.9582 21.1509 32.4405 21.2262 32.2126 21.3093C31.9826 21.4021 31.654 21.6611 31.654 21.6611L31.8058 21.1455H30.7673L29.3133 25.9001C29.2617 26.0847 29.2272 26.2187 29.2192 26.2991C29.2165 26.3859 29.3301 26.4717 29.4038 26.5364C29.4908 26.6012 29.6194 26.5907 29.7428 26.6012C29.8726 26.6108 30.0571 26.6169 30.3119 26.6169H31.11L31.355 25.8013L30.6405 25.8678C30.5641 25.8678 30.5089 25.8275 30.4859 25.7934ZM31.2707 23.0441H32.9723L32.8642 23.3784C32.8489 23.3862 32.8126 23.3618 32.6394 23.382H31.1659L31.2707 23.0441ZM31.6115 21.9228H33.3275L33.2041 22.3255C33.2041 22.3255 32.3953 22.3176 32.2658 22.3412C31.6958 22.4384 31.3629 22.7387 31.3629 22.7387L31.6115 21.9228ZM32.9022 24.4979C32.8881 24.5479 32.8659 24.5783 32.8347 24.6012C32.8002 24.6232 32.7443 24.631 32.6609 24.631H32.4184L32.4327 24.2239H31.4242L31.3833 26.2143C31.3817 26.3579 31.3958 26.441 31.5024 26.5076C31.6089 26.5907 31.9373 26.6013 32.3793 26.6013H33.0113L33.2395 25.8562L32.6893 25.886L32.5064 25.8966C32.4814 25.886 32.4575 25.8764 32.4309 25.8502C32.4077 25.8275 32.3686 25.8414 32.375 25.6978L32.3793 25.1876L32.9563 25.1641C33.2679 25.1641 33.4011 25.0641 33.5147 24.9689C33.6231 24.8777 33.6585 24.7728 33.6994 24.631L33.7963 24.1793H33.0034L32.9022 24.4979Z" fill="#FEFEFE"/>
</svg>