<svg xmlns="http://www.w3.org/2000/svg" width="16" height="16" viewBox="0 0 16 16"><defs><clipPath id="mtsna"><path fill="#fff" d="M0 16V0h16v16z"/></clipPath><clipPath id="mtsnb"><path d="M0 16V0h16v16z"/></clipPath></defs><g><g><g><path fill="rgba(209,172,156,0)" d="M0 16V0h16v16z"/><path fill="none" stroke="rgba(112,112,112,0)" stroke-miterlimit="50" stroke-width="2" d="M0 16v0V0v0h16v16z" clip-path="url(&quot;#mtsna&quot;)"/></g><g clip-path="url(#mtsnb)"><g><path fill="#d1ac9c" d="M8 0C3.589 0 0 3.589 0 8c0 .761.106 1.512.317 2.23a.666.666 0 1 0 1.28-.374A6.674 6.674 0 0 1 8 1.333 6.674 6.674 0 0 1 14.666 8 6.674 6.674 0 0 1 8 14.667a6.622 6.622 0 0 1-3.717-1.13.666.666 0 1 0-.745 1.106A7.95 7.95 0 0 0 8 16c4.411 0 8-3.589 8-8s-3.589-8-8-8z"/></g><g><path fill="#d1ac9c" d="M5.529 10.471a.664.664 0 0 0 .942 0L8 8.943l1.529 1.528a.664.664 0 0 0 .942 0 .667.667 0 0 0 0-.942L8.943 8l1.528-1.529a.667.667 0 0 0-.942-.942L8 7.057 6.471 5.53a.667.667 0 0 0-.942.942L7.057 8 5.53 9.529a.667.667 0 0 0 0 .942z"/></g></g></g></g></svg>