<svg width="60" height="40" viewBox="0 0 60 40" fill="none" xmlns="http://www.w3.org/2000/svg">
<mask id="mask0_4818_1548" style="mask-type:alpha" maskUnits="userSpaceOnUse" x="8" y="5" width="44" height="30">
<rect x="8.57141" y="5.71436" width="42.8571" height="28.5714" fill="#016FD0"/>
</mask>
<g mask="url(#mask0_4818_1548)">
<rect x="8.57141" y="5.71436" width="42.8571" height="28.5714" fill="#016FD0"/>
<path d="M16.9077 27.5724V21.0173H24.0466L24.8126 21.9881L25.6038 21.0173H51.5163V27.1203C51.5163 27.1203 50.8386 27.5659 50.0549 27.5724H35.7066L34.8431 26.5391V27.5724H32.0133V25.8085C32.0133 25.8085 31.6267 26.0547 30.791 26.0547H29.8278V27.5724H25.5433L24.7784 26.5808L24.0018 27.5724H16.9077Z" fill="white"/>
<path d="M8.57141 16.0769L10.1813 12.428H12.9653L13.8789 14.4719V12.428H17.3398L17.8837 13.9053L18.4109 12.428H33.9466V13.1707C33.9466 13.1707 34.7633 12.428 36.1055 12.428L41.1462 12.4451L42.0441 14.4623V12.428H44.9403L45.7374 13.5867V12.428H48.6602V18.983H45.7374L44.9735 17.8206V18.983H40.7183L40.2904 17.9497H39.1465L38.7255 18.983H35.8398C34.6849 18.983 33.9466 18.2555 33.9466 18.2555V18.983H29.5956L28.7321 17.9497V18.983H12.5529L12.1253 17.9497H10.985L10.5604 18.983H8.57141V16.0769Z" fill="white"/>
<path d="M10.7497 13.2358L8.57837 18.1441H9.99202L10.3927 17.1612H12.7218L13.1203 18.1441H14.5651L12.3959 13.2358H10.7497ZM11.5531 14.3781L12.263 16.0956H10.841L11.5531 14.3781Z" fill="#016FD0"/>
<path d="M14.7148 18.1429V13.2346L16.7237 13.2419L17.8922 16.4064L19.0326 13.2346H21.0254V18.1429H19.7633V14.5263L18.4254 18.1429H17.3186L15.977 14.5263V18.1429H14.7148Z" fill="#016FD0"/>
<path d="M21.89 18.1429V13.2346H26.0085V14.3325H23.1654V15.1721H25.9421V16.2054H23.1654V17.0773H26.0085V18.1429H21.89Z" fill="#016FD0"/>
<path d="M26.7382 13.2358V18.1441H28.0003V16.4004H28.5317L30.045 18.1441H31.5874L29.9267 16.3358C30.6083 16.2799 31.3113 15.7112 31.3113 14.8282C31.3113 13.7953 30.4774 13.2358 29.5468 13.2358H26.7382ZM28.0003 14.3337H29.443C29.7891 14.3337 30.0409 14.5969 30.0409 14.8504C30.0409 15.1765 29.7147 15.3671 29.4617 15.3671H28.0003V14.3337Z" fill="#016FD0"/>
<path d="M33.1171 18.1429H31.8284V13.2346H33.1171V18.1429Z" fill="#016FD0"/>
<path d="M36.1724 18.1429H35.8943C34.5484 18.1429 33.7312 17.112 33.7312 15.7089C33.7312 14.2712 34.5392 13.2346 36.2389 13.2346H37.6338V14.3971H36.1878C35.4979 14.3971 35.0099 14.9206 35.0099 15.721C35.0099 16.6716 35.5679 17.0708 36.3717 17.0708H36.7038L36.1724 18.1429Z" fill="#016FD0"/>
<path d="M38.9198 13.2358L36.7484 18.1441H38.1621L38.5627 17.1612H40.8918L41.2904 18.1441H42.7352L40.5659 13.2358H38.9198ZM39.7231 14.3781L40.433 16.0956H39.0111L39.7231 14.3781Z" fill="#016FD0"/>
<path d="M42.881 18.1429V13.2346H44.4856L46.5345 16.3184V13.2346H47.7966V18.1429H46.2439L44.1431 14.9784V18.1429H42.881Z" fill="#016FD0"/>
<path d="M17.7716 26.733V21.8247H21.8901V22.9226H19.047V23.7622H21.8237V24.7955H19.047V25.6674H21.8901V26.733H17.7716Z" fill="#016FD0"/>
<path d="M37.9514 26.733V21.8247H42.0699V22.9226H39.2268V23.7622H41.9902V24.7955H39.2268V25.6674H42.0699V26.733H37.9514Z" fill="#016FD0"/>
<path d="M22.0504 26.7329L24.0557 24.3091L22.0027 21.8247H23.5928L24.8155 23.3605L26.0423 21.8247H27.5701L25.5441 24.2788L27.553 26.7329H25.9632L24.776 25.2213L23.6177 26.7329H22.0504Z" fill="#016FD0"/>
<path d="M27.7015 21.8252V26.7335H28.9969V25.1835H30.3254C31.4496 25.1835 32.3017 24.6037 32.3017 23.4761C32.3017 22.542 31.6334 21.8252 30.4894 21.8252H27.7015ZM28.9969 22.9352H30.396C30.7592 22.9352 31.0188 23.1516 31.0188 23.5003C31.0188 23.8279 30.7605 24.0654 30.3919 24.0654H28.9969V22.9352Z" fill="#016FD0"/>
<path d="M32.8505 21.8247V26.733H34.1126V24.9893H34.644L36.1573 26.733H37.6997L36.039 24.9247C36.7206 24.8688 37.4236 24.3 37.4236 23.4171C37.4236 22.3842 36.5898 21.8247 35.6591 21.8247H32.8505ZM34.1126 22.9226H35.5553C35.9014 22.9226 36.1532 23.1858 36.1532 23.4393C36.1532 23.7654 35.827 23.9559 35.574 23.9559H34.1126V22.9226Z" fill="#016FD0"/>
<path d="M42.6555 26.733V25.6674H45.1814C45.5552 25.6674 45.717 25.471 45.717 25.2557C45.717 25.0493 45.5557 24.8407 45.1814 24.8407H44.04C43.0478 24.8407 42.4952 24.253 42.4952 23.3707C42.4952 22.5837 43.0013 21.8247 44.4756 21.8247H46.9334L46.402 22.9291H44.2763C43.87 22.9291 43.7449 23.1364 43.7449 23.3343C43.7449 23.5378 43.8995 23.7622 44.2099 23.7622H45.4056C46.5116 23.7622 46.9916 24.3721 46.9916 25.1709C46.9916 26.0296 46.4568 26.733 45.3454 26.733H42.6555Z" fill="#016FD0"/>
<path d="M47.2867 26.733V25.6674H49.8126C50.1864 25.6674 50.3482 25.471 50.3482 25.2557C50.3482 25.0493 50.1869 24.8407 49.8126 24.8407H48.6712C47.679 24.8407 47.1265 24.253 47.1265 23.3707C47.1265 22.5837 47.6325 21.8247 49.1068 21.8247H51.5145L51.0333 22.9291H48.9076C48.5012 22.9291 48.3761 23.1364 48.3761 23.3343C48.3761 23.5378 48.5307 23.7622 48.8411 23.7622H50.0368C51.1429 23.7622 51.6228 24.3721 51.6228 25.1709C51.6228 26.0296 51.088 26.733 49.9766 26.733H47.2867Z" fill="#016FD0"/>
</g>
</svg>