<svg xmlns="http://www.w3.org/2000/svg" width="28" height="28" viewBox="0 0 28 28" fill="none">
<path d="M17.1464 22.5202C17.3417 22.7155 17.6583 22.7155 17.8536 22.5202C18.0488 22.3249 18.0488 22.0084 17.8536 21.8131L17.1464 22.5202ZM9.33333 14L8.97978 13.6464C8.88601 13.7402 8.83333 13.8674 8.83333 14C8.83333 14.1326 8.88601 14.2598 8.97978 14.3535L9.33333 14ZM17.8536 6.18687C18.0488 5.9916 18.0488 5.67502 17.8536 5.47976C17.6583 5.2845 17.3417 5.2845 17.1464 5.47976L17.8536 6.18687ZM17.8536 21.8131L9.68689 13.6464L8.97978 14.3535L17.1464 22.5202L17.8536 21.8131ZM9.68689 14.3535L17.8536 6.18687L17.1464 5.47976L8.97978 13.6464L9.68689 14.3535Z" fill="white"/>
</svg>