<svg width="32" height="32" viewBox="0 0 32 32" fill="none" xmlns="http://www.w3.org/2000/svg">
<rect width="32" height="32" fill="white"/>
<path fill-rule="evenodd" clip-rule="evenodd" d="M9.69623 9.33333H25.4581V11.2937L21.2654 13.6933C20.3891 13.6769 19.3853 13.6667 18.2458 13.6667C15.6045 13.6667 13.5484 13.8116 11.9185 14.2453L3.36434 9.33333L2.67828 10.481L10.2844 14.8486C9.29322 15.3419 8.50391 16.0228 7.85178 16.9498C6.96982 18.2035 6.37708 19.7839 6.00688 21.0166C5.81989 21.6392 5.68583 22.1864 5.59833 22.5789C5.5912 22.6108 5.58438 22.6417 5.57787 22.6716L2.66699 24.3376L3.35088 25.4864L5.94794 24H26.2213L28.8398 25.5036L29.5259 24.3559L26.7915 22.7858V12.0708L29.5372 10.4993L28.8533 9.35057L26.7915 10.5306V8H9.69623V9.33333ZM25.4581 12.8339L23.8242 13.769C23.9962 13.7763 24.1583 13.7837 24.3105 13.7911C24.7868 13.8143 25.1672 13.8375 25.4581 13.8576V12.8339ZM18.9797 15.0015C18.7417 15.0005 18.4971 15 18.2458 15C16.3855 15 14.8912 15.0762 13.6727 15.2527L16.1027 16.648L18.9797 15.0015ZM11.7456 15.6877C10.4592 16.1169 9.60746 16.7714 8.9423 17.7169C8.18281 18.7965 7.63943 20.2161 7.28387 21.4001C7.24745 21.5213 7.21316 21.6396 7.18096 21.7541L14.7581 17.4176L11.7456 15.6877ZM8.27764 22.6667H23.8993L16.1014 18.1889L8.27764 22.6667ZM25.4581 22.0201L17.446 17.4194L21.614 15.0339C22.7025 15.0574 23.5735 15.0902 24.2458 15.1229C24.7661 15.1482 25.1674 15.1734 25.4581 15.1942V22.0201Z" fill="black"/>
</svg>
