<svg width="25" height="24" viewBox="0 0 25 24" fill="none" xmlns="http://www.w3.org/2000/svg">
<path fill-rule="evenodd" clip-rule="evenodd" d="M16.8053 3.75C15.4937 3.75 14.2335 4.28909 13.3047 5.25232L13.0395 5.52714C12.8982 5.67365 12.7034 5.75641 12.4998 5.75642C12.2962 5.75642 12.1013 5.67365 11.96 5.52714L11.6949 5.25229C9.76309 3.24988 6.62529 3.24988 4.69352 5.2523C2.76883 7.24739 2.76883 10.477 4.69352 12.4721L11.9886 20.034C12.2573 20.3126 12.7054 20.3232 12.9874 20.0573C14.6657 18.4409 16.2608 16.747 17.868 15.0402C18.6737 14.1847 19.4823 13.3259 20.306 12.4721C21.2292 11.5156 21.75 10.2178 21.75 8.86222C21.75 7.50674 21.2294 6.20909 20.3061 5.2524C19.3773 4.28925 18.117 3.75 16.8053 3.75ZM12.4999 3.94228C13.6757 2.85872 15.2069 2.25 16.8053 2.25C18.5313 2.25 20.179 2.95977 21.3854 4.21074C22.5832 5.45181 23.25 7.1248 23.25 8.86222C23.25 10.5997 22.5831 12.2728 21.3854 13.5137C20.589 14.3393 19.7938 15.1836 18.9945 16.0323C17.371 17.7562 15.7301 19.4985 14.0256 21.14L14.0216 21.1438C13.1426 21.9779 11.7505 21.9476 10.909 21.0754L3.61399 13.5136C1.12867 10.9374 1.12867 6.78707 3.61399 4.21085C6.04605 1.68984 9.96239 1.60032 12.4999 3.94228Z" fill="#2F2B43"/>
</svg>
