<svg width="40" height="40" viewBox="0 0 40 40" fill="none" xmlns="http://www.w3.org/2000/svg">
<rect width="40" height="40" rx="20" fill="#2F2B43" fill-opacity="0.04"/>
<path fill-rule="evenodd" clip-rule="evenodd" d="M12.0295 19.4345C16.9907 17.273 20.2989 15.848 21.9542 15.1595C26.6804 13.1937 27.6625 12.8522 28.3026 12.8409C28.4433 12.8385 28.7581 12.8734 28.962 13.0388C29.1342 13.1785 29.1816 13.3672 29.2042 13.4997C29.2269 13.6321 29.2551 13.9339 29.2327 14.1696C28.9766 16.8606 27.8684 23.391 27.3046 26.4049C27.066 27.6802 26.5963 28.1079 26.1415 28.1497C25.1532 28.2406 24.4028 27.4966 23.4456 26.8691C21.9478 25.8873 21.1016 25.2761 19.6477 24.318C17.9674 23.2107 19.0567 22.6021 20.0142 21.6076C20.2648 21.3473 24.6192 17.3866 24.7035 17.0273C24.714 16.9824 24.7238 16.8149 24.6243 16.7265C24.5248 16.638 24.3779 16.6683 24.272 16.6923C24.1217 16.7264 21.7289 18.308 17.0935 21.437C16.4143 21.9034 15.7992 22.1306 15.248 22.1187C14.6403 22.1056 13.4715 21.7751 12.6025 21.4927C11.5368 21.1462 10.6897 20.9631 10.7635 20.3747C10.8019 20.0682 11.2239 19.7548 12.0295 19.4345Z" fill="#2F2B43"/>
</svg>
