<svg xmlns:dc="http://purl.org/dc/elements/1.1/" xmlns:cc="http://creativecommons.org/ns#" xmlns:rdf="http://www.w3.org/1999/02/22-rdf-syntax-ns#" xmlns:svg="http://www.w3.org/2000/svg" xmlns="http://www.w3.org/2000/svg" version="1.1" id="svg7952" viewBox="0 0 212.93375 74.871211" height="21.13032mm" width="60.094635mm">
  <defs id="defs7954">
    <clipPath id="clipPath128" clipPathUnits="userSpaceOnUse">
      <path id="path130" d="m 206.078,466.607 85.115,0 0,34.842 -85.115,0 0,-34.842 z"/>
    </clipPath>
  </defs>
  <metadata id="metadata7957">
    <rdf:RDF>
      <cc:Work rdf:about="">
        <dc:format>image/svg+xml</dc:format>
        <dc:type rdf:resource="http://purl.org/dc/dcmitype/StillImage"/>
        <dc:title/>
      </cc:Work>
    </rdf:RDF>
  </metadata>
  <g transform="translate(-226.39026,-143.82951)" id="layer1">
    <g id="g124" transform="matrix(2.864053,0,0,-2.864053,-363.82891,1555.0879)">
      <g clip-path="url(#clipPath128)" id="g126">
        <g transform="translate(214.4713,492.7487)" id="g132">
          <path id="path134" style="fill:#ee2a23;fill-opacity:1;fill-rule:nonzero;stroke:none" d="m 0,0 c 1.779,0 2.338,-1.276 2.807,-2.55 0.197,-0.541 4.82,-13.201 4.959,-13.581 0.037,-0.106 0.012,-0.28 -0.151,-0.343 -0.164,-0.062 -2.566,-0.996 -2.699,-1.046 -0.133,-0.051 -0.282,0.023 -0.33,0.156 -0.05,0.131 -1.047,2.891 -1.159,3.199 l -6.852,0 c -0.108,-0.308 -1.117,-3.074 -1.162,-3.199 -0.046,-0.127 -0.189,-0.213 -0.331,-0.156 -0.142,0.056 -2.553,0.99 -2.697,1.046 -0.138,0.054 -0.201,0.211 -0.153,0.343 0.17,0.474 4.723,12.931 4.955,13.581 C -2.361,-1.295 -1.783,0 0,0 m -8.134,-22.653 c -0.144,0 -0.259,-0.12 -0.259,-0.266 l 0,-2.959 c 0,-0.146 0.115,-0.264 0.259,-0.264 l 16.261,0 c 0.147,0 0.262,0.118 0.262,0.264 l 0,2.959 c 0,0.146 -0.115,0.266 -0.262,0.266 l -16.261,0 m 8.118,18.519 -2.316,-6.955 4.67,0 -2.324,6.955 -0.03,0 z m 34.753,-11.404 c -0.341,-0.115 -0.566,-0.143 -0.834,-0.143 -0.554,0 -0.861,0.219 -0.861,0.787 0,0.592 0.39,0.79 1.156,0.79 0.187,0 0.371,-0.027 0.457,-0.057 l 0,-0.424 c 0,-0.457 0.025,-0.757 0.082,-0.953 m 1.969,-0.678 c -0.409,0.621 -0.516,0.987 -0.516,1.77 l 0,1.59 c 0,0.856 -0.1,1.165 -0.326,1.477 -0.315,0.442 -0.84,0.634 -1.805,0.634 -0.683,0 -1.346,-0.074 -1.988,-0.238 l 0.232,-1.13 c 0.434,0.061 0.889,0.113 1.21,0.113 1.025,0 1.142,-0.148 1.142,-0.917 l 0,-0.287 c -0.228,0.061 -0.484,0.105 -0.781,0.105 -1.543,0 -2.358,-0.755 -2.358,-2.005 0,-1.172 0.871,-1.811 1.932,-1.811 0.396,0 0.81,0.073 1.138,0.207 0.198,0.086 0.284,0.137 0.54,0.303 0.154,-0.224 0.463,-0.453 0.589,-0.496 l 0.991,0.685 z m 15.263,0.678 c -0.343,-0.115 -0.564,-0.143 -0.834,-0.143 -0.556,0 -0.867,0.219 -0.867,0.787 0,0.592 0.395,0.79 1.163,0.79 0.187,0 0.372,-0.027 0.456,-0.057 l 0,-0.424 c 0,-0.457 0.024,-0.757 0.082,-0.953 m 1.971,-0.678 c -0.412,0.621 -0.517,0.987 -0.517,1.77 l 0,1.59 c 0,0.856 -0.102,1.165 -0.33,1.477 -0.311,0.442 -0.837,0.634 -1.805,0.634 -0.682,0 -1.349,-0.074 -1.991,-0.238 l 0.229,-1.13 c 0.435,0.061 0.891,0.113 1.221,0.113 1.019,0 1.14,-0.148 1.14,-0.917 l 0,-0.287 c -0.228,0.061 -0.482,0.105 -0.785,0.105 -1.545,0 -2.363,-0.755 -2.363,-2.005 0,-1.172 0.873,-1.811 1.939,-1.811 0.401,0 0.811,0.073 1.136,0.207 0.201,0.086 0.284,0.137 0.54,0.303 0.156,-0.224 0.465,-0.453 0.592,-0.496 l 0.994,0.685 z m 12.014,-0.566 c 0,0 -0.846,1.803 -1.053,2.213 -0.233,0.462 -0.449,0.781 -0.925,0.896 l 0,0.026 c 0.319,0.061 0.573,0.254 0.851,0.844 0.263,0.575 0.341,0.699 0.496,0.836 0.152,0.136 0.36,0.087 0.36,0.087 l 0.078,1.063 c -0.221,0.03 -0.466,0.031 -0.719,0.017 -0.42,-0.025 -0.637,-0.146 -0.844,-0.354 -0.162,-0.159 -0.272,-0.397 -0.408,-0.67 -0.144,-0.298 -0.258,-0.538 -0.408,-0.841 -0.149,-0.311 -0.219,-0.451 -0.62,-0.451 l -0.261,0 0,4.709 -1.545,0 0,-8.375 1.545,0 0,2.408 0.211,0.004 c 0.443,0 0.521,-0.111 0.755,-0.578 0.274,-0.557 0.799,-1.834 0.799,-1.834 l 1.688,0 z m -43.524,0 1.783,0 -2.697,8.235 c -0.284,0.095 -0.635,0.154 -1.01,0.154 -0.409,0 -0.555,-0.054 -0.875,-0.154 l -2.854,-8.235 1.711,0 c 0,0 0.231,0.722 0.503,1.617 l 2.956,0 c 0.264,-0.894 0.483,-1.617 0.483,-1.617 m -3.005,2.998 c 0,0 0.494,1.653 0.571,1.91 0.196,0.666 0.494,1.724 0.494,1.724 l 0.049,0 c 0,0 0.276,-1.096 0.456,-1.712 0.068,-0.245 0.54,-1.922 0.54,-1.922 l -2.11,0 z m 19.913,0.942 c -0.545,0 -0.988,-0.445 -0.988,-0.99 0,-0.549 0.443,-0.991 0.988,-0.991 0.546,0 0.987,0.442 0.987,0.991 0,0.545 -0.441,0.99 -0.987,0.99 m -13.008,4.435 -1.549,0 0,-8.374 1.549,0 0,8.374 z m 30.775,-3.669 c 0.856,-0.018 0.962,-0.195 0.962,-0.913 l 0,-3.793 1.535,0 0,3.926 c 0,0.856 -0.1,1.165 -0.328,1.477 -0.315,0.442 -0.934,0.634 -1.981,0.634 -1.036,0 -1.696,-0.11 -2.545,-0.363 l 0,-5.674 1.551,0 0,4.634 c 0.407,0.059 0.479,0.072 0.806,0.072 m -26.944,3.818 c -0.968,0 -1.495,-0.192 -1.805,-0.633 -0.228,-0.313 -0.329,-0.629 -0.329,-1.487 l 0,-0.73 -0.769,0 0,-1.252 0.769,0 0,-4.422 1.536,0 -0.004,4.422 1.531,0 0,1.252 -1.531,0 0.004,0.671 c 0,0.768 0.117,0.917 1.143,0.917 0.111,0 0.236,-0.006 0.369,-0.016 l 0.242,1.203 c -0.379,0.05 -0.767,0.075 -1.156,0.075 m 12.324,-0.078 c 0.527,0.031 1.705,0.075 2.444,0.075 0.135,0 0.275,-0.001 0.415,-0.008 1.453,0 2.286,-1.058 2.286,-2.3 0,-0.845 -0.387,-1.406 -1.294,-1.74 1.067,-0.236 1.626,-1.069 1.626,-2.088 0,-0.748 -0.211,-1.342 -0.598,-1.747 -0.502,-0.494 -1.262,-0.771 -2.274,-0.771 -0.9,0 -2.03,0.028 -2.605,0.062 l 0,8.517 z m 2.444,-1.372 c -0.256,0 -0.573,-0.005 -0.887,-0.016 l 0,-2.011 0.888,0 c 0.352,0 0.635,0.098 0.828,0.287 0.184,0.178 0.28,0.43 0.28,0.729 0,0.643 -0.348,1.007 -0.995,1.011 l -0.114,0 z m 0.032,-5.763 0.067,0 c 0.807,0 1.301,0.429 1.307,1.293 -0.008,0.31 -0.127,0.596 -0.34,0.803 -0.233,0.234 -0.563,0.356 -0.95,0.356 l -1.003,0 0,-2.443 c 0.283,-0.006 0.595,-0.007 0.919,-0.009"/>
        </g>
      </g>
    </g>
  </g>
</svg>