<svg width="32" height="32" viewBox="0 0 32 32" fill="none" xmlns="http://www.w3.org/2000/svg">
<rect width="32" height="32" fill="white"/>
<path fill-rule="evenodd" clip-rule="evenodd" d="M12.3766 13.175L16.0956 6.66663L19.8212 13.1865L28.8533 8.0172L29.5372 9.16597L20.4844 14.3471L23.4473 19.5321L29.5259 23.0226L28.8398 24.1702L24.7585 21.8266L26.7623 25.3333H5.42896L7.44108 21.8121L3.35088 24.153L2.66699 23.0042L8.74889 19.5234L11.7133 14.3358L2.67828 9.14764L3.36434 7.99996L12.3766 13.175ZM12.9031 15.019L11.0971 18.1795L14.7581 16.0842L12.9031 15.019ZM9.78929 20.4681L7.79933 23.9506H24.3919L22.4065 20.4761L16.1014 16.8556L9.78929 20.4681ZM21.0953 18.1815L19.2936 15.0286L17.446 16.086L21.0953 18.1815ZM18.6304 13.868L16.1027 15.3147L13.5664 13.8582L16.0956 9.43206L18.6304 13.868Z" fill="black"/>
</svg>
