<svg width="20" height="20" viewBox="0 0 20 20" fill="none" xmlns="http://www.w3.org/2000/svg">
<path fill-rule="evenodd" clip-rule="evenodd" d="M16.7757 6.88444C17.1156 6.94422 17.3428 7.26827 17.283 7.60823L15.6205 17.0635C15.6205 17.0635 15.6205 17.0635 15.6205 17.0635C15.4279 18.1592 14.476 18.9583 13.3635 18.9583H6.63804C5.52548 18.9583 4.57365 18.1592 4.381 17.0635L2.71853 7.60823C2.65876 7.26826 2.8859 6.94421 3.22586 6.88444C3.56582 6.82467 3.88987 7.0518 3.94965 7.39177L5.61211 16.847C5.69969 17.3451 6.13235 17.7083 6.63804 17.7083H13.3635C13.8691 17.7083 14.3018 17.3451 14.3894 16.847L14.3894 16.847L16.0519 7.39176C16.1116 7.0518 16.4357 6.82466 16.7757 6.88444Z" fill="#2F2B43" fill-opacity="0.4"/>
<path fill-rule="evenodd" clip-rule="evenodd" d="M8.85417 2.29167C8.27887 2.29167 7.8125 2.75804 7.8125 3.33334V4.37501H12.1875V3.33334C12.1875 2.75804 11.7211 2.29167 11.1458 2.29167H8.85417ZM6.5625 4.37501V3.33334C6.5625 2.06769 7.58851 1.04167 8.85417 1.04167H11.1458C12.4115 1.04167 13.4375 2.06769 13.4375 3.33334V4.37501H17.5C17.8452 4.37501 18.125 4.65483 18.125 5.00001C18.125 5.34518 17.8452 5.62501 17.5 5.62501H2.5C2.15482 5.62501 1.875 5.34518 1.875 5.00001C1.875 4.65483 2.15482 4.37501 2.5 4.37501H6.5625Z" fill="#2F2B43" fill-opacity="0.4"/>
</svg>
