<svg width="24" height="24" viewBox="0 0 24 24" fill="none" xmlns="http://www.w3.org/2000/svg">
<g clip-path="url(#clip0_182_3964)">
<path fill-rule="evenodd" clip-rule="evenodd" d="M12.15 9.70853C12.6322 7.60437 14.7288 6.28948 16.8329 6.77165C18.9371 7.25381 20.252 9.35044 19.7698 11.4546C19.5291 12.5051 18.8873 13.3579 18.041 13.8901C17.1918 14.4243 16.141 14.633 15.0869 14.3915C12.9827 13.9093 11.6678 11.8127 12.15 9.70853ZM17.168 5.30954C14.2563 4.64234 11.3551 6.46184 10.6879 9.37349C10.0207 12.2852 11.8402 15.1864 14.7518 15.8536C15.944 16.1268 17.1354 15.9826 18.1713 15.5177C18.1768 15.5275 18.1826 15.5371 18.1886 15.5467L20.0979 18.5912C20.318 18.9421 20.7809 19.0482 21.1318 18.8281C21.4827 18.608 21.5888 18.1451 21.3687 17.7942L19.4594 14.7498C19.4534 14.7402 19.4472 14.7308 19.4408 14.7216C20.3103 13.9914 20.9588 12.9818 21.2319 11.7896C21.8991 8.87798 20.0796 5.97674 17.168 5.30954ZM2.24997 7.00003C2.24997 6.58582 2.58575 6.25003 2.99997 6.25003L7.99997 6.25003C8.41418 6.25003 8.74997 6.58582 8.74997 7.00003C8.74997 7.41424 8.41418 7.75003 7.99997 7.75003L2.99997 7.75003C2.58575 7.75003 2.24997 7.41424 2.24997 7.00003ZM2.24997 12C2.24997 11.5858 2.58575 11.25 2.99997 11.25L7.99997 11.25C8.41418 11.25 8.74997 11.5858 8.74997 12C8.74997 12.4142 8.41418 12.75 7.99997 12.75L2.99997 12.75C2.58575 12.75 2.24997 12.4142 2.24997 12ZM2.99997 16.25C2.58575 16.25 2.24997 16.5858 2.24997 17C2.24997 17.4142 2.58575 17.75 2.99997 17.75L11 17.75C11.4142 17.75 11.75 17.4142 11.75 17C11.75 16.5858 11.4142 16.25 11 16.25L2.99997 16.25Z" fill="#2F2B43"/>
</g>
<defs>
<clipPath id="clip0_182_3964">
<rect width="24" height="24" fill="white"/>
</clipPath>
</defs>
</svg>
