<svg width="58" height="40" viewBox="0 0 58 40" fill="none" xmlns="http://www.w3.org/2000/svg">
<path fill-rule="evenodd" clip-rule="evenodd" d="M19.1298 14V14.0053C19.1246 14.0053 17.4792 14 17.0404 15.5842C16.6382 17.0369 15.5048 21.0474 15.4734 21.1579H15.16C15.16 21.1579 14.0004 17.0579 13.593 15.579C13.1542 13.9947 11.5036 14 11.5036 14H7.7428V26.0527H11.5036V18.8948H11.6603H11.817L14.0109 26.0527H16.6226L18.8164 18.9H19.1298V26.0527H22.8907V14H19.1298Z" fill="#4DB45E"/>
<path fill-rule="evenodd" clip-rule="evenodd" d="M32.8678 14C32.8678 14 31.7657 14.1 31.2486 15.2632L28.5846 21.1579H28.2712V14H24.5104V26.0527H28.0623C28.0623 26.0527 29.2167 25.9474 29.7338 24.7895L32.3455 18.8948H32.6589V26.0527H36.4197V14H32.8678Z" fill="#4DB45E"/>
<path fill-rule="evenodd" clip-rule="evenodd" d="M38.0906 19.4736V26.0526H41.8514V22.2105H45.9257C47.7016 22.2105 49.206 21.0684 49.7649 19.4736H38.0906Z" fill="#4DB45E"/>
<path fill-rule="evenodd" clip-rule="evenodd" d="M45.9258 14H37.5631C37.981 16.2947 39.689 18.1369 41.8985 18.7369C42.4 18.8737 42.9275 18.9474 43.4708 18.9474H49.9164C49.9739 18.6737 50 18.3948 50 18.1053C50 15.8369 48.1771 14 45.9258 14Z" fill="url(#paint0_linear_103_539)"/>
<defs>
<linearGradient id="paint0_linear_103_539" x1="37.5641" y1="16.4737" x2="50" y2="16.4737" gradientUnits="userSpaceOnUse">
<stop offset="0.3" stop-color="#00B4E6"/>
<stop offset="1" stop-color="#088CCB"/>
</linearGradient>
</defs>
</svg>
