<svg width="24" height="24" viewBox="0 0 24 24" fill="none" xmlns="http://www.w3.org/2000/svg">
<path fill-rule="evenodd" clip-rule="evenodd" d="M8.875 3.75L6.7 6.65C6.18065 7.34247 5.36558 7.75 4.5 7.75H4C3.30964 7.75 2.75 8.30964 2.75 9V19C2.75 19.6904 3.30964 20.25 4 20.25H20C20.6904 20.25 21.25 19.6904 21.25 19V9C21.25 8.30964 20.6904 7.75 20 7.75H19.5C18.6344 7.75 17.8193 7.34247 17.3 6.65L15.125 3.75H8.875ZM7.72 2.79C7.97495 2.45006 8.37508 2.25 8.8 2.25H15.2C15.6249 2.25 16.025 2.45006 16.28 2.79L18.5 5.75C18.7361 6.06476 19.1066 6.25 19.5 6.25H20C21.5188 6.25 22.75 7.48122 22.75 9V19C22.75 20.5188 21.5188 21.75 20 21.75H4C2.48122 21.75 1.25 20.5188 1.25 19V9C1.25 7.48122 2.48122 6.25 4 6.25H4.5C4.89345 6.25 5.26393 6.06476 5.5 5.75L7.72 2.79Z" fill="white"/>
<path fill-rule="evenodd" clip-rule="evenodd" d="M12 9.75C10.2051 9.75 8.75 11.2051 8.75 13C8.75 14.7949 10.2051 16.25 12 16.25C13.7949 16.25 15.25 14.7949 15.25 13C15.25 11.2051 13.7949 9.75 12 9.75ZM7.25 13C7.25 10.3766 9.37665 8.25 12 8.25C14.6234 8.25 16.75 10.3766 16.75 13C16.75 15.6234 14.6234 17.75 12 17.75C9.37665 17.75 7.25 15.6234 7.25 13Z" fill="white"/>
</svg>
