<svg width="12" height="7" viewBox="0 0 12 7" fill="none" xmlns="http://www.w3.org/2000/svg">
                    <path d="M11.0209 1.35355C11.2161 1.15829 11.2161 0.841709 11.0209 0.646447C10.8256 0.451184 10.509 0.451184 10.3138 0.646447L11.0209 1.35355ZM6.00065 5.66667L5.6471 6.02022C5.74087 6.11399 5.86804 6.16667 6.00065 6.16667C6.13326 6.16667 6.26044 6.11399 6.35421 6.02022L6.00065 5.66667ZM1.68754 0.646447C1.49228 0.451184 1.17569 0.451184 0.980431 0.646447C0.785169 0.841709 0.785169 1.15829 0.980431 1.35355L1.68754 0.646447ZM10.3138 0.646447L5.6471 5.31311L6.35421 6.02022L11.0209 1.35355L10.3138 0.646447ZM6.3542 5.31311L1.68754 0.646447L0.980431 1.35355L5.6471 6.02022L6.3542 5.31311Z" fill="#383838" />
                </svg>