<svg xmlns="http://www.w3.org/2000/svg" width="22" height="18" viewBox="0 0 22 18" fill="none">
<path d="M12.837 7.45116C12.7499 7.4506 12.666 7.48324 12.6038 7.54195C12.5415 7.60067 12.506 7.68071 12.5048 7.76459V10.1068C12.506 10.1908 12.5417 10.271 12.6042 10.3298C12.6666 10.3885 12.7508 10.421 12.8381 10.4202H20.1674C20.2547 10.421 20.3389 10.3885 20.4013 10.3298C20.4638 10.271 20.4995 10.1908 20.5007 10.1068V7.76459C20.4995 7.68052 20.4638 7.60033 20.4013 7.54158C20.3389 7.48283 20.2547 7.45032 20.1674 7.45116H12.8381H12.837ZM17.3316 0.0010589C18.3458 0.0476485 19.0751 0.24036 19.5371 0.649078C19.9936 1.05356 20.2279 1.63911 20.2741 2.41419V4.63461C20.2718 4.82371 20.1916 5.00418 20.0511 5.13641C19.9107 5.26863 19.7214 5.34178 19.525 5.33981C19.4276 5.34093 19.331 5.32357 19.2406 5.28874C19.1502 5.2539 19.0678 5.20227 18.9982 5.13678C18.9285 5.0713 18.8729 4.99325 18.8346 4.90708C18.7963 4.82092 18.7759 4.72833 18.7748 4.63461L18.7759 2.45443C18.7517 2.05206 18.6516 1.80217 18.5086 1.67511C18.37 1.55228 17.9476 1.44216 17.2953 1.4104H2.9117C2.321 1.43157 1.9371 1.53958 1.7512 1.69311C1.6082 1.81064 1.5004 2.13465 1.4993 2.69479L1.496 15.1575C1.551 15.7018 1.6753 16.065 1.8348 16.246C1.9558 16.3837 2.3309 16.5213 2.8831 16.5891H17.3107C17.9861 16.6018 18.3843 16.5044 18.5185 16.3741C18.667 16.2291 18.7748 15.8479 18.7748 15.2242V13.0589C18.7748 12.6703 19.1103 12.3537 19.525 12.3537C19.9386 12.3537 20.2741 12.6703 20.2741 13.0589V15.2242C20.2741 16.1772 20.0717 16.8898 19.5976 17.3525C19.1092 17.829 18.3326 18.0196 17.2953 17.9984L2.794 17.9952C1.8073 17.8851 1.1 17.6246 0.6787 17.145C0.297 16.7109 0.0847 16.0914 0 15.2253V2.69373C0.0022 1.76617 0.2332 1.06838 0.7634 0.632136C1.2496 0.229771 1.9514 0.0338834 2.8831 0H17.3316V0.0010589ZM20.1674 6.04077C21.1794 6.04077 22 6.81267 22 7.76459V10.1068C22 11.0587 21.1794 11.8306 20.1674 11.8306H12.8381C11.8261 11.8306 11.0055 11.0576 11.0055 10.1068V7.76459C11.0055 6.81267 11.8261 6.04077 12.8381 6.04077H20.1674ZM14.6707 8.09495C14.1647 8.09495 13.7544 8.47614 13.7544 8.94521C13.7544 9.41534 14.1647 9.79547 14.6707 9.79547C15.1767 9.79547 15.587 9.41428 15.587 8.94521C15.587 8.47508 15.1767 8.09389 14.6707 8.09389V8.09495Z" fill="#1A1A1A"/>
</svg>