<svg xmlns="http://www.w3.org/2000/svg" width="200" height="18" viewBox="0 0 200 18" fill="none">
<path d="M13.6664 16.9054C13.6664 11.3903 13.6664 5.91159 13.6664 0.436491C9.08551 0.436491 4.54457 0.436491 0 0.436491C0 5.94612 0 11.4121 0 16.8927C0.74745 16.8927 1.47132 16.8927 2.24417 16.8927C2.24417 12.0536 2.24417 7.2581 2.24417 2.45354C5.33375 2.45354 8.37253 2.45354 11.4657 2.45354C11.4657 7.28354 11.4657 12.0772 11.4657 16.9036C12.2168 16.9054 12.9135 16.9054 13.6664 16.9054Z" fill="#EE3124"/>
<path d="M53.1967 14.8484L47.2788 1.54496C46.9795 0.870793 46.31 0.436491 45.5735 0.436491C44.8369 0.436491 44.1675 0.870793 43.8681 1.54496L37.9502 14.8484H35.9328V16.9036H55.2123V14.8484H53.1967ZM45.5735 2.90964L50.7603 14.8484H40.3867L45.5735 2.90964Z" fill="#EE3124"/>
<path d="M91.0725 16.9036L84.6012 1.55405C84.3146 0.876245 83.6524 0.436491 82.9177 0.436491C82.1829 0.436491 81.5207 0.876245 81.2341 1.55405L74.7628 16.9036H77.1993L82.9177 3.04048L88.636 16.9036H91.0725Z" fill="#EE3124"/>
<path d="M106.268 0.436491L96.4606 13.7672V0.436491H94.2546V16.9054H96.4606L106.308 3.52203V16.9054H108.514V0.436491H106.268Z" fill="#EE3124"/>
<path d="M64.9109 15.1678C63.3311 15.1677 61.8057 14.59 60.6212 13.543C59.4366 12.4961 58.6745 11.052 58.4778 9.48193H73.5356C73.561 9.21481 73.5737 8.93679 73.5737 8.67148C73.5736 8.24573 73.542 7.82057 73.4794 7.39947C73.1751 5.34189 72.1425 3.46245 70.5698 2.10407C68.9972 0.745693 66.9894 -0.00108134 64.9127 1.17524e-06C62.6171 1.17524e-06 60.4156 0.91341 58.7923 2.53929C57.1691 4.16516 56.2572 6.37033 56.2572 8.66966C56.2572 10.969 57.1691 13.1742 58.7923 14.8C60.4156 16.4259 62.6171 17.3393 64.9127 17.3393C66.621 17.3379 68.2907 16.83 69.7113 15.8796C71.1318 14.9292 72.2397 13.5788 72.8952 11.9987H70.4787C69.9045 12.965 69.0893 13.7652 68.1132 14.3208C67.1371 14.8763 66.0336 15.1682 64.9109 15.1678ZM64.9109 2.17514C66.4107 2.17506 67.8641 2.69559 69.0238 3.64813C70.1835 4.60066 70.9778 5.92633 71.2715 7.39947H58.5521C58.8472 5.9275 59.6421 4.60328 60.8016 3.65188C61.9611 2.70048 63.4138 2.17515 64.9127 2.17514H64.9109Z" fill="#EE3124"/>
<path d="M26.2602 0C21.4798 0 17.6046 3.88145 17.6046 8.66966C17.6046 13.4579 21.4798 17.3393 26.2602 17.3393C31.0406 17.3393 34.9157 13.4579 34.9157 8.66966C34.9157 3.88145 31.0406 0 26.2602 0ZM26.2602 15.166C22.679 15.166 19.7744 12.2567 19.7744 8.66966C19.7744 5.08259 22.679 2.17332 26.2602 2.17332C29.8414 2.17332 32.746 5.08259 32.746 8.66966C32.746 12.2567 29.8414 15.166 26.2602 15.166Z" fill="#EE3124"/>
<path d="M26.2561 1.16374C26.2561 1.6998 26.6461 2.16136 27.1777 2.23768C30.0224 2.6429 32.272 4.89618 32.6765 7.74549C32.7527 8.27791 33.2135 8.6686 33.7487 8.6686C34.4037 8.6686 34.9171 8.09074 34.8246 7.4402C34.2857 3.63507 31.2796 0.62404 27.4807 0.0843446C26.833 -0.00651329 26.2561 0.507743 26.2561 1.16374Z" fill="#1A1A1A"/>
<path d="M118.44 2.89143H119.298C119.231 2.53332 118.816 1.34283 117.292 1.34283C116.047 1.34283 115.121 2.4075 115.121 3.85931C115.121 5.30145 116.057 6.36611 117.301 6.36611C118.825 6.36611 119.24 5.13691 119.298 4.82719H118.449C118.362 5.00141 118.102 5.56278 117.301 5.56278C116.53 5.56278 116.028 4.81751 116.028 3.85931C116.028 2.89143 116.53 2.15585 117.292 2.15585C118.054 2.15585 118.353 2.69786 118.44 2.89143Z" fill="#1A1A1A"/>
<path d="M122.28 1.34283C120.958 1.34283 120.109 2.39782 120.109 3.85931C120.109 5.26273 120.977 6.36611 122.366 6.36611C123.862 6.36611 124.305 5.35952 124.411 4.97237H123.572C123.495 5.0982 123.206 5.56278 122.366 5.56278C121.518 5.56278 121.045 4.8659 120.997 3.98514H124.44V3.84963C124.44 2.33007 123.572 1.34283 122.28 1.34283ZM122.28 2.09777C122.955 2.09777 123.37 2.53332 123.514 3.28826H121.026C121.151 2.56236 121.566 2.09777 122.28 2.09777Z" fill="#1A1A1A"/>
<path d="M126.557 5.5047C126.672 5.71764 127.106 6.36611 128.042 6.36611C129.171 6.36611 130.097 5.43695 130.097 3.85931C130.097 2.28167 129.171 1.34283 128.042 1.34283C127.097 1.34283 126.672 2.01067 126.557 2.25264V1.46865H125.688V8.32123H126.557V5.5047ZM126.537 3.85931C126.537 2.89143 127.039 2.15585 127.868 2.15585C128.688 2.15585 129.2 2.89143 129.2 3.85931C129.2 4.81751 128.688 5.56278 127.868 5.56278C127.039 5.56278 126.537 4.81751 126.537 3.85931Z" fill="#1A1A1A"/>
<path d="M131.392 6.24997H133.62C134.701 6.24997 135.405 5.6886 135.405 4.83687C135.405 4.24646 135 3.90771 134.556 3.79156C134.913 3.67542 135.279 3.32698 135.279 2.72689C135.279 1.85581 134.546 1.46865 133.64 1.46865H131.392V6.24997ZM133.64 2.24296C134.122 2.24296 134.411 2.45589 134.411 2.80433C134.411 3.23987 134.093 3.42377 133.64 3.42377H132.27V2.24296H133.64ZM133.64 4.19807C134.228 4.19807 134.489 4.4594 134.489 4.79815C134.489 5.2337 134.199 5.47567 133.63 5.47567H132.27V4.19807H133.64Z" fill="#1A1A1A"/>
<path d="M136.644 6.24997H137.522L139.943 2.70754V6.24997H140.82V1.46865H139.943L137.522 4.98205V1.46865H136.644V6.24997Z" fill="#1A1A1A"/>
<path d="M145.414 2.89143H146.272C146.205 2.53332 145.79 1.34283 144.266 1.34283C143.021 1.34283 142.096 2.4075 142.096 3.85931C142.096 5.30145 143.031 6.36611 144.275 6.36611C145.799 6.36611 146.214 5.13691 146.272 4.82719H145.423C145.336 5.00141 145.076 5.56278 144.275 5.56278C143.504 5.56278 143.002 4.81751 143.002 3.85931C143.002 2.89143 143.504 2.15585 144.266 2.15585C145.028 2.15585 145.327 2.69786 145.414 2.89143Z" fill="#1A1A1A"/>
<path d="M151.728 1.35251C150.378 1.35251 149.49 2.43653 149.49 3.85931C149.49 5.28209 150.378 6.36611 151.728 6.36611C153.078 6.36611 153.966 5.28209 153.966 3.85931C153.966 2.43653 153.078 1.35251 151.728 1.35251ZM151.728 5.5531C150.85 5.5531 150.397 4.79815 150.397 3.85931C150.397 2.92047 150.86 2.16553 151.728 2.16553C152.596 2.16553 153.059 2.92047 153.059 3.85931C153.059 4.79815 152.596 5.5531 151.728 5.5531Z" fill="#1A1A1A"/>
<path d="M155.239 6.24997H156.117V2.26231H158.345V6.24997H159.223V1.46865H155.239V6.24997Z" fill="#1A1A1A"/>
<path d="M161.216 4.12064C161.11 5.21434 160.975 5.52406 160.319 5.52406H160.203V6.31772H160.464C161.486 6.31772 161.853 5.64989 161.998 4.17871L162.181 2.26231H163.859V6.24997H164.737V1.46865H161.477L161.216 4.12064Z" fill="#1A1A1A"/>
<path d="M169.461 5.46599V6.24997H170.339V1.46865H169.461V2.26231C169.346 2.02034 168.969 1.36219 168.043 1.36219C166.905 1.36219 166.027 2.30103 166.027 3.86899C166.027 5.43695 166.905 6.36611 168.043 6.36611C168.96 6.36611 169.346 5.74667 169.461 5.46599ZM169.481 3.86899C169.481 4.81751 169.018 5.56278 168.207 5.56278C167.378 5.56278 166.934 4.81751 166.934 3.86899C166.934 2.91079 167.378 2.1752 168.207 2.1752C169.018 2.1752 169.481 2.91079 169.481 3.86899Z" fill="#1A1A1A"/>
<path d="M173.055 6.24997H173.933V2.26231H175.573V1.46865H171.415V2.26231H173.055V6.24997Z" fill="#1A1A1A"/>
<path d="M178.589 3.00758H177.528V1.46865H176.651V6.24997H178.599C179.911 6.24997 180.49 5.45631 180.49 4.61426C180.49 3.70445 179.911 3.00758 178.589 3.00758ZM181.29 6.24997H182.168V1.46865H181.29V6.24997ZM178.493 3.80124C179.187 3.80124 179.564 4.11096 179.564 4.61426C179.564 5.1853 179.187 5.45631 178.493 5.45631H177.528V3.80124H178.493Z" fill="#1A1A1A"/>
<path d="M115.43 15.9287H116.308V11.9411H118.536V15.9287H119.414V11.1474H115.43V15.9287Z" fill="#1A1A1A"/>
<path d="M122.922 11.0313C121.571 11.0313 120.684 12.1153 120.684 13.5381C120.684 14.9609 121.571 16.0449 122.922 16.0449C124.272 16.0449 125.16 14.9609 125.16 13.5381C125.16 12.1153 124.272 11.0313 122.922 11.0313ZM122.922 15.2319C122.044 15.2319 121.591 14.4769 121.591 13.5381C121.591 12.5992 122.054 11.8443 122.922 11.8443C123.79 11.8443 124.253 12.5992 124.253 13.5381C124.253 14.4769 123.79 15.2319 122.922 15.2319Z" fill="#1A1A1A"/>
<path d="M126.433 15.9287H127.281V13.7317L129.674 15.9287H130.86L128.207 13.4316L130.696 11.1474H129.529L127.281 13.2477V11.1474H126.433V15.9287Z" fill="#1A1A1A"/>
<path d="M132.071 18H132.949L135.678 11.1474H134.781L133.373 14.6995L131.965 11.1474H131L132.92 15.8513L132.071 18Z" fill="#1A1A1A"/>
<path d="M136.616 15.9287H137.493V11.9411H139.722V15.9287H140.599V11.1474H136.616V15.9287Z" fill="#1A1A1A"/>
<path d="M144.107 11.0313C142.757 11.0313 141.869 12.1153 141.869 13.5381C141.869 14.9609 142.757 16.0449 144.107 16.0449C145.458 16.0449 146.345 14.9609 146.345 13.5381C146.345 12.1153 145.458 11.0313 144.107 11.0313ZM144.107 15.2319C143.229 15.2319 142.776 14.4769 142.776 13.5381C142.776 12.5992 143.239 11.8443 144.107 11.8443C144.975 11.8443 145.438 12.5992 145.438 13.5381C145.438 14.4769 144.975 15.2319 144.107 15.2319Z" fill="#1A1A1A"/>
<path d="M147.618 15.9287H148.467V13.7317L150.859 15.9287H152.046L149.393 13.4316L151.882 11.1474H150.714L148.467 13.2477V11.1474H147.618V15.9287Z" fill="#1A1A1A"/>
<path d="M155.145 15.9287H156.023V11.9411H158.251V15.9287H159.128V11.1474H155.145V15.9287Z" fill="#1A1A1A"/>
<path d="M162.636 11.0313C161.286 11.0313 160.399 12.1153 160.399 13.5381C160.399 14.9609 161.286 16.0449 162.636 16.0449C163.987 16.0449 164.874 14.9609 164.874 13.5381C164.874 12.1153 163.987 11.0313 162.636 11.0313ZM162.636 15.2319C161.759 15.2319 161.305 14.4769 161.305 13.5381C161.305 12.5992 161.768 11.8443 162.636 11.8443C163.505 11.8443 163.968 12.5992 163.968 13.5381C163.968 14.4769 163.505 15.2319 162.636 15.2319Z" fill="#1A1A1A"/>
<path d="M171.449 15.9287H172.327V11.1474H171.449V13.3348C171.449 13.3348 171.034 13.451 170.398 13.451C169.51 13.451 169.269 13.0638 169.269 12.3089V11.1474H168.391V12.4057C168.391 13.7317 169.105 14.235 170.398 14.235C171.025 14.235 171.449 14.1091 171.449 14.1091V15.9287Z" fill="#1A1A1A"/>
<path d="M177.054 15.1448V15.9287H177.932V11.1474H177.054V11.9411C176.938 11.6991 176.562 11.041 175.636 11.041C174.498 11.041 173.62 11.9798 173.62 13.5478C173.62 15.1157 174.498 16.0449 175.636 16.0449C176.552 16.0449 176.938 15.4254 177.054 15.1448ZM177.073 13.5478C177.073 14.4963 176.61 15.2415 175.8 15.2415C174.97 15.2415 174.527 14.4963 174.527 13.5478C174.527 12.5896 174.97 11.854 175.8 11.854C176.61 11.854 177.073 12.5896 177.073 13.5478Z" fill="#1A1A1A"/>
<path d="M182.519 12.5702H183.378C183.31 12.2121 182.895 11.0216 181.371 11.0216C180.127 11.0216 179.201 12.0863 179.201 13.5381C179.201 14.9802 180.137 16.0449 181.381 16.0449C182.905 16.0449 183.32 14.8157 183.378 14.506H182.529C182.442 14.6802 182.181 15.2415 181.381 15.2415C180.609 15.2415 180.108 14.4963 180.108 13.5381C180.108 12.5702 180.609 11.8346 181.371 11.8346C182.133 11.8346 182.432 12.3766 182.519 12.5702Z" fill="#1A1A1A"/>
<path d="M185.683 15.9287H186.561V11.9411H188.2V11.1474H184.043V11.9411H185.683V15.9287Z" fill="#1A1A1A"/>
<path d="M192.905 15.9287V11.1474H190.667C189.49 11.1474 188.969 11.8637 188.969 12.638C188.969 13.3348 189.317 13.8962 190.088 14.0801L188.825 15.9287H189.838L190.995 14.1962H192.027V15.9287H192.905ZM190.773 13.4026C190.204 13.4026 189.895 13.1122 189.895 12.638C189.895 12.1734 190.204 11.9411 190.773 11.9411H192.027V13.4026H190.773Z" fill="#1A1A1A"/>
<path d="M194.483 15.9287H195.312V12.0088L196.913 15.9578H197.521L199.142 11.9604V15.9287H200V11.1474H198.679L197.261 14.6415L195.843 11.1474H194.483V15.9287Z" fill="#1A1A1A"/>
</svg>