<svg xmlns="http://www.w3.org/2000/svg" width="32" height="32" viewBox="0 0 32 32" fill="none">
<line x1="4.5" y1="27.5" x2="27.5" y2="27.5" stroke="#1A1A1A" stroke-linecap="round"/>
<line x1="4.5" y1="24.8334" x2="27.5" y2="24.8334" stroke="#1A1A1A" stroke-linecap="round"/>
<path d="M4.4872 3.88757C4.4251 3.6185 4.15664 3.45071 3.88757 3.5128C3.6185 3.5749 3.45071 3.84336 3.5128 4.11243L4.4872 3.88757ZM8 21.3333L7.5128 21.4458L7.60224 21.8333H8V21.3333ZM24 21.3333V21.8333H24.3978L24.4872 21.4458L24 21.3333ZM28.4872 4.11243C28.5493 3.84336 28.3815 3.5749 28.1124 3.5128C27.8434 3.45071 27.5749 3.6185 27.5128 3.88757L28.4872 4.11243ZM10 5.33333L10.0145 4.83354L10 5.33333ZM22 5.33333L22.0145 5.83312L22 5.33333ZM8 21.8333H24V20.8333H8V21.8333ZM3.5128 4.11243L4.43588 8.11243L5.41027 7.88757L4.4872 3.88757L3.5128 4.11243ZM4.43588 8.11243L7.5128 21.4458L8.4872 21.2209L5.41027 7.88757L4.43588 8.11243ZM4.92308 8C5.28534 8.34462 5.28527 8.3447 5.28521 8.34477C5.2852 8.34477 5.28515 8.34483 5.28513 8.34484C5.2851 8.34488 5.28511 8.34487 5.28516 8.34482C5.28525 8.34472 5.2855 8.34446 5.28591 8.34403C5.28672 8.34319 5.28815 8.3417 5.29019 8.33959C5.29427 8.33536 5.30078 8.32866 5.30964 8.31964C5.32736 8.3016 5.35446 8.27431 5.39028 8.23912C5.46194 8.1687 5.56828 8.06685 5.70397 7.94423C5.97593 7.69846 6.3628 7.37201 6.82228 7.04872C7.7623 6.38732 8.91835 5.80219 9.98551 5.83312L10.0145 4.83354C8.60971 4.79283 7.2273 5.54103 6.24684 6.23087C5.74609 6.58321 5.32721 6.93686 5.03349 7.20229C4.88634 7.33527 4.76985 7.44678 4.6894 7.52584C4.64915 7.56538 4.61787 7.59686 4.59623 7.61889C4.58541 7.62991 4.57699 7.63857 4.57106 7.64471C4.5681 7.64778 4.56575 7.65021 4.56404 7.652C4.56319 7.65289 4.56249 7.65362 4.56195 7.65418C4.56168 7.65447 4.56145 7.65471 4.56126 7.65491C4.56117 7.655 4.56106 7.65512 4.56101 7.65517C4.56091 7.65528 4.56081 7.65538 4.92308 8ZM9.98551 5.83312C10.9707 5.86168 11.7644 6.42149 12.7083 7.0983C13.6043 7.74083 14.6501 8.5 16 8.5V7.5C15.0212 7.5 14.2309 6.95957 13.291 6.28563C12.3989 5.64598 11.3569 4.87245 10.0145 4.83354L9.98551 5.83312ZM16 8.5C17.3499 8.5 18.3957 7.74083 19.2917 7.0983C20.2356 6.42149 21.0293 5.86168 22.0145 5.83312L21.9855 4.83354C20.6431 4.87245 19.6011 5.64598 18.709 6.28563C17.7691 6.95957 16.9788 7.5 16 7.5V8.5ZM24.4872 21.4458L27.5641 8.11243L26.5897 7.88757L23.5128 21.2209L24.4872 21.4458ZM27.5641 8.11243L28.4872 4.11243L27.5128 3.88757L26.5897 7.88757L27.5641 8.11243ZM22.0145 5.83312C23.0816 5.80219 24.2377 6.38732 25.1777 7.04872C25.6372 7.37201 26.0241 7.69846 26.296 7.94423C26.4317 8.06685 26.5381 8.1687 26.6097 8.23912C26.6455 8.27431 26.6726 8.3016 26.6904 8.31964C26.6992 8.32866 26.7057 8.33536 26.7098 8.33959C26.7118 8.3417 26.7133 8.34319 26.7141 8.34403C26.7145 8.34446 26.7148 8.34472 26.7148 8.34482C26.7149 8.34487 26.7149 8.34488 26.7149 8.34484C26.7149 8.34483 26.7148 8.34477 26.7148 8.34477C26.7147 8.3447 26.7147 8.34462 27.0769 8C27.4392 7.65538 27.4391 7.65528 27.439 7.65517C27.4389 7.65512 27.4388 7.65501 27.4387 7.65491C27.4385 7.65471 27.4383 7.65447 27.438 7.65418C27.4375 7.65362 27.4368 7.65289 27.436 7.652C27.4342 7.65021 27.4319 7.64778 27.4289 7.64471C27.423 7.63857 27.4146 7.62991 27.4038 7.61889C27.3821 7.59686 27.3508 7.56538 27.3106 7.52584C27.2301 7.44678 27.1137 7.33527 26.9665 7.20229C26.6728 6.93686 26.2539 6.58321 25.7532 6.23087C24.7727 5.54103 23.3903 4.79283 21.9855 4.83354L22.0145 5.83312Z" fill="#1A1A1A"/>
<path d="M12.0469 12.974H12.7969C13.0885 12.974 13.3299 12.9237 13.5208 12.823C13.7153 12.7223 13.8594 12.5834 13.9531 12.4063C14.0469 12.2292 14.0938 12.0261 14.0938 11.7969C14.0938 11.5573 14.0503 11.3525 13.9635 11.1823C13.8802 11.0087 13.7517 10.875 13.5781 10.7813C13.408 10.6875 13.191 10.6407 12.9271 10.6407C12.7049 10.6407 12.5035 10.6858 12.3229 10.7761C12.1458 10.8629 12.0052 10.9879 11.901 11.1511C11.7969 11.3108 11.7448 11.5018 11.7448 11.724H10.4844C10.4844 11.3212 10.5903 10.9636 10.8021 10.6511C11.0139 10.3386 11.3021 10.0938 11.6667 9.91671C12.0347 9.73615 12.4479 9.64587 12.9062 9.64587C13.3958 9.64587 13.8229 9.72747 14.1875 9.89067C14.5556 10.0504 14.842 10.29 15.0469 10.6094C15.2517 10.9289 15.3542 11.3247 15.3542 11.7969C15.3542 12.0122 15.3038 12.2309 15.2031 12.4532C15.1024 12.6754 14.9531 12.8785 14.7552 13.0625C14.5573 13.2431 14.3108 13.3907 14.0156 13.5052C13.7205 13.6164 13.3785 13.6719 12.9896 13.6719H12.0469V12.974ZM12.0469 13.9532V13.2657H12.9896C13.434 13.2657 13.8125 13.3177 14.125 13.4219C14.441 13.5261 14.6979 13.6702 14.8958 13.8542C15.0938 14.0348 15.2378 14.2414 15.3281 14.474C15.4219 14.7066 15.4688 14.9532 15.4688 15.2136C15.4688 15.5677 15.4045 15.8837 15.276 16.1615C15.151 16.4358 14.9722 16.6684 14.7396 16.8594C14.5069 17.0504 14.2344 17.1945 13.9219 17.2917C13.6128 17.3889 13.276 17.4375 12.9115 17.4375C12.5851 17.4375 12.2726 17.3924 11.974 17.3021C11.6753 17.2118 11.408 17.0782 11.1719 16.9011C10.9358 16.7205 10.7483 16.4966 10.6094 16.2292C10.474 15.9584 10.4062 15.6459 10.4062 15.2917H11.6615C11.6615 15.5174 11.7135 15.7171 11.8177 15.8907C11.9253 16.0608 12.0747 16.1945 12.2656 16.2917C12.4601 16.3889 12.6823 16.4375 12.9323 16.4375C13.1962 16.4375 13.4236 16.3907 13.6146 16.2969C13.8056 16.2032 13.9514 16.0643 14.0521 15.8802C14.1562 15.6962 14.2083 15.474 14.2083 15.2136C14.2083 14.9184 14.151 14.6789 14.0365 14.4948C13.9219 14.3108 13.7587 14.1754 13.5469 14.0886C13.3351 13.9983 13.0851 13.9532 12.7969 13.9532H12.0469Z" fill="#1A1A1A"/>
<path d="M21.5781 12.9063V14.1459C21.5781 14.7396 21.5191 15.2466 21.401 15.6667C21.2865 16.0834 21.1198 16.4219 20.901 16.6823C20.6823 16.9427 20.4201 17.1337 20.1146 17.2552C19.8125 17.3768 19.474 17.4375 19.099 17.4375C18.8003 17.4375 18.5226 17.3993 18.2656 17.323C18.0122 17.2466 17.783 17.1268 17.5781 16.9636C17.3733 16.8004 17.1979 16.5903 17.0521 16.3334C16.9097 16.073 16.7986 15.7622 16.7188 15.4011C16.6424 15.04 16.6042 14.6216 16.6042 14.1459V12.9063C16.6042 12.3091 16.6632 11.8056 16.7812 11.3959C16.8993 10.9827 17.0677 10.6476 17.2865 10.3907C17.5052 10.1302 17.7656 9.94101 18.0677 9.82296C18.3733 9.7049 18.7135 9.64587 19.0885 9.64587C19.3906 9.64587 19.6684 9.68407 19.9219 9.76046C20.1788 9.83337 20.408 9.94969 20.6094 10.1094C20.8142 10.2691 20.9878 10.4775 21.1302 10.7344C21.276 10.9879 21.3872 11.2952 21.4635 11.6563C21.5399 12.0139 21.5781 12.4306 21.5781 12.9063ZM20.3229 14.323V12.7188C20.3229 12.4167 20.3056 12.1511 20.2708 11.9219C20.2361 11.6893 20.184 11.4931 20.1146 11.3334C20.0486 11.1702 19.9653 11.0382 19.8646 10.9375C19.7639 10.8334 19.6493 10.7587 19.5208 10.7136C19.3924 10.665 19.2483 10.6407 19.0885 10.6407C18.8941 10.6407 18.7205 10.6789 18.5677 10.7552C18.4149 10.8282 18.2865 10.9462 18.1823 11.1094C18.0781 11.2726 17.9983 11.4879 17.9427 11.7552C17.8906 12.0191 17.8646 12.3403 17.8646 12.7188V14.323C17.8646 14.6285 17.8819 14.8976 17.9167 15.1302C17.9514 15.3629 18.0035 15.5625 18.0729 15.7292C18.1424 15.8924 18.2257 16.0278 18.3229 16.1355C18.4236 16.2396 18.5382 16.316 18.6667 16.3646C18.7986 16.4132 18.9427 16.4375 19.099 16.4375C19.2969 16.4375 19.4722 16.3993 19.625 16.323C19.7778 16.2466 19.9062 16.125 20.0104 15.9584C20.1146 15.7882 20.1927 15.5677 20.2448 15.2969C20.2969 15.0261 20.3229 14.7014 20.3229 14.323Z" fill="#1A1A1A"/>
</svg>