<svg xmlns="http://www.w3.org/2000/svg" width="32" height="32" viewBox="0 0 32 32" fill="none">
<path d="M4.66667 13.5V7.25C4.66667 6.91848 4.79934 6.60054 5.0355 6.36612C5.27166 6.1317 5.59195 6 5.92593 6H10.963C10.963 7.25 11.9704 9.75 16 9.75C20.0296 9.75 21.037 7.25 21.037 6H26.0741C26.4081 6 26.7284 6.1317 26.9645 6.36612C27.2007 6.60054 27.3333 6.91848 27.3333 7.25V13.5C27.3333 13.8315 27.2007 14.1495 26.9645 14.3839C26.7284 14.6183 26.4081 14.75 26.0741 14.75H24.8148C24.4808 14.75 24.1605 14.8817 23.9244 15.1161C23.6882 15.3505 23.5556 15.6685 23.5556 16V24.75C23.5556 25.0815 23.4229 25.3995 23.1867 25.6339C22.9506 25.8683 22.6303 26 22.2963 26H9.70371C9.36973 26 9.04944 25.8683 8.81328 25.6339C8.57712 25.3995 8.44445 25.0815 8.44445 24.75V16C8.44445 15.6685 8.31178 15.3505 8.07562 15.1161C7.83946 14.8817 7.51917 14.75 7.18519 14.75H5.92593C5.59195 14.75 5.27166 14.6183 5.0355 14.3839C4.79934 14.1495 4.66667 13.8315 4.66667 13.5Z" stroke="#111111" stroke-linecap="round" stroke-linejoin="round" stroke-dasharray="4 2"/>
</svg>