<svg width="60" height="40" viewBox="0 0 60 40" fill="none" xmlns="http://www.w3.org/2000/svg">
<path d="M37.7388 20.4789C38.6072 20.4976 39.4804 20.4411 40.3452 20.5083C41.221 20.6694 41.4321 21.9767 40.654 22.4048C40.1231 22.6869 39.4924 22.5099 38.9168 22.5596H37.7388V20.4789ZM40.8472 18.1239C41.0401 18.7953 40.3837 19.3981 39.7279 19.3056H37.7388C37.7528 18.6725 37.7116 17.9853 37.7591 17.3855C38.5559 17.4076 39.3601 17.3404 40.1523 17.4207C40.4927 17.505 40.7775 17.7809 40.8472 18.1239ZM45.6342 8.16753C45.6712 9.4497 45.6395 10.7996 45.6502 12.1078C45.6477 17.4264 45.6554 22.7448 45.6459 28.0637C45.611 30.0569 43.8194 31.7889 41.8118 31.8287C39.8023 31.8368 37.7925 31.83 35.7827 31.8322V23.7916C37.9725 23.7805 40.1633 23.8142 42.3522 23.7747C43.3677 23.7119 44.4799 23.0513 44.5272 21.9495C44.6467 20.8429 43.5886 20.0775 42.5841 19.9567C42.1979 19.9468 42.2092 19.8457 42.5841 19.8016C43.5422 19.5974 44.2946 18.6196 44.0127 17.6404C43.7725 16.6105 42.6179 16.2118 41.6577 16.2138C39.6996 16.2007 37.7412 16.212 35.7831 16.2082C35.7958 14.7071 35.7567 13.2044 35.8042 11.7044C35.9593 9.74714 37.796 8.13302 39.7753 8.16804C41.7285 8.16775 43.6814 8.16775 45.6342 8.16767V8.16753Z" fill="url(#paint0_linear_4818_1542)"/>
<path d="M13.6557 11.9073C13.7057 9.91716 15.505 8.19937 17.51 8.17029C19.5121 8.1642 21.5145 8.16941 23.5166 8.16765C23.5111 14.8261 23.5274 21.4853 23.5083 28.1434C23.4312 30.1094 21.6515 31.7944 19.6684 31.8292C17.6625 31.8364 15.6564 31.8302 13.6504 31.8322V23.5206C15.5989 23.9744 17.6422 24.1676 19.6299 23.8666C20.8181 23.6781 22.1181 23.1028 22.5204 21.8873C22.8164 20.8477 22.6497 19.7535 22.6938 18.6864V16.2083H19.2538C19.2383 17.8473 19.2854 19.4891 19.2289 21.1261C19.1362 22.1322 18.1256 22.7715 17.1631 22.7374C15.9695 22.7498 13.6042 21.8845 13.6042 21.8845C13.5983 18.8137 13.6389 14.9681 13.6557 11.9076V11.9073Z" fill="url(#paint1_linear_4818_1542)"/>
<path d="M24.7994 17.2077C24.6183 17.2456 24.763 16.5996 24.7167 16.3545C24.729 14.805 24.6909 13.2538 24.7377 11.7054C24.8924 9.73985 26.7432 8.1217 28.7306 8.16771H34.5833C34.5778 14.8262 34.594 21.4854 34.575 28.1435C34.4978 30.1094 32.718 31.7944 30.7348 31.8293C28.7289 31.8367 26.7227 31.8304 24.7166 31.8323V22.7258C26.0867 23.8342 27.9488 24.0067 29.6557 24.0097C30.9424 24.0093 32.2217 23.8137 33.4713 23.5211V21.8527C32.0631 22.5448 30.4076 22.9843 28.8465 22.5867C27.7575 22.3195 26.967 21.2818 26.9846 20.1737C26.8585 19.0213 27.5435 17.8047 28.692 17.4622C30.118 17.022 31.6721 17.3586 33.0087 17.9309C33.2951 18.0787 33.5857 18.2621 33.4712 17.7902V16.4788C31.2358 15.9544 28.8568 15.7615 26.6109 16.3319C25.9608 16.5128 25.3275 16.787 24.7994 17.2079V17.2077Z" fill="url(#paint2_linear_4818_1542)"/>
<defs>
<linearGradient id="paint0_linear_4818_1542" x1="35.7153" y1="19.4939" x2="45.5879" y2="19.4939" gradientUnits="userSpaceOnUse">
<stop stop-color="#58B03A"/>
<stop offset="1" stop-color="#55B330"/>
</linearGradient>
<linearGradient id="paint1_linear_4818_1542" x1="13.4405" y1="20.2265" x2="23.3548" y2="20.2265" gradientUnits="userSpaceOnUse">
<stop stop-color="#0F6EB6"/>
<stop offset="1" stop-color="#006DBA"/>
</linearGradient>
<linearGradient id="paint2_linear_4818_1542" x1="24.7021" y1="19.7233" x2="34.5814" y2="19.7233" gradientUnits="userSpaceOnUse">
<stop stop-color="#DE0D3D"/>
<stop offset="1" stop-color="#E30138"/>
</linearGradient>
</defs>
</svg>