<svg width="48" height="48" viewBox="0 0 48 48" fill="none" xmlns="http://www.w3.org/2000/svg">
                    <path d="M20.8854 23.9506V30.7857H23.1711C23.9256 30.7857 24.5941 30.6235 25.1767 30.299C25.7594 29.9672 26.2076 29.5212 26.5213 28.9608C26.8425 28.4004 27.0031 27.7847 27.0031 27.1138C27.0031 26.3027 26.7566 25.5986 26.2636 25.0013C25.7706 24.4041 25.0871 24.0612 24.2132 23.9728C23.9293 23.9359 23.4625 23.9175 22.8126 23.9175L21.8378 23.9285C21.7108 23.9285 21.539 23.9322 21.3224 23.9396C21.1133 23.947 20.9676 23.9506 20.8854 23.9506ZM18.8574 31.7147V16.2861H28.1571C28.1123 16.4557 28.0899 16.6843 28.0899 16.9718C28.0899 17.2078 28.1123 17.4327 28.1571 17.6465C27.7613 17.5728 27.3803 17.5138 27.0143 17.4695C26.6483 17.4253 26.3383 17.4032 26.0843 17.4032L23.3392 17.3589H20.8854V23.0659H22.9919C25.1805 23.0659 26.7528 23.3792 27.709 24.0059C28.6651 24.6253 29.1431 25.6244 29.1431 27.0032C29.1431 27.888 28.934 28.6769 28.5157 29.37C28.0974 30.0557 27.4886 30.605 26.6894 31.0179C26.2711 31.2318 25.8378 31.3977 25.3896 31.5156C24.9489 31.6336 24.4858 31.6926 24.0003 31.6926L18.8574 31.7147Z" fill="#1A1A1A"></path>
                    <path d="M35.5303 28.4697C35.2374 28.1768 34.7626 28.1768 34.4697 28.4697L29.6967 33.2426C29.4038 33.5355 29.4038 34.0104 29.6967 34.3033C29.9896 34.5962 30.4645 34.5962 30.7574 34.3033L35 30.0607L39.2426 34.3033C39.5355 34.5962 40.0104 34.5962 40.3033 34.3033C40.5962 34.0104 40.5962 33.5355 40.3033 33.2426L35.5303 28.4697ZM34.25 29L34.25 42L35.75 42L35.75 29L34.25 29Z" fill="#1A1A1A"></path>
                    <path fill-rule="evenodd" clip-rule="evenodd" d="M29.3213 39.0938C27.6565 39.6807 25.8656 40 24 40C15.1634 40 8 32.8366 8 24C8 15.1634 15.1634 8 24 8C32.8366 8 40 15.1634 40 24C40 25.8656 39.6807 27.6565 39.0938 29.3213C39.6881 29.7505 40.2123 30.2706 40.6461 30.8614C41.5186 28.7468 42 26.4296 42 24C42 14.0589 33.9411 6 24 6C14.0589 6 6 14.0589 6 24C6 33.9411 14.0589 42 24 42C26.4296 42 28.7468 41.5186 30.8614 40.6461C30.2706 40.2123 29.7505 39.6881 29.3213 39.0938Z" fill="#1A1A1A"></path></svg>