<svg width="40" height="40" viewBox="0 0 40 40" fill="none" xmlns="http://www.w3.org/2000/svg">
<path fill-rule="evenodd" clip-rule="evenodd" d="M0 20C0 31.0457 8.9543 40 20 40C31.0457 40 40 31.0457 40 20C40 8.9543 31.0457 0 20 0C8.9543 0 0 8.9543 0 20ZM16.3337 29.1667L16.674 24.0685L16.6737 24.0683L25.9478 15.6992C26.3548 15.3379 25.8589 15.1618 25.3186 15.4894L13.8731 22.7103L8.92926 21.1672C7.86161 20.8403 7.85394 20.1067 9.16896 19.5792L28.434 12.1507C29.3138 11.7512 30.1631 12.362 29.8272 13.7087L26.5464 29.1692C26.3173 30.2679 25.6534 30.5306 24.7337 30.0232L19.7359 26.3308L17.3337 28.6667C17.3261 28.674 17.3186 28.6814 17.3111 28.6887C17.0424 28.9502 16.8201 29.1667 16.3337 29.1667Z" fill="#D3E0EA"/>
</svg>