<svg xmlns="http://www.w3.org/2000/svg" width="28" height="28" viewBox="0 0 28 28" fill="none">
<path d="M10.8536 5.47976C10.6583 5.2845 10.3417 5.2845 10.1464 5.47976C9.95118 5.67502 9.95118 5.9916 10.1464 6.18687L10.8536 5.47976ZM18.6667 14L19.0202 14.3535C19.2155 14.1583 19.2155 13.8417 19.0202 13.6464L18.6667 14ZM10.1464 21.8131C9.95118 22.0084 9.95118 22.3249 10.1464 22.5202C10.3417 22.7155 10.6583 22.7155 10.8536 22.5202L10.1464 21.8131ZM10.1464 6.18687L18.3131 14.3535L19.0202 13.6464L10.8536 5.47976L10.1464 6.18687ZM18.3131 13.6464L10.1464 21.8131L10.8536 22.5202L19.0202 14.3535L18.3131 13.6464Z" fill="white"/>
</svg>