<svg xmlns="http://www.w3.org/2000/svg" width="9" height="16" viewBox="0 0 9 16" fill="none">
<path d="M7.64645 15.3536C7.84171 15.5488 8.15829 15.5488 8.35355 15.3536C8.54882 15.1583 8.54882 14.8417 8.35355 14.6464L7.64645 15.3536ZM1 8L0.646447 7.64645C0.451184 7.84171 0.451184 8.15829 0.646447 8.35355L1 8ZM8.35355 1.35355C8.54882 1.15829 8.54882 0.841709 8.35355 0.646447C8.15829 0.451184 7.84171 0.451184 7.64645 0.646447L8.35355 1.35355ZM8.35355 14.6464L1.35355 7.64645L0.646447 8.35355L7.64645 15.3536L8.35355 14.6464ZM1.35355 8.35355L8.35355 1.35355L7.64645 0.646447L0.646447 7.64645L1.35355 8.35355Z" fill="#1A1A1A"/>
</svg>