<svg xmlns="http://www.w3.org/2000/svg" width="16" height="16" viewBox="0 0 16 16" fill="none">
<path d="M14.6667 4.3335L9 4.3335" stroke="#1A1A1A" stroke-miterlimit="10" stroke-linecap="round" stroke-linejoin="round"/>
<path d="M4.00016 4.3335H1.3335" stroke="#1A1A1A" stroke-miterlimit="10" stroke-linecap="round" stroke-linejoin="round"/>
<path d="M6.66683 6.66667C7.95549 6.66667 9.00016 5.622 9.00016 4.33333C9.00016 3.04467 7.95549 2 6.66683 2C5.37817 2 4.3335 3.04467 4.3335 4.33333C4.3335 5.622 5.37817 6.66667 6.66683 6.66667Z" stroke="#1A1A1A" stroke-miterlimit="10" stroke-linecap="round" stroke-linejoin="round"/>
<path d="M14.6667 11.6665H12" stroke="#1A1A1A" stroke-miterlimit="10" stroke-linecap="round" stroke-linejoin="round"/>
<path d="M7.00015 11.6665H1.3335" stroke="#1A1A1A" stroke-miterlimit="10" stroke-linecap="round" stroke-linejoin="round"/>
<path d="M9.33333 14.0002C10.622 14.0002 11.6667 12.9555 11.6667 11.6668C11.6667 10.3782 10.622 9.3335 9.33333 9.3335C8.04467 9.3335 7 10.3782 7 11.6668C7 12.9555 8.04467 14.0002 9.33333 14.0002Z" stroke="#1A1A1A" stroke-miterlimit="10" stroke-linecap="round" stroke-linejoin="round"/>
</svg>