<svg xmlns="http://www.w3.org/2000/svg" width="32" height="32" viewBox="0 0 32 32" fill="none">
<path d="M5.82039 10.5537C5.75801 10.2847 5.48937 10.1172 5.22037 10.1795C4.95136 10.2419 4.78386 10.5106 4.84624 10.7796L5.82039 10.5537ZM8.88887 26L8.40179 26.1129L8.49154 26.5H8.88887V26ZM23.1111 26V26.5H23.5084L23.5982 26.1129L23.1111 26ZM27.1537 10.7796C27.2161 10.5106 27.0486 10.2419 26.7796 10.1795C26.5106 10.1172 26.2419 10.2847 26.1796 10.5537L27.1537 10.7796ZM10.6522 12.3459C10.9283 12.3539 11.1585 12.1366 11.1664 11.8605C11.1744 11.5845 10.9571 11.3543 10.6811 11.3463L10.6522 12.3459ZM21.3189 11.3463C21.0429 11.3543 20.8256 11.5845 20.8335 11.8605C20.8415 12.1366 21.0717 12.3539 21.3477 12.3459L21.3189 11.3463ZM8.88887 26.5H23.1111V25.5H8.88887V26.5ZM4.84624 10.7796L5.66675 14.318L6.6409 14.0921L5.82039 10.5537L4.84624 10.7796ZM5.66675 14.318L8.40179 26.1129L9.37595 25.887L6.6409 14.0921L5.66675 14.318ZM6.15383 14.2051C6.51526 14.5506 6.51518 14.5507 6.51512 14.5507C6.51511 14.5507 6.51505 14.5508 6.51503 14.5508C6.51499 14.5509 6.51499 14.5509 6.51502 14.5508C6.51508 14.5508 6.51528 14.5506 6.51561 14.5502C6.51628 14.5495 6.5175 14.5483 6.51926 14.5464C6.52278 14.5428 6.52846 14.537 6.53623 14.5291C6.55176 14.5134 6.57561 14.4895 6.60719 14.4586C6.6704 14.3968 6.76434 14.3072 6.88431 14.1994C7.12483 13.983 7.46692 13.6958 7.87305 13.4114C8.70621 12.828 9.72161 12.3191 10.6522 12.3459L10.6811 11.3463C9.41441 11.3098 8.1734 11.9803 7.29947 12.5923C6.85205 12.9055 6.47793 13.2199 6.21562 13.4558C6.08417 13.574 5.98005 13.6732 5.90803 13.7436C5.87201 13.7789 5.84397 13.8069 5.82451 13.8267C5.81478 13.8365 5.80718 13.8443 5.80181 13.8498C5.79912 13.8526 5.79699 13.8548 5.79541 13.8564C5.79463 13.8573 5.79398 13.8579 5.79348 13.8585C5.79323 13.8587 5.79301 13.8589 5.79283 13.8591C5.79274 13.8592 5.79263 13.8593 5.79258 13.8594C5.79248 13.8595 5.79239 13.8596 6.15383 14.2051ZM23.5982 26.1129L26.3332 14.318L25.3591 14.0921L22.624 25.887L23.5982 26.1129ZM26.3332 14.318L27.1537 10.7796L26.1796 10.5537L25.3591 14.0921L26.3332 14.318ZM21.3477 12.3459C22.2784 12.3191 23.2938 12.828 24.1269 13.4114C24.533 13.6958 24.8751 13.983 25.1157 14.1994C25.2356 14.3072 25.3296 14.3968 25.3928 14.4586C25.4243 14.4895 25.4482 14.5134 25.4637 14.5291C25.4715 14.537 25.4772 14.5428 25.4807 14.5464C25.4825 14.5483 25.4837 14.5495 25.4843 14.5502C25.4847 14.5506 25.4849 14.5508 25.4849 14.5508C25.485 14.5509 25.485 14.5509 25.4849 14.5508C25.4849 14.5508 25.4848 14.5507 25.4848 14.5507C25.4848 14.5507 25.4847 14.5506 25.8461 14.2051C26.2076 13.8596 26.2075 13.8595 26.2074 13.8594C26.2073 13.8593 26.2072 13.8592 26.2071 13.8591C26.2069 13.8589 26.2067 13.8587 26.2065 13.8585C26.206 13.8579 26.2053 13.8573 26.2045 13.8564C26.203 13.8548 26.2008 13.8526 26.1982 13.8498C26.1928 13.8443 26.1852 13.8365 26.1755 13.8267C26.156 13.8069 26.1279 13.7789 26.0919 13.7436C26.0199 13.6732 25.9158 13.574 25.7843 13.4558C25.522 13.2199 25.1479 12.9055 24.7005 12.5923C23.8266 11.9803 22.5856 11.3098 21.3189 11.3463L21.3477 12.3459Z" fill="#1A1A1A"/>
<path d="M11.6046 14.7748L12.2757 13.0274C12.0072 13.7263 11.3577 13.6774 11.0548 13.5611C10.5661 13.3734 10.3431 12.8386 10.5283 12.3563L12.2061 7.98785C13.1009 5.65801 15.3736 5.19413 17.6254 6.05897C19.8772 6.9238 20.4282 7.80379 21.057 11.3872L21.3893 13.2559C21.5073 13.8814 21.0056 14.4413 20.3585 14.4067C20.1467 14.3959 19.9434 14.3202 19.7761 14.1899C19.6087 14.0597 19.4855 13.8811 19.4231 13.6785L18.7555 11.8179M11.6046 14.7748C11.4193 15.257 11.6424 15.7919 12.1311 15.9795C12.4264 16.093 13.0835 16.1448 13.3519 15.4459M11.6046 14.7748L12.8349 11.5712M13.3519 15.4459L12.9045 16.6108C12.7193 17.0931 12.9423 17.6279 13.431 17.8156C13.9203 18.0035 14.4667 17.7642 14.6519 17.2819L15.0993 16.117M13.3519 15.4459L14.5823 12.2424M15.0993 16.117C14.8309 16.8159 15.3421 17.2128 15.6375 17.3262C16.1267 17.5141 16.6657 17.2593 16.8512 16.7765L18.7482 11.8372M15.0993 16.117L16.3297 12.9135" stroke="#1A1A1A" stroke-linecap="round" stroke-linejoin="round"/>
<path d="M28 28L4 4M4 28L28 4" stroke="#1A1A1A" stroke-linecap="round"/>
</svg>