<svg xmlns="http://www.w3.org/2000/svg" width="32" height="32" viewBox="0 0 32 32" fill="none">
<path d="M28 28L4 4M4 28L28 4" stroke="#1A1A1A" stroke-linecap="round"/>
<path d="M10.6667 26H21.3334C22.4379 26 23.3334 25.1045 23.3334 24V14.2528C23.3334 13.1483 22.4379 12.2528 21.3334 12.2528H20.8487C19.8584 12.2528 19.0556 11.45 19.0556 10.4597C19.0556 9.46943 18.2528 8.66663 17.2625 8.66663H10.6667C9.56212 8.66663 8.66669 9.56206 8.66669 10.6666V24C8.66669 25.1045 9.56212 26 10.6667 26Z" stroke="#1A1A1A"/>
<path d="M11.3333 6.88889C11.3333 6.39797 11.781 6 12.3333 6H14.3333C14.8856 6 15.3333 6.39797 15.3333 6.88889V7.77778C15.3333 8.2687 14.8856 8.66667 14.3333 8.66667H12.3333C11.781 8.66667 11.3333 8.2687 11.3333 7.77778V6.88889Z" stroke="#1A1A1A"/>
<circle cx="16" cy="18.6666" r="4" stroke="#1A1A1A"/>
</svg>