<svg width="1018" height="611" viewBox="0 0 1018 611" fill="none" xmlns="http://www.w3.org/2000/svg">
<g clip-path="url(#clip0_16_873)">
<rect width="1018" height="611" fill="#2F2B43"/>
<path d="M-1136.18 -1692.09C-646.933 -2534.06 146.626 -1810.7 462.288 -1052.39C660.761 -623.102 1191.57 -709.325 1437.19 -177.289C1682.81 354.746 814.511 244.481 1178.92 1069.06C1543.33 1893.64 306.801 2464.27 -209.151 1925.09C-725.102 1385.91 -746.9 1684.43 -1619.13 1472.78C-2491.37 1261.12 -2831.83 -133.305 -2081.47 -398.531C-1331.11 -663.757 -1665.81 -780.648 -1136.18 -1692.09Z" stroke="#54EE46" stroke-width="7.791"/>
<path d="M-582.241 -20.0635C-539.577 -104.536 -328.772 -86.3689 -288.751 47.2766C-252.103 169.658 -145.19 230.306 -111.204 304.063C-21.7301 498.239 -97.9317 466.611 -93.672 586.265C-88.4886 731.868 -235.345 938.624 -407.581 751.267C-549.236 597.174 -573.374 704.435 -708.923 616.145C-844.472 527.856 -914.592 350.877 -782.496 229.442C-732.891 183.84 -653.298 120.629 -582.241 -20.0635Z" stroke="#54EE46" stroke-width="7.791"/>
<path d="M-1082.51 -1543.16C-633.861 -2316.26 106.721 -1657.01 397.324 -955.497C581.085 -554.106 1073.36 -626.977 1299.74 -136.603C1531.17 364.718 734.874 261.602 1066.54 1022.1C1398.3 1784.95 260.827 2322.5 -223.878 1815.31C-705.802 1311.13 -727.813 1592.27 -1533.08 1391.83C-2338.34 1191.39 -2654.22 -92.3613 -1960.07 -344.515C-1273.41 -589.776 -1570.45 -701.786 -1082.51 -1543.16Z" stroke="#54EE46" stroke-width="7.791"/>
<path d="M-1028.85 -1394.23C-620.793 -2098.47 66.8115 -1503.33 332.356 -858.598C501.407 -485.109 955.143 -544.628 1162.29 -95.9154C1379.52 374.691 655.234 278.724 954.163 975.133C1253.26 1676.26 214.85 2180.74 -238.607 1705.52C-686.505 1236.36 -708.729 1500.11 -1447.02 1310.88C-2185.31 1121.66 -2476.62 -51.417 -1838.67 -290.499C-1215.72 -515.793 -1475.09 -622.924 -1028.85 -1394.23Z" stroke="#54EE46" stroke-width="7.791"/>
<path d="M-975.178 -1245.3C-607.723 -1880.67 26.903 -1349.64 267.39 -761.697C421.729 -416.108 836.929 -462.275 1024.83 -55.2243C1227.87 384.668 575.594 295.849 841.782 928.175C1108.22 1567.58 168.873 2038.97 -253.337 1595.74C-667.208 1161.59 -689.645 1407.95 -1360.96 1229.94C-2032.28 1051.93 -2299.01 -10.4684 -1717.27 -236.478C-1158.03 -441.807 -1379.74 -544.058 -975.178 -1245.3Z" stroke="#54EE46" stroke-width="7.791"/>
<path d="M-921.514 -1096.36C-594.658 -1662.87 -13.0089 -1195.95 202.42 -664.792C342.047 -347.104 718.711 -379.919 887.375 -14.5302C1076.22 394.648 495.951 312.978 729.398 881.219C963.181 1458.9 122.893 1897.21 -268.07 1485.97C-647.914 1086.82 -670.563 1315.79 -1274.91 1149C-1879.26 982.203 -2121.41 30.4828 -1595.88 -182.455C-1100.34 -367.818 -1284.39 -465.189 -921.514 -1096.36Z" stroke="#54EE46" stroke-width="7.791"/>
<path d="M-870.125 -945.307C-583.868 -1442.96 -55.197 -1040.14 135.173 -565.773C260.089 -275.986 598.218 -295.45 747.642 28.2779C922.288 406.741 414.031 332.22 614.737 836.377C815.863 1352.33 74.6377 1757.57 -285.079 1378.31C-630.896 1014.17 -653.758 1225.75 -1191.14 1070.17C-1728.51 914.591 -1946.09 73.5479 -1476.76 -126.318C-1044.93 -291.715 -1191.31 -384.206 -870.125 -945.307Z" stroke="#54EE46" stroke-width="7.791"/>
<path d="M-676.597 -330.064C-552.735 -552.263 -235.975 -405.879 -145.837 -158.659C-79.7667 19.5245 104.218 53.4681 176.683 210.549C294.548 466.154 74.3278 420.228 144.07 668.05C214.567 937.103 -130.412 1210.02 -365.142 958.694C-574.851 734.585 -598.564 876.62 -868.055 765.901C-1137.55 655.182 -1256.82 256.848 -1012.31 109.27C-835.297 23.7363 -831.03 -49.2353 -676.597 -330.064Z" stroke="#54EE46" stroke-width="7.791"/>
<path d="M-629.063 -175.432C-545.801 -328.768 -282.018 -246.492 -216.938 -56.0595C-165.579 94.2231 -20.1308 141.519 33.0953 256.938C136.764 481.828 -11.4464 443.051 25.5543 626.789C63.3949 834.118 -182.523 1073.95 -386.006 854.612C-561.688 665.512 -585.613 790.159 -788.134 690.655C-990.654 591.151 -1085.35 303.494 -897.049 168.988C-783.738 103.42 -741.808 35.3284 -629.063 -175.432Z" stroke="#54EE46" stroke-width="7.791"/>
<path d="M-821.448 -791.779C-575.79 -1220.57 -100.096 -881.859 65.2161 -464.277C175.421 -202.391 475.013 -208.503 605.198 73.563C765.648 421.312 329.401 353.939 497.366 794.013C665.835 1248.24 23.6705 1620.4 -304.799 1273.12C-616.589 943.988 -639.664 1138.18 -1110.07 993.82C-1580.48 849.456 -1773.48 119.09 -1360.35 -67.7036C-992.223 -213.135 -1100.94 -300.746 -821.448 -791.779Z" stroke="#54EE46" stroke-width="7.791"/>
<path d="M-772.92 -638.111C-567.861 -998.036 -145.145 -723.436 -4.89113 -362.641C90.6024 -128.656 351.659 -121.416 462.604 118.988C608.859 436.022 244.62 375.798 379.844 751.788C515.656 1144.29 -27.4465 1483.37 -324.669 1168.07C-602.433 873.95 -625.72 1050.76 -1029.15 917.61C-1432.59 784.461 -1601.01 164.773 -1244.09 -8.94946C-939.67 -134.415 -1010.73 -217.146 -772.92 -638.111Z" stroke="#54EE46" stroke-width="7.791"/>
<path d="M-724.602 -484.238C-560.142 -775.301 -190.404 -564.808 -75.2082 -260.801C5.57391 -54.7167 228.094 -34.1249 319.8 164.618C451.859 450.937 159.63 397.862 262.113 709.768C365.268 1040.55 -78.7734 1346.54 -344.749 1063.23C-588.486 804.117 -611.986 963.539 -948.449 841.605C-1284.91 719.671 -1428.76 210.659 -1128.05 50.0094C-887.328 -55.4901 -920.723 -133.342 -724.602 -484.238Z" stroke="#54EE46" stroke-width="7.791"/>
<g filter="url(#filter0_ddd_16_873)">
<path d="M326.262 330.84L321.442 330.84L338.811 274.247L353.603 274.247L333.575 336.575L315.541 336.575L295.929 281.393L302.079 281.393L282.466 336.575L264.432 336.575L244.404 274.247L259.363 274.247L276.566 330.84L271.912 330.757L291.524 274.247L306.566 274.247L326.262 330.84Z" fill="white"/>
<path d="M398.519 337.821C391.261 337.821 384.89 336.464 379.405 333.749C373.975 331.034 369.737 327.267 366.69 322.447C363.643 317.571 362.119 311.893 362.119 305.411C362.119 298.928 363.643 293.277 366.69 288.457C369.737 283.582 373.975 279.787 379.405 277.072C384.89 274.357 391.261 273 398.519 273C405.777 273 412.12 274.357 417.55 277.072C423.035 279.787 427.301 283.582 430.348 288.457C433.395 293.277 434.918 298.928 434.918 305.411C434.918 311.893 433.395 317.571 430.348 322.447C427.301 327.267 423.035 331.034 417.55 333.749C412.12 336.464 405.777 337.821 398.519 337.821ZM398.519 325.272C403.062 325.272 406.968 324.469 410.237 322.862C413.561 321.256 416.109 318.957 417.882 315.965C419.71 312.973 420.625 309.455 420.625 305.411C420.625 301.366 419.71 297.848 417.882 294.856C416.109 291.865 413.561 289.565 410.237 287.959C406.968 286.352 403.062 285.549 398.519 285.549C394.031 285.549 390.125 286.352 386.801 287.959C383.477 289.565 380.901 291.865 379.073 294.856C377.3 297.848 376.413 301.366 376.413 305.411C376.413 309.455 377.3 312.973 379.073 315.965C380.901 318.957 383.477 321.256 386.801 322.862C390.125 324.469 394.031 325.272 398.519 325.272Z" fill="white"/>
<path d="M538.387 274.247L538.387 336.575L524.925 336.575L524.925 278.983L528.498 279.233L501.905 336.575L487.362 336.575L460.768 279.399L464.259 279.067L464.259 336.575L450.879 336.575L450.879 274.247L472.569 274.247L497.667 329.76L491.6 329.76L516.697 274.247L538.387 274.247Z" fill="white"/>
<path d="M552.686 306.325L566.564 306.325L566.564 308.735C566.564 314.109 567.728 318.264 570.055 321.2C572.437 324.081 576.343 325.522 581.772 325.522C587.146 325.522 591.025 324.137 593.407 321.367C595.845 318.541 597.063 314.663 597.063 309.732L597.063 274.247L611.191 274.247L611.191 310.397C611.191 316.269 609.945 321.256 607.451 325.356C605.014 329.455 601.579 332.558 597.147 334.663C592.714 336.768 587.59 337.821 581.772 337.821C576.01 337.821 570.941 336.741 566.564 334.58C562.187 332.419 558.78 329.261 556.342 325.106C553.96 320.896 552.769 315.771 552.769 309.732L552.686 306.325Z" fill="white"/>
<path d="M662.715 337.821C655.457 337.821 649.086 336.464 643.601 333.749C638.172 331.034 633.933 327.267 630.886 322.447C627.839 317.571 626.315 311.893 626.315 305.411C626.315 298.928 627.839 293.277 630.886 288.457C633.933 283.582 638.172 279.787 643.601 277.072C649.086 274.357 655.457 273 662.715 273C669.973 273 676.316 274.357 681.746 277.072C687.231 279.787 691.497 283.582 694.544 288.457C697.591 293.277 699.114 298.928 699.114 305.411C699.114 311.893 697.591 317.571 694.544 322.447C691.497 327.267 687.231 331.034 681.746 333.749C676.316 336.464 669.973 337.821 662.715 337.821ZM662.715 325.272C667.258 325.272 671.164 324.469 674.433 322.862C677.757 321.256 680.305 318.957 682.078 315.965C683.906 312.973 684.821 309.455 684.821 305.411C684.821 301.366 683.906 297.848 682.078 294.856C680.305 291.865 677.757 289.565 674.433 287.959C671.164 286.352 667.258 285.549 662.715 285.549C658.227 285.549 654.321 286.352 650.997 287.959C647.673 289.565 645.097 291.865 643.269 294.856C641.496 297.848 640.609 301.366 640.609 305.411C640.609 309.455 641.496 312.973 643.269 315.965C645.097 318.957 647.673 321.256 650.997 322.862C654.321 324.469 658.227 325.272 662.715 325.272Z" fill="white"/>
<path d="M731.703 336.575L731.703 306.491L745.831 306.491L745.831 336.575L731.703 336.575ZM702.367 274.247L718.074 274.247L742.091 304.58L735.276 304.58L759.293 274.247L775 274.247L743.254 314.386L734.196 314.469L702.367 274.247Z" fill="white"/>
</g>
</g>
<defs>
<filter id="filter0_ddd_16_873" x="234.016" y="273" width="551.372" height="85.5971" filterUnits="userSpaceOnUse" color-interpolation-filters="sRGB">
<feFlood flood-opacity="0" result="BackgroundImageFix"/>
<feColorMatrix in="SourceAlpha" type="matrix" values="0 0 0 0 0 0 0 0 0 0 0 0 0 0 0 0 0 0 127 0" result="hardAlpha"/>
<feOffset dy="10.388"/>
<feGaussianBlur stdDeviation="5.194"/>
<feComposite in2="hardAlpha" operator="out"/>
<feColorMatrix type="matrix" values="0 0 0 0 0.184314 0 0 0 0 0.168627 0 0 0 0 0.262745 0 0 0 1 0"/>
<feBlend mode="normal" in2="BackgroundImageFix" result="effect1_dropShadow_16_873"/>
<feColorMatrix in="SourceAlpha" type="matrix" values="0 0 0 0 0 0 0 0 0 0 0 0 0 0 0 0 0 0 127 0" result="hardAlpha"/>
<feOffset dy="10.388"/>
<feGaussianBlur stdDeviation="5.194"/>
<feComposite in2="hardAlpha" operator="out"/>
<feColorMatrix type="matrix" values="0 0 0 0 0.184314 0 0 0 0 0.168627 0 0 0 0 0.262745 0 0 0 1 0"/>
<feBlend mode="normal" in2="effect1_dropShadow_16_873" result="effect2_dropShadow_16_873"/>
<feColorMatrix in="SourceAlpha" type="matrix" values="0 0 0 0 0 0 0 0 0 0 0 0 0 0 0 0 0 0 127 0" result="hardAlpha"/>
<feOffset dy="10.388"/>
<feGaussianBlur stdDeviation="5.194"/>
<feComposite in2="hardAlpha" operator="out"/>
<feColorMatrix type="matrix" values="0 0 0 0 0.184314 0 0 0 0 0.168627 0 0 0 0 0.262745 0 0 0 1 0"/>
<feBlend mode="normal" in2="effect2_dropShadow_16_873" result="effect3_dropShadow_16_873"/>
<feBlend mode="normal" in="SourceGraphic" in2="effect3_dropShadow_16_873" result="shape"/>
</filter>
<clipPath id="clip0_16_873">
<rect width="1018" height="611" fill="white"/>
</clipPath>
</defs>
</svg>
