<svg width="32" height="32" viewBox="0 0 32 32" fill="none" xmlns="http://www.w3.org/2000/svg">
<rect width="32" height="32" fill="white"/>
<path fill-rule="evenodd" clip-rule="evenodd" d="M7.65711 23.4027L4.66699 6.2287L5.98056 6L6.5682 9.37513C6.63757 9.38998 6.72028 9.40473 6.81717 9.41812C7.08718 9.45546 7.41476 9.47559 7.76403 9.47612C8.47511 9.47719 9.19745 9.39723 9.64508 9.2622C10.5174 8.99906 11.8068 8.31919 12.2761 7.9795L12.6547 7.70541L13.0414 7.96789C13.8843 8.54001 14.9788 9.23379 16.3337 9.23379C17.691 9.23379 18.628 8.63314 19.6305 7.96481L19.9524 7.7502L20.2985 7.92322C20.9703 8.25914 22.1001 8.76346 22.511 8.87686C23.6166 9.18198 24.752 8.90847 25.5934 8.33741L26.0003 6L27.3139 6.2287L24.3238 23.4027V25.4477H7.65711V23.4027ZM8.99045 23.2875L6.8094 10.7605C7.10771 10.7933 7.43337 10.809 7.76202 10.8094C8.53774 10.8106 9.40617 10.7269 10.0301 10.5387C10.8659 10.2866 11.9695 9.74002 12.6629 9.31828C13.518 9.87463 14.7744 10.5671 16.3337 10.5671C17.9464 10.5671 19.1089 9.90246 20.0507 9.28585C20.7351 9.61282 21.6895 10.0333 22.1563 10.1622C23.2567 10.4658 24.3583 10.3531 25.3067 9.98371L22.9904 23.2875V24.1144H8.99045V23.2875Z" fill="black"/>
<path d="M12.6667 21.0347C12.2329 21.0347 11.8489 20.9814 11.5147 20.8747C11.1876 20.7609 10.9102 20.6045 10.6827 20.4054C10.4622 20.2063 10.2916 19.9716 10.1707 19.7014C10.0569 19.424 10 19.1183 10 18.784H11.28C11.28 19.1396 11.3902 19.4169 11.6107 19.616C11.8382 19.808 12.1902 19.904 12.6667 19.904C13.1289 19.904 13.4738 19.808 13.7013 19.616C13.936 19.4169 14.0533 19.1396 14.0533 18.784C14.0533 18.4214 13.9467 18.1369 13.7333 17.9307C13.52 17.7174 13.1644 17.6107 12.6667 17.6107H11.92V16.544H12.6667C13.0933 16.544 13.4133 16.4552 13.6267 16.2774C13.84 16.0925 13.9467 15.8294 13.9467 15.488C13.9467 15.1467 13.8436 14.8907 13.6373 14.72C13.4382 14.5494 13.1147 14.464 12.6667 14.464C12.2258 14.464 11.8987 14.5529 11.6853 14.7307C11.4791 14.9085 11.376 15.1574 11.376 15.4774H10.096C10.096 14.8303 10.3129 14.3112 10.7467 13.92C11.1876 13.5289 11.8276 13.3334 12.6667 13.3334C13.0862 13.3334 13.456 13.3867 13.776 13.4934C14.096 13.6 14.3627 13.7458 14.576 13.9307C14.7893 14.1085 14.9493 14.3183 15.056 14.56C15.1698 14.8018 15.2267 15.0614 15.2267 15.3387C15.2267 15.7654 15.1129 16.1245 14.8853 16.416C14.6578 16.7005 14.3449 16.9032 13.9467 17.024C14.3804 17.152 14.7182 17.3689 14.96 17.6747C15.2089 17.9734 15.3333 18.3787 15.3333 18.8907C15.3333 19.1894 15.2764 19.4703 15.1627 19.7334C15.0489 19.9965 14.8782 20.224 14.6507 20.416C14.4302 20.608 14.1529 20.7609 13.8187 20.8747C13.4844 20.9814 13.1004 21.0347 12.6667 21.0347Z" fill="black"/>
<path d="M19.2771 21.0347C18.886 21.0347 18.5197 20.9743 18.1784 20.8534C17.8442 20.7325 17.5526 20.5263 17.3037 20.2347C17.0549 19.936 16.8593 19.5414 16.7171 19.0507C16.5749 18.5529 16.5037 17.9307 16.5037 17.184V16.9707C16.5037 16.2809 16.5749 15.7049 16.7171 15.2427C16.8593 14.7734 17.0549 14.4 17.3037 14.1227C17.5526 13.8383 17.8442 13.6356 18.1784 13.5147C18.5197 13.3938 18.886 13.3334 19.2771 13.3334C19.6682 13.3334 20.0309 13.3938 20.3651 13.5147C20.7064 13.6356 21.0015 13.8383 21.2504 14.1227C21.4993 14.4 21.6949 14.7734 21.8371 15.2427C21.9793 15.7049 22.0504 16.2809 22.0504 16.9707V17.184C22.0504 17.9307 21.9793 18.5529 21.8371 19.0507C21.6949 19.5414 21.4993 19.936 21.2504 20.2347C21.0015 20.5263 20.7064 20.7325 20.3651 20.8534C20.0309 20.9743 19.6682 21.0347 19.2771 21.0347ZM19.2771 19.9254C19.4762 19.9254 19.6646 19.8863 19.8424 19.808C20.0202 19.7298 20.1766 19.5912 20.3117 19.392C20.454 19.1858 20.5642 18.9049 20.6424 18.5494C20.7277 18.1938 20.7704 17.7387 20.7704 17.184V16.9707C20.7704 16.4729 20.7277 16.0605 20.6424 15.7334C20.5642 15.4063 20.454 15.1467 20.3117 14.9547C20.1766 14.7627 20.0202 14.6312 19.8424 14.56C19.6646 14.4818 19.4762 14.4427 19.2771 14.4427C19.078 14.4427 18.8895 14.4818 18.7117 14.56C18.534 14.6312 18.374 14.7627 18.2317 14.9547C18.0966 15.1467 17.9864 15.4063 17.9011 15.7334C17.8229 16.0605 17.7837 16.4729 17.7837 16.9707V17.184C17.7837 17.7387 17.8229 18.1938 17.9011 18.5494C17.9864 18.9049 18.0966 19.1858 18.2317 19.392C18.374 19.5912 18.534 19.7298 18.7117 19.808C18.8895 19.8863 19.078 19.9254 19.2771 19.9254Z" fill="black"/>
</svg>
