<svg width="32" height="32" viewBox="0 0 32 32" fill="none" xmlns="http://www.w3.org/2000/svg">
<rect width="32" height="32" fill="white"/>
<path fill-rule="evenodd" clip-rule="evenodd" d="M23.7283 21.2352C22.0496 23.7084 19.2147 25.3334 16.0003 25.3334C12.8175 25.3334 10.0068 23.7402 8.32219 21.3079L16.1014 16.8556L23.7283 21.2352ZM24.398 20.0781L17.446 16.0861L24.4673 12.0677C25.0233 13.2627 25.3337 14.5951 25.3337 16C25.3337 17.4623 24.9974 18.846 24.398 20.0781ZM24.8876 21.9008L28.8398 24.1703L29.5259 23.0226L25.5569 20.7435C26.2674 19.3147 26.667 17.7041 26.667 16C26.667 14.3541 26.2942 12.7952 25.6284 11.4032L29.5372 9.16605L28.8533 8.01728L24.9769 10.2358C23.0792 7.28668 19.7679 5.33337 16.0003 5.33337C12.2746 5.33337 8.99501 7.24353 7.08747 10.138L3.36434 8.00004L2.67828 9.14772L6.42321 11.2982C5.72552 12.7166 5.33366 14.3125 5.33366 16C5.33366 17.7348 5.74776 19.3728 6.48251 20.8206L2.66699 23.0043L3.35088 24.1531L7.16111 21.9724C9.07873 24.805 12.3221 26.6667 16.0003 26.6667C19.7094 26.6667 22.9764 24.7736 24.8876 21.9008ZM7.64164 20.1572L14.7581 16.0843L7.58247 11.9638C6.9957 13.1853 6.66699 14.5543 6.66699 16C6.66699 17.4937 7.01785 18.9054 7.64164 20.1572ZM8.24635 10.8034L16.1027 15.3147L23.8178 10.8992C22.1515 8.35065 19.2726 6.66671 16.0003 6.66671C12.7693 6.66671 9.9217 8.30853 8.24635 10.8034Z" fill="black"/>
</svg>
