<svg width="24" height="24" viewBox="0 0 24 24" fill="none" xmlns="http://www.w3.org/2000/svg">
<path d="M0.726562 11.3746C0.726562 6.35538 0.726562 3.84581 2.28582 2.28655C3.84508 0.727295 6.35464 0.727295 11.3738 0.727295H12.2611C17.2803 0.727295 19.7898 0.727295 21.3491 2.28655C22.9084 3.84581 22.9084 6.35538 22.9084 11.3746V12.2618C22.9084 17.281 22.9084 19.7906 21.3491 21.3499C19.7898 22.9091 17.2803 22.9091 12.2611 22.9091H11.3738C6.35464 22.9091 3.84508 22.9091 2.28582 21.3499C0.726562 19.7906 0.726562 17.281 0.726562 12.2618V11.3746Z" fill="#1E85FF"/>
<path d="M12.5301 16.7075C7.47445 16.7075 4.59085 13.2416 4.4707 7.47437H7.00313C7.08631 11.7074 8.95323 13.5004 10.432 13.8701V7.47437H12.8167V11.1251C14.277 10.968 15.811 9.30437 16.3286 7.47437H18.7132C18.3158 9.72952 16.6521 11.3932 15.4691 12.0771C16.6521 12.6316 18.5469 14.0827 19.2678 16.7075H16.6429C16.0791 14.9515 14.6744 13.5928 12.8167 13.408V16.7075H12.5301Z" fill="white"/>
</svg>
