<svg width="346" height="170" viewBox="0 0 346 170" fill="none" xmlns="http://www.w3.org/2000/svg">
<rect x="142.5" y="48.5" width="61" height="61" rx="30.5" fill="#54EE46"/>
<path d="M186.795 84.8211C184.677 84.8211 182.627 84.4767 180.716 83.8567C180.416 83.7551 180.094 83.7401 179.786 83.8132C179.479 83.8863 179.198 84.0446 178.976 84.27L176.272 87.6628C171.398 85.3378 166.834 80.9461 164.406 75.9L167.764 73.0411C168.229 72.5589 168.367 71.8872 168.178 71.2844C167.541 69.3728 167.213 67.3233 167.213 65.205C167.213 64.275 166.438 63.5 165.508 63.5H159.549C158.619 63.5 157.5 63.9133 157.5 65.205C157.5 81.2044 170.813 94.5 186.795 94.5C188.018 94.5 188.5 93.415 188.5 92.4678V86.5261C188.5 85.5961 187.725 84.8211 186.795 84.8211Z" fill="#2F2B43"/>
<circle opacity="0.0526316" cx="173" cy="79" r="165" stroke="#54EE46"/>
<circle opacity="0.105263" cx="173" cy="79" r="157.5" stroke="#54EE46"/>
<circle opacity="0.157895" cx="173" cy="79" r="150" stroke="#54EE46"/>
<circle opacity="0.210526" cx="173" cy="79" r="142.5" stroke="#54EE46"/>
<circle opacity="0.263158" cx="173" cy="79" r="135" stroke="#54EE46"/>
<circle opacity="0.315789" cx="173" cy="79" r="127.5" stroke="#54EE46"/>
<circle opacity="0.368421" cx="173" cy="79" r="120" stroke="#54EE46"/>
<circle opacity="0.421053" cx="173" cy="79" r="112.5" stroke="#54EE46"/>
<circle opacity="0.473684" cx="173" cy="79" r="105" stroke="#54EE46"/>
<circle opacity="0.526316" cx="173" cy="79" r="97.5" stroke="#54EE46"/>
<circle opacity="0.578947" cx="173" cy="79" r="90" stroke="#54EE46"/>
<circle opacity="0.631579" cx="173" cy="79" r="82.5" stroke="#54EE46"/>
<circle opacity="0.684211" cx="173" cy="79" r="75" stroke="#54EE46"/>
<circle opacity="0.736842" cx="173" cy="79" r="67.5" stroke="#54EE46"/>
<circle opacity="0.789474" cx="173" cy="79" r="60" stroke="#54EE46"/>
<circle opacity="0.842105" cx="173" cy="79" r="52.5" stroke="#54EE46"/>
<circle opacity="0.894737" cx="173" cy="79" r="45" stroke="#54EE46"/>
<circle opacity="0.947368" cx="173" cy="79" r="37.5" stroke="#54EE46"/>
<circle cx="173" cy="79" r="30" stroke="#54EE46"/>
</svg>
