<svg width="152" height="45" viewBox="0 0 152 45" fill="none" xmlns="http://www.w3.org/2000/svg">
<g clip-path="url(#clip0_49_2885)">
<path d="M0.363281 11.6744V10.9416H4.75101L9.13873 24.7653L14.773 10.9416H16.3685L21.9031 24.7165L26.2908 10.9416H30.2796V11.6744L23.5484 32.8738H21.0056L15.4212 19.1968L9.7869 32.8738H7.09446L0.363281 11.6744ZM43.0914 33.1181C41.4295 33.1181 39.8837 32.8413 38.4544 32.2877C37.0583 31.7015 35.845 30.9036 34.8146 29.8942C33.7841 28.8847 32.9697 27.696 32.3714 26.3284C31.8064 24.9281 31.5238 23.4138 31.5238 21.7857C31.5238 20.1574 31.8064 18.6595 32.3714 17.2917C32.9697 15.8915 33.7841 14.7029 34.8146 13.7259C35.845 12.7164 37.0583 11.9349 38.4544 11.3813C39.8837 10.8277 41.4295 10.5509 43.0914 10.5509C44.7535 10.5509 46.2825 10.8277 47.6787 11.3813C49.108 11.9349 50.3378 12.7164 51.3683 13.7259C52.3988 14.7029 53.1965 15.8915 53.7616 17.2917C54.36 18.6595 54.6591 20.1574 54.6591 21.7857C54.6591 23.4464 54.36 24.977 53.7616 26.3772C53.1965 27.7449 52.3821 28.9335 51.3185 29.943C50.288 30.9199 49.0581 31.7015 47.6288 32.2877C46.2327 32.8413 44.7203 33.1181 43.0914 33.1181ZM43.0914 29.2592C44.1219 29.2592 45.0693 29.0801 45.9335 28.7219C46.7977 28.3637 47.5291 27.8589 48.1274 27.2076C48.7589 26.5238 49.2409 25.7259 49.5733 24.8142C49.9057 23.9023 50.0719 22.8928 50.0719 21.7857C50.0719 19.6038 49.4404 17.8291 48.1773 16.4613C46.9473 15.0937 45.2521 14.4098 43.0914 14.4098C40.9641 14.4098 39.2522 15.0937 37.9558 16.4613C36.6927 17.8291 36.0611 19.6038 36.0611 21.7857C36.0611 22.8603 36.2273 23.8697 36.5597 24.8142C36.8921 25.7259 37.3575 26.5075 37.9558 27.1587C38.5874 27.8101 39.3353 28.3311 40.1995 28.7219C41.0638 29.0801 42.0278 29.2592 43.0914 29.2592ZM73.0085 19.9783C73.0085 18.1222 72.6097 16.787 71.8119 15.9729C71.0474 15.1262 70.0502 14.7029 68.8203 14.7029C67.9893 14.7029 67.2414 14.882 66.5766 15.2402C65.945 15.5658 65.3965 16.038 64.9312 16.6567C64.499 17.2429 64.15 17.9431 63.8841 18.7572C63.6514 19.5713 63.5185 20.4668 63.4852 21.4437V32.7273H59.0476V10.9416H63.2359V14.7029C63.8675 13.5305 64.765 12.5699 65.9283 11.8209C67.0918 11.0393 68.4214 10.6486 69.9173 10.6486C71.2801 10.6486 72.5266 11.0231 73.6568 11.7721C74.8202 12.4885 75.701 13.4654 76.2993 14.7029C76.9642 13.5305 77.8949 12.5699 79.0915 11.8209C80.3215 11.0393 81.7342 10.6486 83.3298 10.6486C84.3934 10.6486 85.4073 10.844 86.3711 11.2348C87.3683 11.593 88.2327 12.1303 88.9643 12.8467C89.7285 13.5305 90.3264 14.3772 90.759 15.3867C91.2242 16.3637 91.4573 17.4708 91.4573 18.7083V32.7273H86.9699V20.4179C86.9699 18.3664 86.5039 16.901 85.5735 16.0217C84.6423 15.1425 83.5624 14.7029 82.3325 14.7029C80.737 14.7029 79.5237 15.3053 78.6927 16.5102C77.8949 17.6825 77.4794 19.2456 77.4462 21.1995V32.7273H73.0085V19.9783ZM93.5134 44.9878C93.3147 44.9878 93.1485 44.9878 93.0148 44.9878C92.8486 44.9878 92.6824 44.9553 92.5162 44.8901V40.9823C92.6824 41.015 92.8486 41.0313 93.0148 41.0313C93.181 41.0313 93.3472 41.0313 93.5134 41.0313C94.5774 41.0313 95.4251 40.7055 96.0565 40.0543C96.6879 39.4356 97.0036 38.2958 97.0036 36.635V10.9416H101.442V36.635C101.442 39.3379 100.827 41.4057 99.5968 42.8385C98.4 44.2713 96.3722 44.9878 93.5134 44.9878ZM99.2477 6.00816C98.4167 6.00816 97.7185 5.74765 97.1539 5.22662C96.6219 4.70559 96.3555 4.07058 96.3555 3.3216C96.3555 2.57262 96.6219 1.95389 97.1539 1.46542C97.7185 0.97696 98.4167 0.732727 99.2477 0.732727C100.045 0.732727 100.693 0.97696 101.192 1.46542C101.724 1.95389 101.99 2.57262 101.99 3.3216C101.99 4.07058 101.724 4.70559 101.192 5.22662C100.693 5.74765 100.045 6.00816 99.2477 6.00816ZM117.423 33.1181C115.761 33.1181 114.215 32.8413 112.786 32.2877C111.389 31.7015 110.177 30.9036 109.146 29.8942C108.115 28.8847 107.301 27.696 106.702 26.3284C106.138 24.9281 105.855 23.4138 105.855 21.7857C105.855 20.1574 106.138 18.6595 106.702 17.2917C107.301 15.8915 108.115 14.7029 109.146 13.7259C110.177 12.7164 111.389 11.9349 112.786 11.3813C114.215 10.8277 115.761 10.5509 117.423 10.5509C119.085 10.5509 120.614 10.8277 122.01 11.3813C123.439 11.9349 124.669 12.7164 125.7 13.7259C126.73 14.7029 127.528 15.8915 128.093 17.2917C128.691 18.6595 128.99 20.1574 128.99 21.7857C128.99 23.4464 128.691 24.977 128.093 26.3772C127.528 27.7449 126.714 28.9335 125.65 29.943C124.619 30.9199 123.389 31.7015 121.96 32.2877C120.564 32.8413 119.051 33.1181 117.423 33.1181ZM117.423 29.2592C118.453 29.2592 119.4 29.0801 120.265 28.7219C121.129 28.3637 121.861 27.8589 122.459 27.2076C123.09 26.5238 123.572 25.7259 123.904 24.8142C124.237 23.9023 124.403 22.8928 124.403 21.7857C124.403 19.6038 123.771 17.8291 122.509 16.4613C121.278 15.0937 119.583 14.4098 117.423 14.4098C115.295 14.4098 113.583 15.0937 112.287 16.4613C111.023 17.8291 110.392 19.6038 110.392 21.7857C110.392 22.8603 110.558 23.8697 110.891 24.8142C111.223 25.7259 111.688 26.5075 112.287 27.1587C112.918 27.8101 113.667 28.3311 114.53 28.7219C115.395 29.0801 116.359 29.2592 117.423 29.2592ZM134.691 43.8643L138.93 32.6296L129.806 11.6744V10.9416H134.342L141.074 26.8657L147.107 10.9416H151.295L151.245 11.6744L138.88 44.4505H134.691V43.8643Z" fill="#61362B"/>
</g>
<defs>
<clipPath id="clip0_49_2885">
<rect width="152" height="45" fill="white"/>
</clipPath>
</defs>
</svg>
