<svg width="743" height="223" viewBox="0 0 743 223" fill="none" xmlns="http://www.w3.org/2000/svg">
<path d="M0.395489 55.405L0.395489 51.73H21.9555L43.5155 121.065L71.2005 51.73H79.0405L106.235 120.82L127.795 51.73H147.396L147.396 55.405L114.32 161.735H101.825L74.3855 93.135L46.7005 161.735H33.4705L0.395489 55.405ZM210.349 162.96C202.182 162.96 194.587 161.572 187.564 158.795C180.704 155.855 174.742 151.853 169.679 146.79C164.616 141.727 160.614 135.765 157.674 128.905C154.897 121.882 153.509 114.287 153.509 106.12C153.509 97.9533 154.897 90.44 157.674 83.58C160.614 76.5567 164.616 70.595 169.679 65.695C174.742 60.6317 180.704 56.7117 187.564 53.935C194.587 51.1583 202.182 49.77 210.349 49.77C218.516 49.77 226.029 51.1583 232.889 53.935C239.912 56.7117 245.956 60.6317 251.019 65.695C256.082 70.595 260.002 76.5567 262.779 83.58C265.719 90.44 267.189 97.9533 267.189 106.12C267.189 114.45 265.719 122.127 262.779 129.15C260.002 136.01 256.001 141.972 250.774 147.035C245.711 151.935 239.667 155.855 232.644 158.795C225.784 161.572 218.352 162.96 210.349 162.96ZM210.349 143.605C215.412 143.605 220.067 142.707 224.314 140.91C228.561 139.113 232.154 136.582 235.094 133.315C238.197 129.885 240.566 125.883 242.199 121.31C243.832 116.737 244.649 111.673 244.649 106.12C244.649 95.1767 241.546 86.275 235.339 79.415C229.296 72.555 220.966 69.125 210.349 69.125C199.896 69.125 191.484 72.555 185.114 79.415C178.907 86.275 175.804 95.1767 175.804 106.12C175.804 111.51 176.621 116.573 178.254 121.31C179.887 125.883 182.174 129.803 185.114 133.07C188.217 136.337 191.892 138.95 196.139 140.91C200.386 142.707 205.122 143.605 210.349 143.605ZM357.353 97.055C357.353 87.745 355.393 81.0483 351.473 76.965C347.716 72.7183 342.816 70.595 336.773 70.595C332.69 70.595 329.015 71.4933 325.748 73.29C322.645 74.9233 319.95 77.2917 317.663 80.395C315.54 83.335 313.825 86.8467 312.518 90.93C311.375 95.0133 310.721 99.505 310.558 104.405L310.558 161H288.753L288.753 51.73L309.333 51.73V70.595C312.436 64.715 316.846 59.8967 322.563 56.14C328.28 52.22 334.813 50.26 342.163 50.26C348.86 50.26 354.985 52.1383 360.538 55.895C366.255 59.4883 370.583 64.3883 373.523 70.595C376.79 64.715 381.363 59.8967 387.243 56.14C393.286 52.22 400.228 50.26 408.068 50.26C413.295 50.26 418.276 51.24 423.013 53.2C427.913 54.9967 432.16 57.6917 435.753 61.285C439.51 64.715 442.45 68.9617 444.573 74.025C446.86 78.925 448.003 84.4783 448.003 90.685L448.003 161L425.953 161L425.953 99.26C425.953 88.97 423.666 81.62 419.093 77.21C414.52 72.8 409.211 70.595 403.168 70.595C395.328 70.595 389.366 73.6167 385.283 79.66C381.363 85.54 379.321 93.38 379.158 103.18L379.158 161H357.353L357.353 97.055ZM458.109 222.495C457.129 222.495 456.312 222.495 455.659 222.495C454.842 222.495 454.026 222.332 453.209 222.005V202.405C454.026 202.568 454.842 202.65 455.659 202.65C456.476 202.65 457.292 202.65 458.109 202.65C463.336 202.65 467.501 201.017 470.604 197.75C473.707 194.647 475.259 188.93 475.259 180.6L475.259 51.73L497.064 51.73L497.064 180.6C497.064 194.157 494.042 204.528 487.999 211.715C482.119 218.902 472.156 222.495 458.109 222.495ZM486.284 26.985C482.201 26.985 478.771 25.6783 475.994 23.065C473.381 20.4517 472.074 17.2667 472.074 13.51C472.074 9.75333 473.381 6.65 475.994 4.19999C478.771 1.74999 482.201 0.524992 486.284 0.524992C490.204 0.524992 493.389 1.74999 495.839 4.19999C498.452 6.65 499.759 9.75333 499.759 13.51C499.759 17.2667 498.452 20.4517 495.839 23.065C493.389 25.6783 490.204 26.985 486.284 26.985ZM575.59 162.96C567.424 162.96 559.829 161.572 552.805 158.795C545.945 155.855 539.984 151.853 534.92 146.79C529.857 141.727 525.855 135.765 522.915 128.905C520.139 121.882 518.75 114.287 518.75 106.12C518.75 97.9533 520.139 90.44 522.915 83.58C525.855 76.5567 529.857 70.595 534.92 65.695C539.984 60.6317 545.945 56.7117 552.805 53.935C559.829 51.1583 567.424 49.77 575.59 49.77C583.757 49.77 591.27 51.1583 598.13 53.935C605.154 56.7117 611.197 60.6317 616.26 65.695C621.324 70.595 625.244 76.5567 628.02 83.58C630.96 90.44 632.43 97.9533 632.43 106.12C632.43 114.45 630.96 122.127 628.02 129.15C625.244 136.01 621.242 141.972 616.015 147.035C610.952 151.935 604.909 155.855 597.885 158.795C591.025 161.572 583.594 162.96 575.59 162.96ZM575.59 143.605C580.654 143.605 585.309 142.707 589.555 140.91C593.802 139.113 597.395 136.582 600.335 133.315C603.439 129.885 605.807 125.883 607.44 121.31C609.074 116.737 609.89 111.673 609.89 106.12C609.89 95.1767 606.787 86.275 600.58 79.415C594.537 72.555 586.207 69.125 575.59 69.125C565.137 69.125 556.725 72.555 550.355 79.415C544.149 86.275 541.045 95.1767 541.045 106.12C541.045 111.51 541.862 116.573 543.495 121.31C545.129 125.883 547.415 129.803 550.355 133.07C553.459 136.337 557.134 138.95 561.38 140.91C565.627 142.707 570.364 143.605 575.59 143.605ZM660.445 216.86L681.27 160.51L636.435 55.405V51.73L658.73 51.73L691.805 131.6L721.45 51.73H742.03L741.785 55.405L681.025 219.8H660.445V216.86Z" fill="black"/>
</svg>
