<svg width="963" height="223" viewBox="0 0 963 223" fill="none" xmlns="http://www.w3.org/2000/svg">
<path d="M5.30194 222.495C4.32194 222.495 3.50527 222.495 2.85194 222.495C2.03527 222.495 1.21861 222.332 0.401941 222.005L0.401941 202.405C1.21861 202.568 2.03527 202.65 2.85194 202.65C3.66861 202.65 4.48527 202.65 5.30194 202.65C10.5286 202.65 14.6936 201.017 17.7969 197.75C20.9003 194.647 22.4519 188.93 22.4519 180.6L22.4519 51.73L44.2569 51.73L44.2569 180.6C44.2569 194.157 41.2353 204.528 35.1919 211.715C29.3119 218.902 19.3486 222.495 5.30194 222.495ZM33.4769 26.985C29.3936 26.985 25.9636 25.6783 23.1869 23.065C20.5736 20.4517 19.2669 17.2667 19.2669 13.51C19.2669 9.75333 20.5736 6.65 23.1869 4.19999C25.9636 1.74999 29.3936 0.524992 33.4769 0.524992C37.3969 0.524992 40.5819 1.74999 43.0319 4.19999C45.6453 6.65 46.9519 9.75333 46.9519 13.51C46.9519 17.2667 45.6453 20.4517 43.0319 23.065C40.5819 25.6783 37.3969 26.985 33.4769 26.985ZM122.783 162.96C114.617 162.96 107.022 161.572 99.9983 158.795C93.1383 155.855 87.1766 151.853 82.1133 146.79C77.0499 141.727 73.0483 135.765 70.1083 128.905C67.3316 121.882 65.9433 114.287 65.9433 106.12C65.9433 97.9533 67.3316 90.44 70.1083 83.58C73.0483 76.5567 77.0499 70.595 82.1133 65.695C87.1766 60.6317 93.1383 56.7117 99.9983 53.935C107.022 51.1583 114.617 49.77 122.783 49.77C130.95 49.77 138.463 51.1583 145.323 53.935C152.347 56.7117 158.39 60.6317 163.453 65.695C168.517 70.595 172.437 76.5567 175.213 83.58C178.153 90.44 179.623 97.9533 179.623 106.12C179.623 114.45 178.153 122.127 175.213 129.15C172.437 136.01 168.435 141.972 163.208 147.035C158.145 151.935 152.102 155.855 145.078 158.795C138.218 161.572 130.787 162.96 122.783 162.96ZM122.783 143.605C127.847 143.605 132.502 142.707 136.748 140.91C140.995 139.113 144.588 136.582 147.528 133.315C150.632 129.885 153 125.883 154.633 121.31C156.267 116.737 157.083 111.673 157.083 106.12C157.083 95.1767 153.98 86.275 147.773 79.415C141.73 72.555 133.4 69.125 122.783 69.125C112.33 69.125 103.918 72.555 97.5483 79.415C91.3416 86.275 88.2383 95.1767 88.2383 106.12C88.2383 111.51 89.0549 116.573 90.6883 121.31C92.3216 125.883 94.6083 129.803 97.5483 133.07C100.652 136.337 104.327 138.95 108.573 140.91C112.82 142.707 117.557 143.605 122.783 143.605ZM207.637 216.86L228.462 160.51L183.627 55.405L183.627 51.73H205.922L238.997 131.6L268.642 51.73H289.222L288.977 55.405L228.217 219.8H207.637V216.86ZM431.535 97.055C431.535 87.745 429.575 81.0483 425.655 76.965C421.898 72.7183 416.998 70.595 410.955 70.595C406.872 70.595 403.197 71.4933 399.93 73.29C396.827 74.9233 394.132 77.2917 391.845 80.395C389.722 83.335 388.007 86.8467 386.7 90.93C385.557 95.0133 384.903 99.505 384.74 104.405L384.74 161H362.935L362.935 51.73H383.515V70.595C386.618 64.715 391.028 59.8967 396.745 56.14C402.462 52.22 408.995 50.26 416.345 50.26C423.042 50.26 429.167 52.1383 434.72 55.895C440.437 59.4883 444.765 64.3883 447.705 70.595C450.972 64.715 455.545 59.8967 461.425 56.14C467.468 52.22 474.41 50.26 482.25 50.26C487.477 50.26 492.458 51.24 497.195 53.2C502.095 54.9967 506.342 57.6917 509.935 61.285C513.692 64.715 516.632 68.9617 518.755 74.025C521.042 78.925 522.185 84.4783 522.185 90.685V161H500.135L500.135 99.26C500.135 88.97 497.848 81.62 493.275 77.21C488.702 72.8 483.393 70.595 477.35 70.595C469.51 70.595 463.548 73.6167 459.465 79.66C455.545 85.54 453.503 93.38 453.34 103.18L453.34 161L431.535 161L431.535 97.055ZM594.031 162.96C587.171 162.96 580.556 161.653 574.186 159.04C567.98 156.427 562.426 152.67 557.526 147.77C552.79 142.87 548.951 136.908 546.011 129.885C543.235 122.862 541.846 115.022 541.846 106.365C541.846 97.8717 543.235 90.1133 546.011 83.09C548.788 76.0667 552.545 70.105 557.281 65.205C562.018 60.305 567.49 56.5483 573.696 53.935C580.066 51.1583 586.845 49.77 594.031 49.77C603.505 49.77 611.508 51.73 618.041 55.65C624.738 59.4067 629.556 63.8983 632.496 69.125V51.73H653.321V161H632.496V143.115C628.903 148.832 623.758 153.568 617.061 157.325C610.528 161.082 602.851 162.96 594.031 162.96ZM597.706 143.36C603.096 143.36 607.833 142.38 611.916 140.42C616.163 138.297 619.675 135.602 622.451 132.335C625.391 128.905 627.596 125.067 629.066 120.82C630.536 116.41 631.271 111.837 631.271 107.1V103.425C631.108 98.8517 630.21 94.5233 628.576 90.44C627.106 86.3567 624.983 82.7633 622.206 79.66C619.43 76.5567 616 74.1067 611.916 72.31C607.833 70.5133 603.26 69.615 598.196 69.615C593.46 69.615 589.05 70.4317 584.966 72.065C580.883 73.6983 577.29 76.0667 574.186 79.17C571.246 82.11 568.878 85.8667 567.081 90.44C565.448 95.0133 564.631 100.24 564.631 106.12C564.631 111.837 565.448 116.982 567.081 121.555C568.715 126.128 571.001 130.048 573.941 133.315C576.881 136.418 580.311 138.868 584.231 140.665C588.315 142.462 592.806 143.36 597.706 143.36ZM758.298 99.26C758.298 94.1967 757.645 89.8683 756.338 86.275C755.031 82.6817 753.235 79.7417 750.948 77.455C748.661 75.1683 745.966 73.4533 742.863 72.31C739.923 71.1667 736.738 70.595 733.308 70.595C724.488 70.595 717.465 73.78 712.238 80.15C707.175 86.52 704.561 94.4417 704.398 103.915V161H682.593V51.73H703.173V69.86C706.44 64.3067 711.176 59.6517 717.383 55.895C723.59 52.1383 731.021 50.26 739.678 50.26C745.558 50.26 750.948 51.24 755.848 53.2C760.748 55.16 764.995 58.0183 768.588 61.775C772.181 65.3683 774.958 69.9417 776.918 75.495C779.041 80.885 780.103 87.01 780.103 93.87V161H758.298V99.26ZM807.61 51.73H829.415V161H807.61V51.73ZM818.635 26.985C814.552 26.985 811.122 25.6783 808.345 23.065C805.732 20.4517 804.425 17.2667 804.425 13.51C804.425 9.75333 805.732 6.65 808.345 4.19999C811.122 1.74999 814.552 0.524992 818.635 0.524992C822.555 0.524992 825.74 1.74999 828.19 4.19999C830.803 6.65 832.11 9.75333 832.11 13.51C832.11 17.2667 830.803 20.4517 828.19 23.065C825.74 25.6783 822.555 26.985 818.635 26.985ZM903.286 162.96C896.426 162.96 889.811 161.653 883.441 159.04C877.235 156.427 871.681 152.67 866.781 147.77C862.045 142.87 858.206 136.908 855.266 129.885C852.49 122.862 851.101 115.022 851.101 106.365C851.101 97.8717 852.49 90.1133 855.266 83.09C858.043 76.0667 861.8 70.105 866.536 65.205C871.273 60.305 876.745 56.5483 882.951 53.935C889.321 51.1583 896.1 49.77 903.286 49.77C912.76 49.77 920.763 51.73 927.296 55.65C933.993 59.4067 938.811 63.8983 941.751 69.125V51.73H962.576V161H941.751V143.115C938.158 148.832 933.013 153.568 926.316 157.325C919.783 161.082 912.106 162.96 903.286 162.96ZM906.961 143.36C912.351 143.36 917.088 142.38 921.171 140.42C925.418 138.297 928.93 135.602 931.706 132.335C934.646 128.905 936.851 125.067 938.321 120.82C939.791 116.41 940.526 111.837 940.526 107.1V103.425C940.363 98.8517 939.465 94.5233 937.831 90.44C936.361 86.3567 934.238 82.7633 931.461 79.66C928.685 76.5567 925.255 74.1067 921.171 72.31C917.088 70.5133 912.515 69.615 907.451 69.615C902.715 69.615 898.305 70.4317 894.221 72.065C890.138 73.6983 886.545 76.0667 883.441 79.17C880.501 82.11 878.133 85.8667 876.336 90.44C874.703 95.0133 873.886 100.24 873.886 106.12C873.886 111.837 874.703 116.982 876.336 121.555C877.97 126.128 880.256 130.048 883.196 133.315C886.136 136.418 889.566 138.868 893.486 140.665C897.57 142.462 902.061 143.36 906.961 143.36Z" fill="white"/>
</svg>
