<svg width="182" height="55" viewBox="0 0 182 55" fill="none" xmlns="http://www.w3.org/2000/svg">
<path d="M0.43496 14.2687L0.43496 13.3731H5.68869L10.9424 30.2687L17.6887 13.3731H19.5991L26.226 30.209L31.4797 13.3731L36.2558 13.3731V14.2687L28.1961 40.1791H25.1514L18.4648 23.4627L11.7185 40.1791H8.49466L0.43496 14.2687ZM51.5963 40.4776C49.6063 40.4776 47.7555 40.1393 46.0441 39.4627C44.3724 38.7463 42.9197 37.7711 41.6859 36.5373C40.452 35.3035 39.4769 33.8507 38.7605 32.1791C38.0839 30.4677 37.7456 28.6169 37.7456 26.6269C37.7456 24.6368 38.0839 22.806 38.7605 21.1343C39.4769 19.4229 40.452 17.9702 41.6859 16.7761C42.9197 15.5423 44.3724 14.5871 46.0441 13.9105C47.7555 13.2338 49.6063 12.8955 51.5963 12.8955C53.5864 12.8955 55.4172 13.2338 57.0889 13.9105C58.8003 14.5871 60.2729 15.5423 61.5068 16.7761C62.7406 17.9702 63.6958 19.4229 64.3724 21.1343C65.0889 22.806 65.4471 24.6368 65.4471 26.6269C65.4471 28.6567 65.0889 30.5274 64.3724 32.2388C63.6958 33.9104 62.7207 35.3632 61.4471 36.597C60.2132 37.791 58.7406 38.7463 57.0292 39.4627C55.3575 40.1393 53.5466 40.4776 51.5963 40.4776ZM51.5963 35.7612C52.8302 35.7612 53.9645 35.5423 54.9993 35.1045C56.0341 34.6667 56.9098 34.0498 57.6262 33.2537C58.3824 32.4179 58.9595 31.4428 59.3575 30.3284C59.7555 29.2139 59.9545 27.9801 59.9545 26.6269C59.9545 23.9602 59.1983 21.7911 57.6859 20.1194C56.2132 18.4478 54.1834 17.6119 51.5963 17.6119C49.0491 17.6119 46.9993 18.4478 45.4471 20.1194C43.9346 21.7911 43.1784 23.9602 43.1784 26.6269C43.1784 27.9403 43.3774 29.1741 43.7754 30.3284C44.1734 31.4428 44.7307 32.398 45.4471 33.194C46.2033 33.9901 47.0988 34.6269 48.1336 35.1045C49.1685 35.5423 50.3227 35.7612 51.5963 35.7612ZM87.4181 24.4179C87.4181 22.1493 86.9405 20.5174 85.9853 19.5224C85.0699 18.4876 83.8759 17.9702 82.4032 17.9702C81.4082 17.9702 80.5127 18.1891 79.7167 18.6269C78.9604 19.0249 78.3037 19.602 77.7465 20.3582C77.2291 21.0746 76.8112 21.9304 76.4928 22.9254C76.2142 23.9204 76.055 25.0149 76.0152 26.209L76.0152 40H70.7017L70.7017 13.3731H75.7167V17.9702C76.4729 16.5373 77.5475 15.3632 78.9405 14.4478C80.3336 13.4925 81.9256 13.0149 83.7167 13.0149C85.3485 13.0149 86.841 13.4726 88.1943 14.3881C89.5873 15.2637 90.642 16.4577 91.3584 17.9702C92.1545 16.5373 93.2689 15.3632 94.7017 14.4478C96.1744 13.4925 97.8659 13.0149 99.7764 13.0149C101.05 13.0149 102.264 13.2537 103.418 13.7314C104.612 14.1692 105.647 14.8259 106.523 15.7015C107.438 16.5373 108.154 17.5721 108.672 18.806C109.229 20 109.508 21.3532 109.508 22.8657L109.508 40L104.135 40L104.135 24.9552C104.135 22.4478 103.577 20.6567 102.463 19.5821C101.348 18.5075 100.055 17.9702 98.5823 17.9702C96.6719 17.9702 95.2191 18.7065 94.2241 20.1791C93.2689 21.6119 92.7714 23.5224 92.7316 25.9105L92.7316 40H87.4181L87.4181 24.4179ZM111.97 54.9851C111.732 54.9851 111.533 54.9851 111.373 54.9851C111.174 54.9851 110.975 54.9453 110.776 54.8657V50.0895C110.975 50.1294 111.174 50.1493 111.373 50.1493C111.572 50.1493 111.771 50.1493 111.97 50.1493C113.244 50.1493 114.259 49.7512 115.015 48.9552C115.771 48.199 116.149 46.806 116.149 44.7761L116.149 13.3731L121.463 13.3731L121.463 44.7761C121.463 48.0796 120.727 50.607 119.254 52.3582C117.821 54.1094 115.393 54.9851 111.97 54.9851ZM118.836 7.34329C117.841 7.34329 117.005 7.02488 116.329 6.38807C115.692 5.75125 115.373 4.97513 115.373 4.05971C115.373 3.14429 115.692 2.38807 116.329 1.79105C117.005 1.19404 117.841 0.895533 118.836 0.895533C119.791 0.895533 120.567 1.19404 121.164 1.79105C121.801 2.38807 122.12 3.14429 122.12 4.05971C122.12 4.97513 121.801 5.75125 121.164 6.38807C120.567 7.02488 119.791 7.34329 118.836 7.34329ZM140.598 40.4776C138.608 40.4776 136.757 40.1393 135.046 39.4627C133.374 38.7463 131.922 37.7711 130.688 36.5373C129.454 35.3035 128.479 33.8507 127.762 32.1791C127.086 30.4677 126.747 28.6169 126.747 26.6269C126.747 24.6368 127.086 22.806 127.762 21.1343C128.479 19.4229 129.454 17.9702 130.688 16.7761C131.922 15.5423 133.374 14.5871 135.046 13.9105C136.757 13.2338 138.608 12.8955 140.598 12.8955C142.588 12.8955 144.419 13.2338 146.091 13.9105C147.802 14.5871 149.275 15.5423 150.509 16.7761C151.742 17.9702 152.698 19.4229 153.374 21.1343C154.091 22.806 154.449 24.6368 154.449 26.6269C154.449 28.6567 154.091 30.5274 153.374 32.2388C152.698 33.9104 151.723 35.3632 150.449 36.597C149.215 37.791 147.742 38.7463 146.031 39.4627C144.359 40.1393 142.548 40.4776 140.598 40.4776ZM140.598 35.7612C141.832 35.7612 142.966 35.5423 144.001 35.1045C145.036 34.6667 145.912 34.0498 146.628 33.2537C147.384 32.4179 147.961 31.4428 148.359 30.3284C148.757 29.2139 148.956 27.9801 148.956 26.6269C148.956 23.9602 148.2 21.7911 146.688 20.1194C145.215 18.4478 143.185 17.6119 140.598 17.6119C138.051 17.6119 136.001 18.4478 134.449 20.1194C132.936 21.7911 132.18 23.9602 132.18 26.6269C132.18 27.9403 132.379 29.1741 132.777 30.3284C133.175 31.4428 133.732 32.398 134.449 33.194C135.205 33.9901 136.101 34.6269 137.135 35.1045C138.17 35.5423 139.325 35.7612 140.598 35.7612ZM161.275 53.6119L166.35 39.8806L155.425 14.2687V13.3731H160.857L168.917 32.8358L176.141 13.3731H181.156L181.096 14.2687L166.29 54.3284H161.275V53.6119Z" fill="#61362B"/>
</svg>
