<svg width="205" height="37" viewBox="0 0 205 37" fill="none" xmlns="http://www.w3.org/2000/svg">
<path d="M31.904 28.292H30.048L36.736 6.5H42.432L34.72 30.5H27.776L20.224 9.252H22.592L15.04 30.5H8.096L0.384003 6.5H6.144L12.768 28.292L10.976 28.26L18.528 6.5H24.32L31.904 28.292Z" fill="#2F2B43"/>
<path d="M59.7273 30.98C56.9326 30.98 54.4793 30.4573 52.3673 29.412C50.2766 28.3667 48.6446 26.916 47.4713 25.06C46.2979 23.1827 45.7113 20.996 45.7113 18.5C45.7113 16.004 46.2979 13.828 47.4713 11.972C48.6446 10.0947 50.2766 8.63333 52.3673 7.588C54.4793 6.54266 56.9326 6.02 59.7273 6.02C62.5219 6.02 64.9646 6.54266 67.0553 7.588C69.1673 8.63333 70.8099 10.0947 71.9833 11.972C73.1566 13.828 73.7433 16.004 73.7433 18.5C73.7433 20.996 73.1566 23.1827 71.9833 25.06C70.8099 26.916 69.1673 28.3667 67.0553 29.412C64.9646 30.4573 62.5219 30.98 59.7273 30.98ZM59.7273 26.148C61.4766 26.148 62.9806 25.8387 64.2393 25.22C65.5193 24.6013 66.5006 23.716 67.1833 22.564C67.8873 21.412 68.2393 20.0573 68.2393 18.5C68.2393 16.9427 67.8873 15.588 67.1833 14.436C66.5006 13.284 65.5193 12.3987 64.2393 11.78C62.9806 11.1613 61.4766 10.852 59.7273 10.852C57.9993 10.852 56.4953 11.1613 55.2153 11.78C53.9353 12.3987 52.9433 13.284 52.2393 14.436C51.5566 15.588 51.2153 16.9427 51.2153 18.5C51.2153 20.0573 51.5566 21.412 52.2393 22.564C52.9433 23.716 53.9353 24.6013 55.2153 25.22C56.4953 25.8387 57.9993 26.148 59.7273 26.148Z" fill="#2F2B43"/>
<path d="M113.585 6.5V30.5H108.401V8.324L109.777 8.42L99.537 30.5H93.937L83.697 8.484L85.041 8.356V30.5H79.889V6.5H88.241L97.905 27.876H95.569L105.233 6.5H113.585Z" fill="#2F2B43"/>
<path d="M119.091 18.852H124.435V19.78C124.435 21.8493 124.883 23.4493 125.779 24.58C126.696 25.6893 128.2 26.244 130.291 26.244C132.36 26.244 133.853 25.7107 134.771 24.644C135.709 23.556 136.179 22.0627 136.179 20.164V6.5H141.619V20.42C141.619 22.6813 141.139 24.6013 140.179 26.18C139.24 27.7587 137.917 28.9533 136.211 29.764C134.504 30.5747 132.531 30.98 130.291 30.98C128.072 30.98 126.12 30.564 124.435 29.732C122.749 28.9 121.437 27.684 120.499 26.084C119.581 24.4627 119.123 22.4893 119.123 20.164L119.091 18.852Z" fill="#2F2B43"/>
<path d="M161.459 30.98C158.664 30.98 156.211 30.4573 154.099 29.412C152.008 28.3667 150.376 26.916 149.203 25.06C148.029 23.1827 147.443 20.996 147.443 18.5C147.443 16.004 148.029 13.828 149.203 11.972C150.376 10.0947 152.008 8.63333 154.099 7.588C156.211 6.54266 158.664 6.02 161.459 6.02C164.253 6.02 166.696 6.54266 168.787 7.588C170.899 8.63333 172.541 10.0947 173.715 11.972C174.888 13.828 175.475 16.004 175.475 18.5C175.475 20.996 174.888 23.1827 173.715 25.06C172.541 26.916 170.899 28.3667 168.787 29.412C166.696 30.4573 164.253 30.98 161.459 30.98ZM161.459 26.148C163.208 26.148 164.712 25.8387 165.971 25.22C167.251 24.6013 168.232 23.716 168.915 22.564C169.618 21.412 169.971 20.0573 169.971 18.5C169.971 16.9427 169.618 15.588 168.915 14.436C168.232 13.284 167.251 12.3987 165.971 11.78C164.712 11.1613 163.208 10.852 161.459 10.852C159.731 10.852 158.227 11.1613 156.947 11.78C155.667 12.3987 154.674 13.284 153.971 14.436C153.288 15.588 152.947 16.9427 152.947 18.5C152.947 20.0573 153.288 21.412 153.971 22.564C154.674 23.716 155.667 24.6013 156.947 25.22C158.227 25.8387 159.731 26.148 161.459 26.148Z" fill="#2F2B43"/>
<path d="M188.023 30.5V18.916H193.463V30.5H188.023ZM176.727 6.5H182.775L192.023 18.18H189.399L198.647 6.5H204.695L192.471 21.956L188.983 21.988L176.727 6.5Z" fill="#2F2B43"/>
</svg>
