<svg width="489" height="440" viewBox="0 0 489 440" fill="none" xmlns="http://www.w3.org/2000/svg">
<rect x="322.89" y="30.8901" width="138.22" height="138.22" rx="69.1098" fill="#54EE46"/>
<path fill-rule="evenodd" clip-rule="evenodd" d="M367.242 97.679C368.524 97.679 369.563 98.7181 369.563 100V128.626H414.437V100C414.437 98.7181 415.476 97.679 416.758 97.679C418.04 97.679 419.079 98.7181 419.079 100V129.091C419.079 131.398 417.208 133.268 414.901 133.268H369.099C366.792 133.268 364.921 131.398 364.921 129.091V100C364.921 98.7181 365.96 97.679 367.242 97.679Z" fill="#2F2B43"/>
<path fill-rule="evenodd" clip-rule="evenodd" d="M358.732 86.3832C358.732 84.0758 360.602 82.2053 362.909 82.2053H421.091C423.398 82.2053 425.268 84.0758 425.268 86.3832V98.1432C425.268 100.451 423.398 102.321 421.091 102.321H362.909C360.602 102.321 358.732 100.451 358.732 98.1432V86.3832ZM363.374 86.8474V97.6789H420.626V86.8474H363.374Z" fill="#2F2B43"/>
<path fill-rule="evenodd" clip-rule="evenodd" d="M392 82.2053C393.282 82.2053 394.321 83.2444 394.321 84.5263V130.947C394.321 132.229 393.282 133.268 392 133.268C390.718 133.268 389.679 132.229 389.679 130.947V84.5263C389.679 83.2444 390.718 82.2053 392 82.2053Z" fill="#2F2B43"/>
<path fill-rule="evenodd" clip-rule="evenodd" d="M378.074 71.3737C376.637 71.3737 375.26 71.9443 374.244 72.9599C373.228 73.9756 372.658 75.3531 372.658 76.7895C372.658 78.2258 373.228 79.6033 374.244 80.619C375.26 81.6347 376.637 82.2053 378.074 82.2053H388.936C388.508 80.9458 387.896 79.419 387.065 77.908C385.073 74.2866 382.199 71.3737 378.074 71.3737ZM392 84.5263C394.276 84.0711 394.276 84.0703 394.276 84.0694L394.275 84.0674L394.274 84.0623L394.271 84.0478L394.262 84.0021C394.254 83.9644 394.242 83.9122 394.228 83.8466C394.199 83.7154 394.155 83.5302 394.098 83.2985C393.982 82.8356 393.806 82.1847 393.56 81.4078C393.071 79.8625 392.291 77.7775 391.132 75.6709C388.869 71.5555 384.78 66.7316 378.074 66.7316C375.406 66.7316 372.848 67.7912 370.962 69.6775C369.075 71.5637 368.016 74.1219 368.016 76.7895C368.016 79.457 369.075 82.0152 370.962 83.9015C372.848 85.7877 375.406 86.8474 378.074 86.8474H392C392.695 86.8474 393.354 86.5356 393.795 85.9978C394.236 85.4601 394.412 84.753 394.276 84.0711L392 84.5263Z" fill="#2F2B43"/>
<path fill-rule="evenodd" clip-rule="evenodd" d="M392.868 75.6709C395.131 71.5555 399.22 66.7316 405.926 66.7316C408.594 66.7316 411.152 67.7912 413.038 69.6775C414.925 71.5637 415.984 74.1219 415.984 76.7895C415.984 79.457 414.925 82.0152 413.038 83.9015C411.152 85.7877 408.594 86.8474 405.926 86.8474H392C391.305 86.8474 390.646 86.5356 390.205 85.9978C389.764 85.4601 389.588 84.753 389.724 84.0711L392 84.5263C389.724 84.0711 389.724 84.0703 389.724 84.0694L389.725 84.0674L389.726 84.0623L389.729 84.0478L389.738 84.0021C389.746 83.9644 389.758 83.9122 389.772 83.8466C389.801 83.7154 389.844 83.5302 389.902 83.2985C390.018 82.8356 390.194 82.1847 390.44 81.4078C390.929 79.8625 391.709 77.7775 392.868 75.6709ZM395.064 82.2053H405.926C407.363 82.2053 408.74 81.6347 409.756 80.619C410.772 79.6033 411.342 78.2258 411.342 76.7895C411.342 75.3531 410.772 73.9756 409.756 72.9599C408.74 71.9443 407.363 71.3737 405.926 71.3737C401.801 71.3737 398.927 74.2866 396.935 77.908C396.104 79.419 395.492 80.9458 395.064 82.2053Z" fill="#2F2B43"/>
<circle opacity="0.0526316" cx="392" cy="100" r="373.974" stroke="#54EE46" stroke-width="2.06316"/>
<circle opacity="0.105263" cx="392" cy="100" r="356.98" stroke="#54EE46" stroke-width="2.06316"/>
<circle opacity="0.157895" cx="392" cy="100" r="339.986" stroke="#54EE46" stroke-width="2.06316"/>
<circle opacity="0.210526" cx="392" cy="100" r="322.992" stroke="#54EE46" stroke-width="2.06316"/>
<circle opacity="0.263158" cx="392" cy="100" r="305.997" stroke="#54EE46" stroke-width="2.06316"/>
<circle opacity="0.315789" cx="392" cy="100" r="289.003" stroke="#54EE46" stroke-width="2.06316"/>
<circle opacity="0.368421" cx="392" cy="99.9999" r="272.009" stroke="#54EE46" stroke-width="2.06316"/>
<circle opacity="0.421053" cx="392" cy="100" r="255.015" stroke="#54EE46" stroke-width="2.06316"/>
<circle opacity="0.473684" cx="392" cy="100" r="238.02" stroke="#54EE46" stroke-width="2.06316"/>
<circle opacity="0.526316" cx="392" cy="100" r="221.026" stroke="#54EE46" stroke-width="2.06316"/>
<circle opacity="0.578947" cx="392" cy="100" r="204.032" stroke="#54EE46" stroke-width="2.06316"/>
<circle opacity="0.631579" cx="392" cy="100" r="187.038" stroke="#54EE46" stroke-width="2.06316"/>
<circle opacity="0.684211" cx="392" cy="100" r="170.044" stroke="#54EE46" stroke-width="2.06316"/>
<circle opacity="0.736842" cx="392" cy="100" r="153.049" stroke="#54EE46" stroke-width="2.06316"/>
<circle opacity="0.789474" cx="392" cy="100" r="136.055" stroke="#54EE46" stroke-width="2.06316"/>
<circle opacity="0.842105" cx="392" cy="100" r="119.061" stroke="#54EE46" stroke-width="2.06316"/>
<circle opacity="0.894737" cx="392" cy="100" r="102.067" stroke="#54EE46" stroke-width="2.06316"/>
<circle opacity="0.947368" cx="392" cy="99.9999" r="85.0725" stroke="#54EE46" stroke-width="2.06316"/>
<circle cx="392" cy="100" r="68.0782" stroke="#54EE46" stroke-width="2.06316"/>
</svg>
