<svg width="400" height="533" viewBox="0 0 400 533" fill="none" xmlns="http://www.w3.org/2000/svg">
<rect width="400" height="533" fill="#FFF9F3"/>
<path d="M93.9176 267L83.6449 232.091H90.6676L97.5085 257.727H97.8494L104.713 232.091H111.736L118.554 257.614H118.895L125.69 232.091H132.713L122.463 267H115.531L108.44 241.795H107.918L100.827 267H93.9176ZM152.804 267.705C149.531 267.705 146.675 266.955 144.236 265.455C141.796 263.955 139.902 261.856 138.554 259.159C137.205 256.462 136.531 253.311 136.531 249.705C136.531 246.083 137.205 242.917 138.554 240.205C139.902 237.492 141.796 235.386 144.236 233.886C146.675 232.386 149.531 231.636 152.804 231.636C156.077 231.636 158.933 232.386 161.372 233.886C163.812 235.386 165.705 237.492 167.054 240.205C168.402 242.917 169.077 246.083 169.077 249.705C169.077 253.311 168.402 256.462 167.054 259.159C165.705 261.856 163.812 263.955 161.372 265.455C158.933 266.955 156.077 267.705 152.804 267.705ZM152.827 262C154.948 262 156.705 261.439 158.099 260.318C159.493 259.197 160.524 257.705 161.19 255.841C161.872 253.977 162.213 251.924 162.213 249.682C162.213 247.455 161.872 245.409 161.19 243.545C160.524 241.667 159.493 240.159 158.099 239.023C156.705 237.886 154.948 237.318 152.827 237.318C150.69 237.318 148.918 237.886 147.509 239.023C146.115 240.159 145.077 241.667 144.395 243.545C143.728 245.409 143.395 247.455 143.395 249.682C143.395 251.924 143.728 253.977 144.395 255.841C145.077 257.705 146.115 259.197 147.509 260.318C148.918 261.439 150.69 262 152.827 262ZM176.662 267V232.091H183.185V237.773H183.616C184.344 235.848 185.533 234.348 187.185 233.273C188.836 232.182 190.813 231.636 193.116 231.636C195.45 231.636 197.404 232.182 198.98 233.273C200.571 234.364 201.745 235.864 202.503 237.773H202.866C203.7 235.909 205.026 234.424 206.844 233.318C208.662 232.197 210.829 231.636 213.344 231.636C216.51 231.636 219.094 232.629 221.094 234.614C223.109 236.598 224.116 239.591 224.116 243.591V267H217.321V244.227C217.321 241.864 216.677 240.152 215.389 239.091C214.101 238.03 212.563 237.5 210.776 237.5C208.563 237.5 206.844 238.182 205.616 239.545C204.389 240.894 203.776 242.629 203.776 244.75V267H197.003V243.795C197.003 241.902 196.412 240.379 195.23 239.227C194.048 238.076 192.51 237.5 190.616 237.5C189.329 237.5 188.139 237.841 187.048 238.523C185.973 239.189 185.101 240.121 184.435 241.318C183.783 242.515 183.457 243.902 183.457 245.477V267H176.662ZM233.224 232.091H240.02V269.273C240.02 271.606 239.596 273.576 238.747 275.182C237.914 276.788 236.671 278.008 235.02 278.841C233.384 279.674 231.361 280.091 228.952 280.091C228.709 280.091 228.482 280.091 228.27 280.091C228.043 280.091 227.808 280.083 227.565 280.068V274.227C227.777 274.227 227.967 274.227 228.134 274.227C228.285 274.227 228.459 274.227 228.656 274.227C230.262 274.227 231.421 273.795 232.134 272.932C232.861 272.083 233.224 270.848 233.224 269.227V232.091ZM236.588 226.705C235.406 226.705 234.391 226.311 233.543 225.523C232.709 224.72 232.293 223.765 232.293 222.659C232.293 221.538 232.709 220.583 233.543 219.795C234.391 218.992 235.406 218.591 236.588 218.591C237.77 218.591 238.777 218.992 239.611 219.795C240.459 220.583 240.884 221.538 240.884 222.659C240.884 223.765 240.459 224.72 239.611 225.523C238.777 226.311 237.77 226.705 236.588 226.705ZM263.866 267.705C260.594 267.705 257.738 266.955 255.298 265.455C252.859 263.955 250.965 261.856 249.616 259.159C248.268 256.462 247.594 253.311 247.594 249.705C247.594 246.083 248.268 242.917 249.616 240.205C250.965 237.492 252.859 235.386 255.298 233.886C257.738 232.386 260.594 231.636 263.866 231.636C267.139 231.636 269.995 232.386 272.435 233.886C274.874 235.386 276.768 237.492 278.116 240.205C279.465 242.917 280.139 246.083 280.139 249.705C280.139 253.311 279.465 256.462 278.116 259.159C276.768 261.856 274.874 263.955 272.435 265.455C269.995 266.955 267.139 267.705 263.866 267.705ZM263.889 262C266.01 262 267.768 261.439 269.162 260.318C270.556 259.197 271.586 257.705 272.253 255.841C272.935 253.977 273.276 251.924 273.276 249.682C273.276 247.455 272.935 245.409 272.253 243.545C271.586 241.667 270.556 240.159 269.162 239.023C267.768 237.886 266.01 237.318 263.889 237.318C261.753 237.318 259.98 237.886 258.571 239.023C257.177 240.159 256.139 241.667 255.457 243.545C254.791 245.409 254.457 247.455 254.457 249.682C254.457 251.924 254.791 253.977 255.457 255.841C256.139 257.705 257.177 259.197 258.571 260.318C259.98 261.439 261.753 262 263.889 262ZM290.832 280.091C289.817 280.091 288.893 280.008 288.06 279.841C287.226 279.689 286.605 279.523 286.196 279.341L287.832 273.773C289.075 274.106 290.181 274.25 291.151 274.205C292.12 274.159 292.976 273.795 293.719 273.114C294.476 272.432 295.143 271.318 295.719 269.773L296.56 267.455L283.787 232.091H291.06L299.901 259.182H300.264L309.105 232.091H316.401L302.014 271.659C301.348 273.477 300.499 275.015 299.469 276.273C298.438 277.545 297.211 278.5 295.787 279.136C294.363 279.773 292.711 280.091 290.832 280.091Z" fill="#592D1D" fill-opacity="0.35"/>
<path d="M121.261 455.295H117.716C117.58 454.538 117.326 453.871 116.955 453.295C116.583 452.72 116.129 452.231 115.591 451.83C115.053 451.428 114.451 451.125 113.784 450.92C113.125 450.716 112.424 450.614 111.682 450.614C110.341 450.614 109.14 450.951 108.08 451.625C107.027 452.299 106.193 453.288 105.58 454.591C104.973 455.894 104.67 457.485 104.67 459.364C104.67 461.258 104.973 462.856 105.58 464.159C106.193 465.462 107.03 466.447 108.091 467.114C109.152 467.78 110.345 468.114 111.67 468.114C112.405 468.114 113.102 468.015 113.761 467.818C114.428 467.614 115.03 467.314 115.568 466.92C116.106 466.527 116.561 466.045 116.932 465.477C117.311 464.902 117.572 464.242 117.716 463.5L121.261 463.511C121.072 464.655 120.705 465.708 120.159 466.67C119.621 467.625 118.928 468.451 118.08 469.148C117.239 469.837 116.277 470.371 115.193 470.75C114.11 471.129 112.928 471.318 111.648 471.318C109.633 471.318 107.837 470.841 106.261 469.886C104.686 468.924 103.443 467.549 102.534 465.761C101.633 463.973 101.182 461.841 101.182 459.364C101.182 456.879 101.636 454.746 102.545 452.966C103.455 451.178 104.697 449.807 106.273 448.852C107.848 447.89 109.64 447.409 111.648 447.409C112.883 447.409 114.034 447.587 115.102 447.943C116.178 448.292 117.144 448.807 118 449.489C118.856 450.163 119.564 450.989 120.125 451.966C120.686 452.936 121.064 454.045 121.261 455.295ZM132.543 471.352C130.906 471.352 129.478 470.977 128.259 470.227C127.039 469.477 126.092 468.428 125.418 467.08C124.743 465.731 124.406 464.155 124.406 462.352C124.406 460.542 124.743 458.958 125.418 457.602C126.092 456.246 127.039 455.193 128.259 454.443C129.478 453.693 130.906 453.318 132.543 453.318C134.179 453.318 135.607 453.693 136.827 454.443C138.046 455.193 138.993 456.246 139.668 457.602C140.342 458.958 140.679 460.542 140.679 462.352C140.679 464.155 140.342 465.731 139.668 467.08C138.993 468.428 138.046 469.477 136.827 470.227C135.607 470.977 134.179 471.352 132.543 471.352ZM132.554 468.5C133.615 468.5 134.493 468.22 135.19 467.659C135.887 467.098 136.402 466.352 136.736 465.42C137.077 464.489 137.247 463.462 137.247 462.341C137.247 461.227 137.077 460.205 136.736 459.273C136.402 458.333 135.887 457.58 135.19 457.011C134.493 456.443 133.615 456.159 132.554 456.159C131.486 456.159 130.599 456.443 129.895 457.011C129.198 457.58 128.679 458.333 128.338 459.273C128.005 460.205 127.838 461.227 127.838 462.341C127.838 463.462 128.005 464.489 128.338 465.42C128.679 466.352 129.198 467.098 129.895 467.659C130.599 468.22 131.486 468.5 132.554 468.5ZM144.472 471V453.545H147.733V456.386H147.949C148.313 455.424 148.907 454.674 149.733 454.136C150.559 453.591 151.547 453.318 152.699 453.318C153.866 453.318 154.843 453.591 155.631 454.136C156.426 454.682 157.013 455.432 157.392 456.386H157.574C157.991 455.455 158.653 454.712 159.562 454.159C160.472 453.598 161.555 453.318 162.812 453.318C164.396 453.318 165.688 453.814 166.688 454.807C167.695 455.799 168.199 457.295 168.199 459.295V471H164.801V459.614C164.801 458.432 164.479 457.576 163.835 457.045C163.191 456.515 162.422 456.25 161.528 456.25C160.422 456.25 159.562 456.591 158.949 457.273C158.335 457.947 158.028 458.814 158.028 459.875V471H154.642V459.398C154.642 458.451 154.347 457.689 153.756 457.114C153.165 456.538 152.396 456.25 151.449 456.25C150.805 456.25 150.21 456.42 149.665 456.761C149.127 457.095 148.691 457.561 148.358 458.159C148.032 458.758 147.869 459.451 147.869 460.239V471H144.472ZM172.753 471V453.545H176.151V471H172.753ZM174.469 450.852C173.878 450.852 173.37 450.655 172.946 450.261C172.529 449.86 172.321 449.383 172.321 448.83C172.321 448.269 172.529 447.792 172.946 447.398C173.37 446.996 173.878 446.795 174.469 446.795C175.06 446.795 175.563 446.996 175.98 447.398C176.404 447.792 176.616 448.269 176.616 448.83C176.616 449.383 176.404 449.86 175.98 450.261C175.563 450.655 175.06 450.852 174.469 450.852ZM184.119 460.636V471H180.722V453.545H183.983V456.386H184.199C184.6 455.462 185.229 454.72 186.085 454.159C186.949 453.598 188.036 453.318 189.347 453.318C190.536 453.318 191.578 453.568 192.472 454.068C193.366 454.561 194.059 455.295 194.551 456.273C195.044 457.25 195.29 458.458 195.29 459.898V471H191.892V460.307C191.892 459.042 191.563 458.053 190.903 457.341C190.244 456.621 189.339 456.261 188.188 456.261C187.4 456.261 186.699 456.432 186.085 456.773C185.479 457.114 184.998 457.614 184.642 458.273C184.294 458.924 184.119 459.712 184.119 460.636ZM207.165 477.909C205.778 477.909 204.585 477.727 203.585 477.364C202.593 477 201.782 476.519 201.153 475.92C200.525 475.322 200.055 474.667 199.744 473.955L202.665 472.75C202.869 473.083 203.142 473.436 203.483 473.807C203.831 474.186 204.301 474.508 204.892 474.773C205.491 475.038 206.259 475.17 207.199 475.17C208.487 475.17 209.551 474.856 210.392 474.227C211.233 473.606 211.653 472.614 211.653 471.25V467.818H211.438C211.233 468.189 210.938 468.602 210.551 469.057C210.172 469.511 209.65 469.905 208.983 470.239C208.316 470.572 207.449 470.739 206.381 470.739C205.002 470.739 203.759 470.417 202.653 469.773C201.555 469.121 200.684 468.163 200.04 466.898C199.403 465.625 199.085 464.061 199.085 462.205C199.085 460.348 199.4 458.758 200.028 457.432C200.665 456.106 201.536 455.091 202.642 454.386C203.748 453.674 205.002 453.318 206.403 453.318C207.487 453.318 208.362 453.5 209.028 453.864C209.695 454.22 210.214 454.636 210.585 455.114C210.964 455.591 211.256 456.011 211.46 456.375H211.71V453.545H215.04V471.386C215.04 472.886 214.691 474.117 213.994 475.08C213.297 476.042 212.354 476.754 211.165 477.216C209.983 477.678 208.65 477.909 207.165 477.909ZM207.131 467.92C208.108 467.92 208.934 467.693 209.608 467.239C210.29 466.777 210.805 466.117 211.153 465.261C211.509 464.398 211.688 463.364 211.688 462.159C211.688 460.985 211.513 459.951 211.165 459.057C210.816 458.163 210.305 457.466 209.631 456.966C208.956 456.458 208.123 456.205 207.131 456.205C206.108 456.205 205.256 456.47 204.574 457C203.892 457.523 203.377 458.235 203.028 459.136C202.688 460.038 202.517 461.045 202.517 462.159C202.517 463.303 202.691 464.307 203.04 465.17C203.388 466.034 203.903 466.708 204.585 467.193C205.275 467.678 206.123 467.92 207.131 467.92ZM241.145 457.807L238.065 458.352C237.937 457.958 237.732 457.583 237.452 457.227C237.179 456.871 236.808 456.58 236.338 456.352C235.868 456.125 235.281 456.011 234.577 456.011C233.615 456.011 232.812 456.227 232.168 456.659C231.524 457.083 231.202 457.633 231.202 458.307C231.202 458.89 231.418 459.36 231.849 459.716C232.281 460.072 232.978 460.364 233.94 460.591L236.713 461.227C238.319 461.598 239.516 462.17 240.304 462.943C241.092 463.716 241.486 464.72 241.486 465.955C241.486 467 241.183 467.932 240.577 468.75C239.978 469.561 239.141 470.197 238.065 470.659C236.997 471.121 235.759 471.352 234.349 471.352C232.395 471.352 230.8 470.936 229.565 470.102C228.33 469.261 227.573 468.068 227.293 466.523L230.577 466.023C230.781 466.879 231.202 467.527 231.838 467.966C232.474 468.398 233.304 468.614 234.327 468.614C235.44 468.614 236.33 468.383 236.997 467.92C237.664 467.451 237.997 466.879 237.997 466.205C237.997 465.659 237.793 465.201 237.384 464.83C236.982 464.458 236.365 464.178 235.531 463.989L232.577 463.341C230.948 462.97 229.743 462.379 228.963 461.568C228.19 460.758 227.804 459.731 227.804 458.489C227.804 457.458 228.092 456.557 228.668 455.784C229.243 455.011 230.039 454.409 231.054 453.977C232.069 453.538 233.232 453.318 234.543 453.318C236.429 453.318 237.914 453.727 238.997 454.545C240.08 455.356 240.796 456.443 241.145 457.807ZM252.574 471.352C250.938 471.352 249.509 470.977 248.29 470.227C247.07 469.477 246.123 468.428 245.449 467.08C244.775 465.731 244.438 464.155 244.438 462.352C244.438 460.542 244.775 458.958 245.449 457.602C246.123 456.246 247.07 455.193 248.29 454.443C249.509 453.693 250.938 453.318 252.574 453.318C254.21 453.318 255.638 453.693 256.858 454.443C258.078 455.193 259.025 456.246 259.699 457.602C260.373 458.958 260.71 460.542 260.71 462.352C260.71 464.155 260.373 465.731 259.699 467.08C259.025 468.428 258.078 469.477 256.858 470.227C255.638 470.977 254.21 471.352 252.574 471.352ZM252.585 468.5C253.646 468.5 254.525 468.22 255.222 467.659C255.919 467.098 256.434 466.352 256.767 465.42C257.108 464.489 257.278 463.462 257.278 462.341C257.278 461.227 257.108 460.205 256.767 459.273C256.434 458.333 255.919 457.58 255.222 457.011C254.525 456.443 253.646 456.159 252.585 456.159C251.517 456.159 250.631 456.443 249.926 457.011C249.229 457.58 248.71 458.333 248.369 459.273C248.036 460.205 247.869 461.227 247.869 462.341C247.869 463.462 248.036 464.489 248.369 465.42C248.71 466.352 249.229 467.098 249.926 467.659C250.631 468.22 251.517 468.5 252.585 468.5ZM271.855 471.352C270.219 471.352 268.791 470.977 267.571 470.227C266.351 469.477 265.404 468.428 264.73 467.08C264.056 465.731 263.719 464.155 263.719 462.352C263.719 460.542 264.056 458.958 264.73 457.602C265.404 456.246 266.351 455.193 267.571 454.443C268.791 453.693 270.219 453.318 271.855 453.318C273.491 453.318 274.92 453.693 276.139 454.443C277.359 455.193 278.306 456.246 278.98 457.602C279.654 458.958 279.991 460.542 279.991 462.352C279.991 464.155 279.654 465.731 278.98 467.08C278.306 468.428 277.359 469.477 276.139 470.227C274.92 470.977 273.491 471.352 271.855 471.352ZM271.866 468.5C272.927 468.5 273.806 468.22 274.503 467.659C275.2 467.098 275.715 466.352 276.048 465.42C276.389 464.489 276.56 463.462 276.56 462.341C276.56 461.227 276.389 460.205 276.048 459.273C275.715 458.333 275.2 457.58 274.503 457.011C273.806 456.443 272.927 456.159 271.866 456.159C270.798 456.159 269.912 456.443 269.207 457.011C268.51 457.58 267.991 458.333 267.651 459.273C267.317 460.205 267.151 461.227 267.151 462.341C267.151 463.462 267.317 464.489 267.651 465.42C267.991 466.352 268.51 467.098 269.207 467.659C269.912 468.22 270.798 468.5 271.866 468.5ZM287.182 460.636V471H283.784V453.545H287.045V456.386H287.261C287.663 455.462 288.292 454.72 289.148 454.159C290.011 453.598 291.098 453.318 292.409 453.318C293.598 453.318 294.64 453.568 295.534 454.068C296.428 454.561 297.121 455.295 297.614 456.273C298.106 457.25 298.352 458.458 298.352 459.898V471H294.955V460.307C294.955 459.042 294.625 458.053 293.966 457.341C293.307 456.621 292.402 456.261 291.25 456.261C290.462 456.261 289.761 456.432 289.148 456.773C288.542 457.114 288.061 457.614 287.705 458.273C287.356 458.924 287.182 459.712 287.182 460.636Z" fill="#592D1D" fill-opacity="0.45"/>
</svg>
