<svg width="900" height="1200" viewBox="0 0 900 1200" fill="none" xmlns="http://www.w3.org/2000/svg">
<rect width="900" height="1200" fill="#FFF9F3"/>
<path d="M237.835 646L217.29 576.182H231.335L245.017 627.455H245.699L259.426 576.182H273.472L287.108 627.227H287.79L301.381 576.182H315.426L294.926 646H281.062L266.881 595.591H265.835L251.653 646H237.835ZM355.608 647.409C349.063 647.409 343.35 645.909 338.472 642.909C333.593 639.909 329.805 635.712 327.108 630.318C324.411 624.924 323.062 618.621 323.062 611.409C323.062 604.167 324.411 597.833 327.108 592.409C329.805 586.985 333.593 582.773 338.472 579.773C343.35 576.773 349.063 575.273 355.608 575.273C362.153 575.273 367.866 576.773 372.744 579.773C377.623 582.773 381.411 586.985 384.108 592.409C386.805 597.833 388.153 604.167 388.153 611.409C388.153 618.621 386.805 624.924 384.108 630.318C381.411 635.712 377.623 639.909 372.744 642.909C367.866 645.909 362.153 647.409 355.608 647.409ZM355.653 636C359.896 636 363.411 634.879 366.199 632.636C368.987 630.394 371.047 627.409 372.381 623.682C373.744 619.955 374.426 615.848 374.426 611.364C374.426 606.909 373.744 602.818 372.381 599.091C371.047 595.333 368.987 592.318 366.199 590.045C363.411 587.773 359.896 586.636 355.653 586.636C351.381 586.636 347.835 587.773 345.017 590.045C342.229 592.318 340.153 595.333 338.79 599.091C337.456 602.818 336.79 606.909 336.79 611.364C336.79 615.848 337.456 619.955 338.79 623.682C340.153 627.409 342.229 630.394 345.017 632.636C347.835 634.879 351.381 636 355.653 636ZM403.324 646V576.182H416.369V587.545H417.233C418.688 583.697 421.066 580.697 424.369 578.545C427.672 576.364 431.627 575.273 436.233 575.273C440.9 575.273 444.809 576.364 447.96 578.545C451.142 580.727 453.491 583.727 455.006 587.545H455.733C457.4 583.818 460.051 580.848 463.688 578.636C467.324 576.394 471.657 575.273 476.688 575.273C483.021 575.273 488.188 577.258 492.188 581.227C496.218 585.197 498.233 591.182 498.233 599.182V646H484.642V600.455C484.642 595.727 483.354 592.303 480.778 590.182C478.203 588.061 475.127 587 471.551 587C467.127 587 463.688 588.364 461.233 591.091C458.778 593.788 457.551 597.258 457.551 601.5V646H444.006V599.591C444.006 595.803 442.824 592.758 440.46 590.455C438.097 588.152 435.021 587 431.233 587C428.657 587 426.278 587.682 424.097 589.045C421.945 590.379 420.203 592.242 418.869 594.636C417.566 597.03 416.915 599.803 416.915 602.955V646H403.324ZM516.449 576.182H530.04V650.545C530.04 655.212 529.191 659.152 527.494 662.364C525.828 665.576 523.343 668.015 520.04 669.682C516.767 671.348 512.722 672.182 507.903 672.182C507.419 672.182 506.964 672.182 506.54 672.182C506.085 672.182 505.616 672.167 505.131 672.136V660.455C505.555 660.455 505.934 660.455 506.267 660.455C506.57 660.455 506.919 660.455 507.312 660.455C510.525 660.455 512.843 659.591 514.267 657.864C515.722 656.167 516.449 653.697 516.449 650.455V576.182ZM523.176 565.409C520.813 565.409 518.782 564.621 517.085 563.045C515.419 561.439 514.585 559.53 514.585 557.318C514.585 555.076 515.419 553.167 517.085 551.591C518.782 549.985 520.813 549.182 523.176 549.182C525.54 549.182 527.555 549.985 529.222 551.591C530.919 553.167 531.767 555.076 531.767 557.318C531.767 559.53 530.919 561.439 529.222 563.045C527.555 564.621 525.54 565.409 523.176 565.409ZM577.733 647.409C571.188 647.409 565.475 645.909 560.597 642.909C555.718 639.909 551.93 635.712 549.233 630.318C546.536 624.924 545.188 618.621 545.188 611.409C545.188 604.167 546.536 597.833 549.233 592.409C551.93 586.985 555.718 582.773 560.597 579.773C565.475 576.773 571.188 575.273 577.733 575.273C584.278 575.273 589.991 576.773 594.869 579.773C599.748 582.773 603.536 586.985 606.233 592.409C608.93 597.833 610.278 604.167 610.278 611.409C610.278 618.621 608.93 624.924 606.233 630.318C603.536 635.712 599.748 639.909 594.869 642.909C589.991 645.909 584.278 647.409 577.733 647.409ZM577.778 636C582.021 636 585.536 634.879 588.324 632.636C591.112 630.394 593.172 627.409 594.506 623.682C595.869 619.955 596.551 615.848 596.551 611.364C596.551 606.909 595.869 602.818 594.506 599.091C593.172 595.333 591.112 592.318 588.324 590.045C585.536 587.773 582.021 586.636 577.778 586.636C573.506 586.636 569.96 587.773 567.142 590.045C564.354 592.318 562.278 595.333 560.915 599.091C559.581 602.818 558.915 606.909 558.915 611.364C558.915 615.848 559.581 619.955 560.915 623.682C562.278 627.409 564.354 630.394 567.142 632.636C569.96 634.879 573.506 636 577.778 636ZM631.665 672.182C629.634 672.182 627.786 672.015 626.119 671.682C624.453 671.379 623.21 671.045 622.392 670.682L625.665 659.545C628.15 660.212 630.362 660.5 632.301 660.409C634.241 660.318 635.953 659.591 637.438 658.227C638.953 656.864 640.286 654.636 641.438 651.545L643.119 646.909L617.574 576.182H632.119L649.801 630.364H650.528L668.21 576.182H682.801L654.028 655.318C652.695 658.955 650.998 662.03 648.938 664.545C646.877 667.091 644.422 669 641.574 670.273C638.725 671.545 635.422 672.182 631.665 672.182Z" fill="#592D1D" fill-opacity="0.45"/>
<path d="M342.116 800V765.091H347.384V795.466H363.202V800H342.116ZM379.83 800.528C377.375 800.528 375.233 799.966 373.403 798.841C371.574 797.716 370.153 796.142 369.142 794.119C368.131 792.097 367.625 789.733 367.625 787.028C367.625 784.312 368.131 781.937 369.142 779.903C370.153 777.869 371.574 776.29 373.403 775.165C375.233 774.04 377.375 773.477 379.83 773.477C382.284 773.477 384.426 774.04 386.256 775.165C388.085 776.29 389.506 777.869 390.517 779.903C391.528 781.937 392.034 784.312 392.034 787.028C392.034 789.733 391.528 792.097 390.517 794.119C389.506 796.142 388.085 797.716 386.256 798.841C384.426 799.966 382.284 800.528 379.83 800.528ZM379.847 796.25C381.438 796.25 382.756 795.83 383.801 794.989C384.847 794.148 385.619 793.028 386.119 791.631C386.631 790.233 386.886 788.693 386.886 787.011C386.886 785.341 386.631 783.807 386.119 782.409C385.619 781 384.847 779.869 383.801 779.017C382.756 778.165 381.438 777.739 379.847 777.739C378.244 777.739 376.915 778.165 375.858 779.017C374.813 779.869 374.034 781 373.523 782.409C373.023 783.807 372.773 785.341 372.773 787.011C372.773 788.693 373.023 790.233 373.523 791.631C374.034 793.028 374.813 794.148 375.858 794.989C376.915 795.83 378.244 796.25 379.847 796.25ZM405.342 800.58C403.683 800.58 402.183 800.273 400.842 799.659C399.501 799.034 398.439 798.131 397.655 796.949C396.882 795.767 396.496 794.318 396.496 792.602C396.496 791.125 396.78 789.909 397.348 788.955C397.916 788 398.683 787.244 399.649 786.688C400.615 786.131 401.695 785.71 402.888 785.426C404.081 785.142 405.297 784.926 406.536 784.778C408.104 784.597 409.376 784.449 410.354 784.335C411.331 784.21 412.041 784.011 412.484 783.739C412.928 783.466 413.149 783.023 413.149 782.409V782.29C413.149 780.801 412.729 779.648 411.888 778.83C411.058 778.011 409.82 777.602 408.172 777.602C406.456 777.602 405.104 777.983 404.115 778.744C403.138 779.494 402.462 780.33 402.087 781.25L397.297 780.159C397.865 778.568 398.695 777.284 399.786 776.307C400.888 775.318 402.155 774.602 403.587 774.159C405.018 773.705 406.524 773.477 408.104 773.477C409.149 773.477 410.257 773.602 411.428 773.852C412.609 774.091 413.712 774.534 414.734 775.182C415.768 775.83 416.615 776.756 417.274 777.96C417.933 779.153 418.263 780.705 418.263 782.614V800H413.286V796.42H413.081C412.751 797.08 412.257 797.727 411.598 798.364C410.939 799 410.092 799.528 409.058 799.949C408.024 800.369 406.786 800.58 405.342 800.58ZM406.45 796.489C407.859 796.489 409.064 796.21 410.064 795.653C411.075 795.097 411.842 794.369 412.365 793.472C412.899 792.562 413.166 791.591 413.166 790.557V787.182C412.984 787.364 412.632 787.534 412.109 787.693C411.598 787.841 411.013 787.972 410.354 788.085C409.695 788.187 409.053 788.284 408.428 788.375C407.803 788.455 407.28 788.523 406.859 788.58C405.871 788.705 404.967 788.915 404.149 789.21C403.342 789.506 402.695 789.932 402.206 790.489C401.729 791.034 401.49 791.761 401.49 792.67C401.49 793.932 401.956 794.886 402.888 795.534C403.82 796.17 405.007 796.489 406.45 796.489ZM434.852 800.511C432.739 800.511 430.852 799.972 429.193 798.892C427.545 797.801 426.25 796.25 425.307 794.239C424.375 792.216 423.909 789.79 423.909 786.96C423.909 784.131 424.381 781.71 425.324 779.699C426.278 777.687 427.585 776.148 429.244 775.08C430.903 774.011 432.784 773.477 434.886 773.477C436.511 773.477 437.818 773.75 438.807 774.295C439.807 774.83 440.58 775.455 441.125 776.17C441.682 776.886 442.114 777.517 442.42 778.062H442.727V765.091H447.824V800H442.847V795.926H442.42C442.114 796.483 441.67 797.119 441.091 797.835C440.523 798.551 439.739 799.176 438.739 799.71C437.739 800.244 436.443 800.511 434.852 800.511ZM435.977 796.165C437.443 796.165 438.682 795.778 439.693 795.006C440.716 794.222 441.489 793.136 442.011 791.75C442.545 790.364 442.812 788.75 442.812 786.909C442.812 785.091 442.551 783.5 442.028 782.136C441.506 780.773 440.739 779.71 439.727 778.949C438.716 778.187 437.466 777.807 435.977 777.807C434.443 777.807 433.165 778.205 432.142 779C431.119 779.795 430.347 780.881 429.824 782.256C429.313 783.631 429.057 785.182 429.057 786.909C429.057 788.659 429.318 790.233 429.841 791.631C430.364 793.028 431.136 794.136 432.159 794.955C433.193 795.761 434.466 796.165 435.977 796.165ZM455.098 800V773.818H460.195V800H455.098ZM457.672 769.778C456.786 769.778 456.024 769.483 455.388 768.892C454.763 768.29 454.45 767.574 454.45 766.744C454.45 765.903 454.763 765.187 455.388 764.597C456.024 763.994 456.786 763.693 457.672 763.693C458.558 763.693 459.314 763.994 459.939 764.597C460.575 765.187 460.893 765.903 460.893 766.744C460.893 767.574 460.575 768.29 459.939 768.892C459.314 769.483 458.558 769.778 457.672 769.778ZM472.148 784.455V800H467.051V773.818H471.943V778.08H472.267C472.869 776.693 473.813 775.58 475.097 774.739C476.392 773.898 478.023 773.477 479.989 773.477C481.773 773.477 483.335 773.852 484.676 774.602C486.017 775.341 487.057 776.443 487.795 777.909C488.534 779.375 488.903 781.187 488.903 783.347V800H483.807V783.96C483.807 782.062 483.313 780.58 482.324 779.511C481.335 778.432 479.977 777.892 478.25 777.892C477.068 777.892 476.017 778.148 475.097 778.659C474.188 779.17 473.466 779.92 472.932 780.909C472.409 781.886 472.148 783.068 472.148 784.455ZM506.716 810.364C504.636 810.364 502.847 810.091 501.347 809.545C499.858 809 498.642 808.278 497.699 807.381C496.756 806.483 496.051 805.5 495.585 804.432L499.966 802.625C500.273 803.125 500.682 803.653 501.193 804.21C501.716 804.778 502.42 805.261 503.307 805.659C504.205 806.057 505.358 806.256 506.767 806.256C508.699 806.256 510.295 805.784 511.557 804.841C512.818 803.909 513.449 802.42 513.449 800.375V795.227H513.125C512.818 795.784 512.375 796.403 511.795 797.085C511.227 797.767 510.443 798.358 509.443 798.858C508.443 799.358 507.142 799.608 505.54 799.608C503.472 799.608 501.608 799.125 499.949 798.159C498.301 797.182 496.994 795.744 496.028 793.847C495.074 791.937 494.597 789.591 494.597 786.807C494.597 784.023 495.068 781.636 496.011 779.648C496.966 777.659 498.273 776.136 499.932 775.08C501.591 774.011 503.472 773.477 505.574 773.477C507.199 773.477 508.511 773.75 509.511 774.295C510.511 774.83 511.29 775.455 511.847 776.17C512.415 776.886 512.852 777.517 513.159 778.062H513.534V773.818H518.528V800.58C518.528 802.83 518.006 804.676 516.96 806.119C515.915 807.563 514.5 808.631 512.716 809.324C510.943 810.017 508.943 810.364 506.716 810.364ZM506.665 795.381C508.131 795.381 509.369 795.04 510.381 794.358C511.403 793.665 512.176 792.676 512.699 791.392C513.233 790.097 513.5 788.545 513.5 786.739C513.5 784.977 513.239 783.426 512.716 782.085C512.193 780.744 511.426 779.699 510.415 778.949C509.403 778.187 508.153 777.807 506.665 777.807C505.131 777.807 503.852 778.205 502.83 779C501.807 779.784 501.034 780.852 500.511 782.205C500 783.557 499.744 785.068 499.744 786.739C499.744 788.455 500.006 789.96 500.528 791.256C501.051 792.551 501.824 793.562 502.847 794.29C503.881 795.017 505.153 795.381 506.665 795.381ZM528.722 800.324C527.79 800.324 526.989 799.994 526.318 799.335C525.648 798.665 525.312 797.858 525.312 796.915C525.312 795.983 525.648 795.187 526.318 794.528C526.989 793.858 527.79 793.523 528.722 793.523C529.653 793.523 530.455 793.858 531.125 794.528C531.795 795.187 532.131 795.983 532.131 796.915C532.131 797.54 531.972 798.114 531.653 798.636C531.347 799.148 530.938 799.557 530.426 799.864C529.915 800.17 529.347 800.324 528.722 800.324ZM542.315 800.324C541.384 800.324 540.582 799.994 539.912 799.335C539.241 798.665 538.906 797.858 538.906 796.915C538.906 795.983 539.241 795.187 539.912 794.528C540.582 793.858 541.384 793.523 542.315 793.523C543.247 793.523 544.048 793.858 544.719 794.528C545.389 795.187 545.724 795.983 545.724 796.915C545.724 797.54 545.565 798.114 545.247 798.636C544.94 799.148 544.531 799.557 544.02 799.864C543.509 800.17 542.94 800.324 542.315 800.324ZM555.909 800.324C554.977 800.324 554.176 799.994 553.506 799.335C552.835 798.665 552.5 797.858 552.5 796.915C552.5 795.983 552.835 795.187 553.506 794.528C554.176 793.858 554.977 793.523 555.909 793.523C556.841 793.523 557.642 793.858 558.312 794.528C558.983 795.187 559.318 795.983 559.318 796.915C559.318 797.54 559.159 798.114 558.841 798.636C558.534 799.148 558.125 799.557 557.614 799.864C557.102 800.17 556.534 800.324 555.909 800.324Z" fill="#592D1D" fill-opacity="0.45"/>
</svg>
