<svg width="25" height="24" viewBox="0 0 25 24" fill="none" xmlns="http://www.w3.org/2000/svg">
<path fill-rule="evenodd" clip-rule="evenodd" d="M12.5 12.75C9.04822 12.75 6.25 15.5482 6.25 19V20C6.25 20.4142 5.91421 20.75 5.5 20.75C5.08579 20.75 4.75 20.4142 4.75 20V19C4.75 14.7198 8.21979 11.25 12.5 11.25C16.7802 11.25 20.25 14.7198 20.25 19V20C20.25 20.4142 19.9142 20.75 19.5 20.75C19.0858 20.75 18.75 20.4142 18.75 20V19C18.75 15.5482 15.9518 12.75 12.5 12.75Z" fill="#2F2B43"/>
<path fill-rule="evenodd" clip-rule="evenodd" d="M12.5 4.75C10.7051 4.75 9.25 6.20507 9.25 8C9.25 9.79493 10.7051 11.25 12.5 11.25C14.2949 11.25 15.75 9.79493 15.75 8C15.75 6.20507 14.2949 4.75 12.5 4.75ZM7.75 8C7.75 5.37665 9.87665 3.25 12.5 3.25C15.1234 3.25 17.25 5.37665 17.25 8C17.25 10.6234 15.1234 12.75 12.5 12.75C9.87665 12.75 7.75 10.6234 7.75 8Z" fill="#2F2B43"/>
</svg>
