<svg width="24" height="24" viewBox="0 0 24 24" fill="none" xmlns="http://www.w3.org/2000/svg">
<path d="M12.0007 10.5857L16.2437 6.34274C16.6342 5.95228 17.2673 5.95228 17.6577 6.34274C18.0482 6.73321 18.0482 7.36628 17.6577 7.75674L13.4147 11.9997L17.6577 16.2427C18.0482 16.6332 18.0482 17.2663 17.6577 17.6567C17.2673 18.0472 16.6342 18.0472 16.2437 17.6567L12.0007 13.4137L7.75772 17.6567C7.36725 18.0472 6.73418 18.0472 6.34372 17.6567C5.95325 17.2663 5.95325 16.6332 6.34372 16.2427L10.5867 11.9997L6.34372 7.75674C5.95325 7.36628 5.95325 6.73321 6.34372 6.34274C6.73418 5.95228 7.36725 5.95228 7.75772 6.34274L12.0007 10.5857Z" fill="#F04438"/>
</svg>
