<svg width="20" height="20" viewBox="0 0 20 20" fill="none" xmlns="http://www.w3.org/2000/svg">
<path fill-rule="evenodd" clip-rule="evenodd" d="M2.63398 6.46445L13.5352 17.3657L17.3654 13.5355L15.303 11.4731L13.9771 12.7989C13.7331 13.043 13.3373 13.043 13.0933 12.7989C12.8492 12.5549 12.8492 12.1591 13.0933 11.9151L14.4191 10.5892L12.3567 8.52684L11.0309 9.85267C10.7868 10.0967 10.3911 10.0967 10.147 9.85267C9.90291 9.60859 9.90291 9.21286 10.147 8.96878L11.4728 7.64296L9.41042 5.58056L8.08459 6.90639C7.84051 7.15047 7.44479 7.15047 7.20071 6.90639C6.95663 6.66231 6.95663 6.26658 7.20071 6.02251L8.52653 4.69668L6.46414 2.63429L2.63398 6.46445ZM1.66171 7.25994C1.22237 6.8206 1.22237 6.10829 1.66171 5.66895L5.66864 1.66201C6.10798 1.22267 6.82029 1.22267 7.25963 1.66201L18.3376 12.74C18.777 13.1794 18.777 13.8917 18.3376 14.331L14.3307 18.3379C13.8914 18.7773 13.1791 18.7773 12.7397 18.3379L1.66171 7.25994Z" fill="#2F2B43"/>
</svg>
