<svg width="25" height="24" viewBox="0 0 25 24" fill="none" xmlns="http://www.w3.org/2000/svg">
<path fill-rule="evenodd" clip-rule="evenodd" d="M11.75 10.9874L3.19543 7.18536L3.80464 5.81464L12.5 9.67926L21.1954 5.81464L21.8046 7.18536L13.25 10.9874V21.5H11.75V10.9874Z" fill="#2F2B43"/>
<path fill-rule="evenodd" clip-rule="evenodd" d="M11.9517 1.92295C12.3008 1.76781 12.6992 1.76781 13.0483 1.92295L21.4483 5.65628C21.9358 5.87296 22.25 6.35642 22.25 6.88992V17.1101C22.25 17.6436 21.9358 18.127 21.4483 18.3437L13.0483 22.0771C12.6992 22.2322 12.3008 22.2322 11.9517 22.0771L3.55171 18.3437C3.06419 18.127 2.75 17.6436 2.75 17.1101V6.88992C2.75 6.35642 3.06419 5.87296 3.55171 5.65628L11.9517 1.92295ZM4.25 6.98741V17.0126L12.5 20.6793L20.75 17.0126V6.9874L12.5 3.32074L4.25 6.98741Z" fill="#2F2B43"/>
<path fill-rule="evenodd" clip-rule="evenodd" d="M7.31458 4.1954C7.48281 3.81688 7.92603 3.64641 8.30455 3.81464L16.9482 7.65628C17.4358 7.87295 17.7499 8.35642 17.7499 8.88992V12.5C17.7499 12.9142 17.4142 13.25 16.9999 13.25C16.5857 13.25 16.2499 12.9142 16.2499 12.5V8.9874L7.69534 5.18536C7.31683 5.01713 7.14636 4.57391 7.31458 4.1954Z" fill="#2F2B43"/>
</svg>
