<svg width="400" height="533" viewBox="0 0 400 533" fill="none" xmlns="http://www.w3.org/2000/svg">
<rect width="400" height="533" fill="#FFF9F3"/>
<path d="M93.9176 267L83.6449 232.091H90.6676L97.5085 257.727H97.8494L104.713 232.091H111.736L118.554 257.614H118.895L125.69 232.091H132.713L122.463 267H115.531L108.44 241.795H107.918L100.827 267H93.9176ZM152.804 267.705C149.531 267.705 146.675 266.955 144.236 265.455C141.796 263.955 139.902 261.856 138.554 259.159C137.205 256.462 136.531 253.311 136.531 249.705C136.531 246.083 137.205 242.917 138.554 240.205C139.902 237.492 141.796 235.386 144.236 233.886C146.675 232.386 149.531 231.636 152.804 231.636C156.077 231.636 158.933 232.386 161.372 233.886C163.812 235.386 165.705 237.492 167.054 240.205C168.402 242.917 169.077 246.083 169.077 249.705C169.077 253.311 168.402 256.462 167.054 259.159C165.705 261.856 163.812 263.955 161.372 265.455C158.933 266.955 156.077 267.705 152.804 267.705ZM152.827 262C154.948 262 156.705 261.439 158.099 260.318C159.493 259.197 160.524 257.705 161.19 255.841C161.872 253.977 162.213 251.924 162.213 249.682C162.213 247.455 161.872 245.409 161.19 243.545C160.524 241.667 159.493 240.159 158.099 239.023C156.705 237.886 154.948 237.318 152.827 237.318C150.69 237.318 148.918 237.886 147.509 239.023C146.115 240.159 145.077 241.667 144.395 243.545C143.728 245.409 143.395 247.455 143.395 249.682C143.395 251.924 143.728 253.977 144.395 255.841C145.077 257.705 146.115 259.197 147.509 260.318C148.918 261.439 150.69 262 152.827 262ZM176.662 267V232.091H183.185V237.773H183.616C184.344 235.848 185.533 234.348 187.185 233.273C188.836 232.182 190.813 231.636 193.116 231.636C195.45 231.636 197.404 232.182 198.98 233.273C200.571 234.364 201.745 235.864 202.503 237.773H202.866C203.7 235.909 205.026 234.424 206.844 233.318C208.662 232.197 210.829 231.636 213.344 231.636C216.51 231.636 219.094 232.629 221.094 234.614C223.109 236.598 224.116 239.591 224.116 243.591V267H217.321V244.227C217.321 241.864 216.677 240.152 215.389 239.091C214.101 238.03 212.563 237.5 210.776 237.5C208.563 237.5 206.844 238.182 205.616 239.545C204.389 240.894 203.776 242.629 203.776 244.75V267H197.003V243.795C197.003 241.902 196.412 240.379 195.23 239.227C194.048 238.076 192.51 237.5 190.616 237.5C189.329 237.5 188.139 237.841 187.048 238.523C185.973 239.189 185.101 240.121 184.435 241.318C183.783 242.515 183.457 243.902 183.457 245.477V267H176.662ZM233.224 232.091H240.02V269.273C240.02 271.606 239.596 273.576 238.747 275.182C237.914 276.788 236.671 278.008 235.02 278.841C233.384 279.674 231.361 280.091 228.952 280.091C228.709 280.091 228.482 280.091 228.27 280.091C228.043 280.091 227.808 280.083 227.565 280.068V274.227C227.777 274.227 227.967 274.227 228.134 274.227C228.285 274.227 228.459 274.227 228.656 274.227C230.262 274.227 231.421 273.795 232.134 272.932C232.861 272.083 233.224 270.848 233.224 269.227V232.091ZM236.588 226.705C235.406 226.705 234.391 226.311 233.543 225.523C232.709 224.72 232.293 223.765 232.293 222.659C232.293 221.538 232.709 220.583 233.543 219.795C234.391 218.992 235.406 218.591 236.588 218.591C237.77 218.591 238.777 218.992 239.611 219.795C240.459 220.583 240.884 221.538 240.884 222.659C240.884 223.765 240.459 224.72 239.611 225.523C238.777 226.311 237.77 226.705 236.588 226.705ZM263.866 267.705C260.594 267.705 257.738 266.955 255.298 265.455C252.859 263.955 250.965 261.856 249.616 259.159C248.268 256.462 247.594 253.311 247.594 249.705C247.594 246.083 248.268 242.917 249.616 240.205C250.965 237.492 252.859 235.386 255.298 233.886C257.738 232.386 260.594 231.636 263.866 231.636C267.139 231.636 269.995 232.386 272.435 233.886C274.874 235.386 276.768 237.492 278.116 240.205C279.465 242.917 280.139 246.083 280.139 249.705C280.139 253.311 279.465 256.462 278.116 259.159C276.768 261.856 274.874 263.955 272.435 265.455C269.995 266.955 267.139 267.705 263.866 267.705ZM263.889 262C266.01 262 267.768 261.439 269.162 260.318C270.556 259.197 271.586 257.705 272.253 255.841C272.935 253.977 273.276 251.924 273.276 249.682C273.276 247.455 272.935 245.409 272.253 243.545C271.586 241.667 270.556 240.159 269.162 239.023C267.768 237.886 266.01 237.318 263.889 237.318C261.753 237.318 259.98 237.886 258.571 239.023C257.177 240.159 256.139 241.667 255.457 243.545C254.791 245.409 254.457 247.455 254.457 249.682C254.457 251.924 254.791 253.977 255.457 255.841C256.139 257.705 257.177 259.197 258.571 260.318C259.98 261.439 261.753 262 263.889 262ZM290.832 280.091C289.817 280.091 288.893 280.008 288.06 279.841C287.226 279.689 286.605 279.523 286.196 279.341L287.832 273.773C289.075 274.106 290.181 274.25 291.151 274.205C292.12 274.159 292.976 273.795 293.719 273.114C294.476 272.432 295.143 271.318 295.719 269.773L296.56 267.455L283.787 232.091H291.06L299.901 259.182H300.264L309.105 232.091H316.401L302.014 271.659C301.348 273.477 300.499 275.015 299.469 276.273C298.438 277.545 297.211 278.5 295.787 279.136C294.363 279.773 292.711 280.091 290.832 280.091Z" fill="#592D1D" fill-opacity="0.35"/>
<path d="M120.342 473V446.818H123.513V470.188H135.683V473H120.342ZM148.161 473.409C146.388 473.409 144.832 472.987 143.494 472.143C142.165 471.3 141.125 470.119 140.375 468.602C139.634 467.085 139.263 465.312 139.263 463.284C139.263 461.239 139.634 459.453 140.375 457.928C141.125 456.402 142.165 455.217 143.494 454.374C144.832 453.53 146.388 453.108 148.161 453.108C149.933 453.108 151.484 453.53 152.814 454.374C154.152 455.217 155.192 456.402 155.933 457.928C156.683 459.453 157.058 461.239 157.058 463.284C157.058 465.312 156.683 467.085 155.933 468.602C155.192 470.119 154.152 471.3 152.814 472.143C151.484 472.987 149.933 473.409 148.161 473.409ZM148.161 470.699C149.507 470.699 150.615 470.354 151.484 469.663C152.354 468.973 152.997 468.065 153.415 466.94C153.832 465.815 154.041 464.597 154.041 463.284C154.041 461.972 153.832 460.749 153.415 459.615C152.997 458.482 152.354 457.565 151.484 456.866C150.615 456.168 149.507 455.818 148.161 455.818C146.814 455.818 145.706 456.168 144.837 456.866C143.967 457.565 143.324 458.482 142.906 459.615C142.489 460.749 142.28 461.972 142.28 463.284C142.28 464.597 142.489 465.815 142.906 466.94C143.324 468.065 143.967 468.973 144.837 469.663C145.706 470.354 146.814 470.699 148.161 470.699ZM167.442 473.46C166.198 473.46 165.069 473.226 164.054 472.757C163.04 472.28 162.235 471.594 161.638 470.699C161.042 469.795 160.743 468.705 160.743 467.426C160.743 466.301 160.965 465.389 161.408 464.69C161.851 463.983 162.444 463.429 163.185 463.028C163.926 462.628 164.745 462.33 165.64 462.134C166.543 461.929 167.451 461.767 168.363 461.648C169.556 461.494 170.523 461.379 171.265 461.303C172.015 461.217 172.56 461.077 172.901 460.881C173.25 460.685 173.425 460.344 173.425 459.858V459.756C173.425 458.494 173.08 457.514 172.39 456.815C171.708 456.116 170.672 455.767 169.283 455.767C167.843 455.767 166.713 456.082 165.895 456.713C165.077 457.344 164.502 458.017 164.169 458.733L161.306 457.71C161.817 456.517 162.499 455.588 163.351 454.923C164.212 454.25 165.15 453.781 166.164 453.517C167.186 453.244 168.192 453.108 169.181 453.108C169.811 453.108 170.536 453.185 171.354 453.338C172.181 453.483 172.978 453.786 173.745 454.246C174.52 454.706 175.164 455.401 175.675 456.33C176.186 457.259 176.442 458.503 176.442 460.062V473H173.425V470.341H173.272C173.067 470.767 172.726 471.223 172.249 471.709C171.772 472.195 171.137 472.608 170.344 472.949C169.551 473.29 168.584 473.46 167.442 473.46ZM167.902 470.75C169.096 470.75 170.101 470.516 170.919 470.047C171.746 469.578 172.368 468.973 172.786 468.232C173.212 467.49 173.425 466.71 173.425 465.892V463.131C173.297 463.284 173.016 463.425 172.581 463.553C172.155 463.672 171.661 463.778 171.098 463.872C170.544 463.957 170.003 464.034 169.475 464.102C168.955 464.162 168.533 464.213 168.209 464.256C167.425 464.358 166.692 464.524 166.01 464.754C165.337 464.976 164.792 465.312 164.374 465.764C163.965 466.207 163.76 466.812 163.76 467.58C163.76 468.628 164.148 469.42 164.924 469.957C165.708 470.486 166.701 470.75 167.902 470.75ZM189.364 473.409C187.727 473.409 186.283 472.996 185.03 472.169C183.777 471.334 182.797 470.158 182.089 468.641C181.382 467.115 181.028 465.312 181.028 463.233C181.028 461.17 181.382 459.381 182.089 457.864C182.797 456.347 183.781 455.175 185.043 454.348C186.304 453.521 187.761 453.108 189.415 453.108C190.693 453.108 191.703 453.321 192.445 453.747C193.195 454.165 193.766 454.642 194.158 455.179C194.558 455.707 194.869 456.142 195.091 456.483H195.347V446.818H198.364V473H195.449V469.983H195.091C194.869 470.341 194.554 470.793 194.145 471.338C193.736 471.875 193.152 472.357 192.393 472.783C191.635 473.2 190.625 473.409 189.364 473.409ZM189.773 470.699C190.983 470.699 192.006 470.384 192.841 469.753C193.676 469.114 194.311 468.232 194.746 467.107C195.18 465.973 195.398 464.665 195.398 463.182C195.398 461.716 195.185 460.433 194.759 459.334C194.332 458.226 193.702 457.365 192.866 456.751C192.031 456.129 191 455.818 189.773 455.818C188.494 455.818 187.429 456.146 186.577 456.803C185.733 457.45 185.098 458.332 184.672 459.449C184.254 460.557 184.045 461.801 184.045 463.182C184.045 464.58 184.259 465.849 184.685 466.991C185.119 468.125 185.759 469.028 186.602 469.702C187.455 470.366 188.511 470.699 189.773 470.699ZM204.308 473V453.364H207.325V473H204.308ZM205.842 450.091C205.254 450.091 204.747 449.891 204.321 449.49C203.903 449.089 203.695 448.608 203.695 448.045C203.695 447.483 203.903 447.001 204.321 446.601C204.747 446.2 205.254 446 205.842 446C206.43 446 206.933 446.2 207.351 446.601C207.777 447.001 207.99 447.483 207.99 448.045C207.99 448.608 207.777 449.089 207.351 449.49C206.933 449.891 206.43 450.091 205.842 450.091ZM215.868 461.188V473H212.851V453.364H215.766V456.432H216.022C216.482 455.435 217.181 454.634 218.118 454.028C219.056 453.415 220.266 453.108 221.749 453.108C223.078 453.108 224.242 453.381 225.239 453.926C226.236 454.463 227.012 455.281 227.566 456.381C228.12 457.472 228.397 458.852 228.397 460.523V473H225.38V460.727C225.38 459.185 224.979 457.983 224.178 457.122C223.377 456.253 222.277 455.818 220.88 455.818C219.917 455.818 219.056 456.027 218.297 456.445C217.547 456.862 216.955 457.472 216.52 458.273C216.086 459.074 215.868 460.045 215.868 461.188ZM241.836 480.773C240.379 480.773 239.126 480.585 238.077 480.21C237.029 479.844 236.156 479.358 235.457 478.753C234.766 478.156 234.217 477.517 233.808 476.835L236.211 475.148C236.484 475.506 236.829 475.915 237.246 476.375C237.664 476.844 238.235 477.249 238.96 477.589C239.692 477.939 240.651 478.114 241.836 478.114C243.421 478.114 244.729 477.73 245.761 476.963C246.792 476.196 247.308 474.994 247.308 473.358V469.369H247.052C246.83 469.727 246.515 470.17 246.106 470.699C245.705 471.219 245.126 471.683 244.367 472.092C243.617 472.493 242.603 472.693 241.325 472.693C239.739 472.693 238.316 472.318 237.055 471.568C235.802 470.818 234.809 469.727 234.076 468.295C233.352 466.864 232.989 465.125 232.989 463.08C232.989 461.068 233.343 459.317 234.05 457.825C234.758 456.325 235.742 455.166 237.004 454.348C238.265 453.521 239.722 453.108 241.376 453.108C242.654 453.108 243.668 453.321 244.418 453.747C245.177 454.165 245.756 454.642 246.157 455.179C246.566 455.707 246.881 456.142 247.103 456.483H247.41V453.364H250.325V473.562C250.325 475.25 249.941 476.622 249.174 477.679C248.415 478.744 247.393 479.524 246.106 480.018C244.827 480.521 243.404 480.773 241.836 480.773ZM241.734 469.983C242.944 469.983 243.967 469.706 244.802 469.152C245.637 468.598 246.272 467.801 246.707 466.761C247.141 465.722 247.359 464.477 247.359 463.028C247.359 461.614 247.146 460.365 246.719 459.283C246.293 458.2 245.663 457.352 244.827 456.739C243.992 456.125 242.961 455.818 241.734 455.818C240.455 455.818 239.39 456.142 238.538 456.79C237.694 457.437 237.059 458.307 236.633 459.398C236.215 460.489 236.006 461.699 236.006 463.028C236.006 464.392 236.219 465.598 236.646 466.646C237.08 467.686 237.719 468.504 238.563 469.101C239.415 469.689 240.472 469.983 241.734 469.983ZM258.046 473.205C257.415 473.205 256.874 472.979 256.423 472.527C255.971 472.075 255.745 471.534 255.745 470.903C255.745 470.273 255.971 469.732 256.423 469.28C256.874 468.828 257.415 468.602 258.046 468.602C258.677 468.602 259.218 468.828 259.67 469.28C260.121 469.732 260.347 470.273 260.347 470.903C260.347 471.321 260.241 471.705 260.028 472.054C259.823 472.403 259.546 472.685 259.197 472.898C258.856 473.102 258.472 473.205 258.046 473.205ZM267.96 473.205C267.33 473.205 266.788 472.979 266.337 472.527C265.885 472.075 265.659 471.534 265.659 470.903C265.659 470.273 265.885 469.732 266.337 469.28C266.788 468.828 267.33 468.602 267.96 468.602C268.591 468.602 269.132 468.828 269.584 469.28C270.036 469.732 270.261 470.273 270.261 470.903C270.261 471.321 270.155 471.705 269.942 472.054C269.737 472.403 269.46 472.685 269.111 472.898C268.77 473.102 268.386 473.205 267.96 473.205ZM277.874 473.205C277.244 473.205 276.702 472.979 276.251 472.527C275.799 472.075 275.573 471.534 275.573 470.903C275.573 470.273 275.799 469.732 276.251 469.28C276.702 468.828 277.244 468.602 277.874 468.602C278.505 468.602 279.046 468.828 279.498 469.28C279.95 469.732 280.175 470.273 280.175 470.903C280.175 471.321 280.069 471.705 279.856 472.054C279.651 472.403 279.374 472.685 279.025 472.898C278.684 473.102 278.3 473.205 277.874 473.205Z" fill="#592D1D" fill-opacity="0.35"/>
</svg>
