<svg width="24" height="24" viewBox="0 0 24 24" fill="none" xmlns="http://www.w3.org/2000/svg">
<path d="M21.9985 12.0966C21.9985 11.4148 21.9381 10.7675 21.8346 10.1375H12.082V14.0298H17.666C17.4157 15.3072 16.6821 16.386 15.5947 17.1196V19.7087H18.9261C20.8766 17.905 21.9985 15.2467 21.9985 12.0966Z" fill="#4285F4"/>
<path d="M12.0832 22.2204C14.8795 22.2204 17.2183 21.2883 18.9272 19.7089L15.5958 17.1197C14.6637 17.7411 13.4813 18.1208 12.0832 18.1208C9.3818 18.1208 7.09471 16.2998 6.27481 13.8401H2.83984V16.5069C4.54006 19.8901 8.03544 22.2204 12.0832 22.2204Z" fill="#34A853"/>
<path d="M6.27486 13.8401C6.0591 13.2187 5.9469 12.5541 5.9469 11.8637C5.9469 11.1732 6.06773 10.5087 6.27486 9.8873V7.22046H2.8399C2.1322 8.61861 1.72656 10.1894 1.72656 11.8637C1.72656 13.538 2.1322 15.1088 2.8399 16.5069L6.27486 13.8401Z" fill="#FBBC05"/>
<path d="M12.0832 5.60635C13.6108 5.60635 14.9744 6.13281 16.0532 7.15985L19.0049 4.2082C17.2183 2.53387 14.8795 1.50684 12.0832 1.50684C8.03544 1.50684 4.54006 3.83709 2.83984 7.22026L6.27481 9.8871C7.09471 7.4274 9.3818 5.60635 12.0832 5.60635Z" fill="#EA4335"/>
</svg>
