<svg width="58" height="40" viewBox="0 0 58 40" fill="none" xmlns="http://www.w3.org/2000/svg">
<g clip-path="url(#clip0_103_549)">
<path d="M49.25 17.3105V23.8659H46.8994V19.2674H44.6361V23.8659H42.2855V17.3101H49.25V17.3105Z" fill="#001424"/>
<path fill-rule="evenodd" clip-rule="evenodd" d="M37.458 24.1C39.5622 24.1 41.1247 22.8152 41.1247 20.8675C41.1247 18.9823 39.9719 17.7583 38.0452 17.7583C37.1559 17.7583 36.4222 18.07 35.8696 18.6078C36.0015 17.4962 36.9455 16.6846 37.9848 16.6846C38.2247 16.6846 40.0305 16.6808 40.0305 16.6808L41.0516 14.7349C41.0516 14.7349 38.7845 14.7863 37.7306 14.7863C35.3226 14.828 33.696 17.0077 33.696 19.6551C33.696 22.7393 35.2824 24.1 37.458 24.1ZM37.4707 19.4819C38.252 19.4819 38.7937 19.9931 38.7937 20.8672C38.7937 21.654 38.3124 22.3022 37.4707 22.304C36.6657 22.304 36.124 21.7034 36.124 20.8807C36.124 20.0063 36.6657 19.4819 37.4707 19.4819Z" fill="#001424"/>
<path d="M31.7828 21.6711C31.7828 21.6711 31.2277 21.9897 30.3986 22.0501C29.4455 22.0782 28.5962 21.4787 28.5962 20.4136C28.5962 19.3746 29.3456 18.7791 30.3746 18.7791C31.0056 18.7791 31.8403 19.2146 31.8403 19.2146C31.8403 19.2146 32.451 18.0985 32.7674 17.5403C32.188 17.103 31.4164 16.8633 30.5189 16.8633C28.2538 16.8633 26.4994 18.334 26.4994 20.4004C26.4994 22.4931 28.1483 23.9297 30.5189 23.8863C31.1815 23.8617 32.0956 23.63 32.6527 23.2736L31.7828 21.6711Z" fill="#001424"/>
<path d="M8 13.5708L10.5537 18.1164V20.8891L8.00299 25.4258L8 13.5708Z" fill="#5B57A2"/>
<path d="M17.8053 16.4627L20.1982 15.0021L25.0955 14.9976L17.8053 19.445V16.4627Z" fill="#D90751"/>
<path d="M17.7918 13.5442L17.8053 19.5625L15.2456 17.9962V9L17.7918 13.5442Z" fill="#FAB718"/>
<path d="M25.0956 14.9974L20.1981 15.002L17.7918 13.5442L15.2456 9L25.0956 14.9974Z" fill="#ED6F26"/>
<path d="M17.8053 25.451V22.5311L15.2456 20.9946L15.247 29.9998L17.8053 25.451Z" fill="#63B22F"/>
<path d="M20.1923 24.0038L10.5536 18.1164L8 13.5708L25.0852 23.9978L20.1923 24.0038Z" fill="#1487C9"/>
<path d="M15.2472 30L17.8052 25.4512L20.1921 24.004L25.085 23.998L15.2472 30Z" fill="#017F36"/>
<path d="M8.00293 25.426L15.2665 20.995L12.8245 19.5029L10.5537 20.8893L8.00293 25.426Z" fill="#984995"/>
</g>
<defs>
<clipPath id="clip0_103_549">
<rect width="42" height="21" fill="white" transform="translate(8 9)"/>
</clipPath>
</defs>
</svg>
