<svg width="24" height="24" viewBox="0 0 24 24" fill="none" xmlns="http://www.w3.org/2000/svg">
<path fill-rule="evenodd" clip-rule="evenodd" d="M6.46978 11.9697C6.76268 11.6768 7.23755 11.6768 7.53044 11.9697L10.0001 14.4393L16.4698 7.96967C16.7627 7.67678 17.2376 7.67678 17.5304 7.96967C17.8233 8.26256 17.8233 8.73744 17.5304 9.03033L10.5304 16.0303C10.2376 16.3232 9.76268 16.3232 9.46978 16.0303L6.46978 13.0303C6.17689 12.7374 6.17689 12.2626 6.46978 11.9697Z" fill="#12B76A"/>
<path fill-rule="evenodd" clip-rule="evenodd" d="M12 2.75C6.89137 2.75 2.75 6.89137 2.75 12C2.75 17.1086 6.89137 21.25 12 21.25C17.1086 21.25 21.25 17.1086 21.25 12C21.25 6.89137 17.1086 2.75 12 2.75ZM1.25 12C1.25 6.06294 6.06294 1.25 12 1.25C17.9371 1.25 22.75 6.06294 22.75 12C22.75 17.9371 17.9371 22.75 12 22.75C6.06294 22.75 1.25 17.9371 1.25 12Z" fill="#12B76A"/>
</svg>
