<svg width="38" height="42" viewBox="0 0 38 42" fill="none"><path d="M10 13.5V10.5C10 8.11305 10.9482 5.82387 12.636 4.13604C14.3239 2.44821 16.6131 1.5 19 1.5V1.5C21.3869 1.5 23.6761 2.44821 25.364 4.13604C27.0518 5.82387 28 8.11305 28 10.5V13.5M2.5 13.5C2.10218 13.5 1.72064 13.658 1.43934 13.9393C1.15804 14.2206 1 14.6022 1 15V35.25C1 38.085 3.415 40.5 6.25 40.5H31.75C34.585 40.5 37 38.2022 37 35.3672V15C37 14.6022 36.842 14.2206 36.5607 13.9393C36.2794 13.658 35.8978 13.5 35.5 13.5H2.5Z" stroke="#1A1A1A" stroke-width="2" stroke-linecap="round" stroke-linejoin="round"></path></svg>