<svg xmlns="http://www.w3.org/2000/svg" width="642" height="60" viewBox="0 0 642 60" fill="none">
<g clip-path="url(#clip0_179_8706)">
<path d="M72.5039 19.2858H58.5459C59.359 24.0521 63.831 28.5381 68.7095 28.5381H79.8216C79.9572 28.1176 79.9571 27.4166 79.9571 26.996C79.9571 22.7904 76.5693 19.2858 72.5039 19.2858Z" fill="url(#paint0_linear_179_8706)"/>
<path d="M59.7655 29.3792V41.0146H66.5412V34.8464H72.5038C75.7561 34.8464 78.602 32.4633 79.5506 29.3792H59.7655Z" fill="#4FAD50"/>
<path d="M35.9151 19.2858V40.8746H41.8777C41.8777 40.8746 43.3683 40.8746 44.1814 39.3325C48.2469 31.0615 49.4665 28.5381 49.4665 28.5381H50.2796V40.8746H57.0553V19.2858H51.0927C51.0927 19.2858 49.602 19.426 48.7889 20.8278C45.4011 27.9774 43.5039 31.6222 43.5039 31.6222H42.6908V19.2858H35.9151Z" fill="#4FAD50"/>
<path d="M7.45715 41.0147V19.426H14.2329C14.2329 19.426 16.1301 19.426 17.2142 22.5101C19.9245 30.6409 20.1955 31.7624 20.1955 31.7624C20.1955 31.7624 20.7375 29.7998 23.1768 22.5101C24.2609 19.426 26.1581 19.426 26.1581 19.426H32.9338V41.0147H26.1581V29.3792H25.345L21.5506 41.0147H18.5693L14.7749 29.3792H13.9619V41.0147H7.45715Z" fill="#4FAD50"/>
</g>
<path d="M148.221 40.207H143.302L146.379 21.073H151.298L148.221 40.207Z" fill="#00579F"/>
<path d="M166.052 21.5409C165.082 21.1538 163.543 20.7263 161.64 20.7263C156.782 20.7263 153.361 23.3317 153.34 27.0565C153.3 29.8047 155.789 31.3311 157.651 32.2475C159.555 33.1838 160.201 33.795 160.201 34.6296C160.182 35.9115 158.664 36.5023 157.247 36.5023C155.283 36.5023 154.231 36.1977 152.632 35.4845L151.984 35.1788L151.296 39.474C152.449 40.0026 154.575 40.4718 156.782 40.4923C161.944 40.4923 165.304 37.9273 165.344 33.9578C165.363 31.7797 164.049 30.1107 161.215 28.7469C159.494 27.8714 158.44 27.2811 158.44 26.3853C158.461 25.571 159.332 24.7369 161.274 24.7369C162.873 24.696 164.048 25.0826 164.938 25.4695L165.383 25.6727L166.052 21.5409Z" fill="#00579F"/>
<path d="M172.593 33.4285C172.998 32.3293 174.556 28.075 174.556 28.075C174.536 28.1158 174.961 26.9554 175.204 26.2431L175.547 27.8918C175.547 27.8918 176.479 32.4719 176.681 33.4285C175.913 33.4285 173.564 33.4285 172.593 33.4285ZM178.665 21.073H174.86C173.686 21.073 172.795 21.4188 172.289 22.6606L164.982 40.2067H170.143C170.143 40.2067 170.993 37.8451 171.176 37.3365C171.742 37.3365 176.763 37.3365 177.492 37.3365C177.633 38.0083 178.078 40.2067 178.078 40.2067H182.633L178.665 21.073Z" fill="#00579F"/>
<path d="M139.193 21.073L134.375 34.1206L133.849 31.4744C132.958 28.421 130.165 25.1036 127.048 23.4541L131.461 40.1867H136.662L144.395 21.073H139.193Z" fill="#00579F"/>
<path d="M129.902 21.073H121.988L121.907 21.4596C128.08 23.0474 132.169 26.8748 133.849 31.4752L132.129 22.6814C131.845 21.4593 130.975 21.1133 129.902 21.073Z" fill="#FAA61A"/>
<path fill-rule="evenodd" clip-rule="evenodd" d="M265.515 42.8924C262.594 45.4631 258.806 47.0149 254.666 47.0149C245.429 47.0149 237.941 39.2885 237.941 29.7575C237.941 20.2264 245.429 12.5 254.666 12.5C258.806 12.5 262.594 14.0519 265.515 16.6226C268.435 14.0519 272.224 12.5 276.364 12.5C285.6 12.5 293.088 20.2264 293.088 29.7575C293.088 39.2885 285.6 47.0149 276.364 47.0149C272.224 47.0149 268.435 45.4631 265.515 42.8924Z" fill="#ED0006"/>
<path fill-rule="evenodd" clip-rule="evenodd" d="M265.515 42.8924C269.111 39.727 271.391 35.017 271.391 29.7575C271.391 24.4979 269.111 19.7879 265.515 16.6226C268.435 14.0519 272.224 12.5 276.364 12.5C285.6 12.5 293.088 20.2264 293.088 29.7575C293.088 39.2885 285.6 47.0149 276.364 47.0149C272.224 47.0149 268.435 45.4631 265.515 42.8924Z" fill="#F9A000"/>
<path fill-rule="evenodd" clip-rule="evenodd" d="M265.515 16.6227C269.111 19.788 271.391 24.498 271.391 29.7575C271.391 35.017 269.111 39.727 265.515 42.8923C261.919 39.727 259.639 35.017 259.639 29.7575C259.639 24.498 261.919 19.788 265.515 16.6227Z" fill="#FF5E00"/>
<path d="M359.539 12.502H373.058C374.945 12.502 376.119 14.0709 375.678 16.0022L369.384 43.5656C368.94 45.4901 367.051 47.0604 365.162 47.0604H351.644C349.76 47.0604 348.584 45.4901 349.024 43.5656L355.32 16.0022C355.761 14.0709 357.649 12.502 359.539 12.502Z" fill="#E21836"/>
<path d="M371.932 12.5H387.479C389.365 12.5 388.515 14.0689 388.071 16.0002L381.778 43.5636C381.336 45.4882 381.474 47.0585 379.583 47.0585H364.036C362.146 47.0585 360.976 45.4882 361.42 43.5636L367.713 16.0002C368.159 14.0689 370.044 12.5 371.932 12.5Z" fill="#00447C"/>
<path d="M386.862 12.5H400.381C402.271 12.5 403.445 14.0689 403.001 16.0002L396.708 43.5636C396.264 45.4882 394.373 47.0585 392.484 47.0585H378.971C377.08 47.0585 375.907 45.4882 376.35 43.5636L382.644 16.0002C383.084 14.0689 384.972 12.5 386.862 12.5Z" fill="#007B84"/>
<path d="M363.069 21.3332C361.678 21.3477 361.268 21.3332 361.137 21.3016C361.086 21.546 360.148 25.9601 360.146 25.9638C359.944 26.8568 359.797 27.4934 359.297 27.9044C359.014 28.1434 358.683 28.2587 358.3 28.2587C357.683 28.2587 357.324 27.9464 357.264 27.3542L357.252 27.1509C357.252 27.1509 357.44 25.9547 357.44 25.948C357.44 25.948 358.424 21.9254 358.601 21.3937C358.61 21.3635 358.613 21.3477 358.615 21.3332C356.698 21.3504 356.359 21.3332 356.335 21.3016C356.323 21.345 356.275 21.5944 356.275 21.5944L355.27 26.1281L355.183 26.5126L355.016 27.7703C355.016 28.1434 355.088 28.4479 355.231 28.7054C355.689 29.5218 356.996 29.6441 357.735 29.6441C358.687 29.6441 359.58 29.4377 360.184 29.061C361.232 28.4294 361.506 27.4423 361.751 26.565L361.864 26.115C361.864 26.115 362.878 21.9372 363.051 21.3937C363.057 21.3635 363.06 21.3477 363.069 21.3332ZM366.52 24.7035C366.275 24.7035 365.828 24.764 365.427 24.9646C365.281 25.0409 365.144 25.129 364.998 25.2167L365.129 24.7337L365.058 24.6524C364.206 24.8282 364.016 24.8517 363.23 24.9646L363.164 25.0093C363.073 25.7814 362.991 26.3618 362.653 27.8794C362.524 28.4386 362.39 29.0033 362.256 29.5612L362.293 29.6322C363.098 29.5888 363.343 29.5888 364.043 29.6006L364.1 29.5377C364.189 29.0729 364.2 28.964 364.397 28.0225C364.49 27.5762 364.683 26.5954 364.778 26.2462C364.953 26.1635 365.126 26.0822 365.291 26.0822C365.683 26.0822 365.635 26.4314 365.62 26.5706C365.603 26.8042 365.46 27.5671 365.314 28.2222L365.216 28.645C365.148 28.9573 365.073 29.2608 365.005 29.5703L365.034 29.6322C365.828 29.5888 366.071 29.5888 366.749 29.6006L366.828 29.5377C366.951 28.8117 366.987 28.6174 367.204 27.5604L367.314 27.0747C367.526 26.1242 367.633 25.6422 367.472 25.2497C367.302 24.8097 366.894 24.7035 366.52 24.7035ZM370.375 25.6987C369.953 25.7813 369.683 25.8365 369.416 25.8721C369.151 25.9155 368.892 25.9548 368.484 26.0126L368.452 26.0425L368.422 26.0664C368.379 26.3763 368.35 26.6441 368.293 26.9591C368.246 27.2848 368.172 27.6548 368.053 28.1865C367.96 28.5936 367.912 28.7354 367.86 28.8786C367.808 29.0217 367.751 29.1609 367.647 29.5612L367.672 29.5982L367.692 29.6321C368.073 29.6136 368.323 29.6005 368.579 29.5982C368.835 29.5888 369.1 29.5982 369.511 29.6005L369.547 29.5706L369.586 29.5377C369.645 29.1767 369.654 29.0796 369.69 28.9034C369.726 28.7145 369.788 28.4531 369.94 27.7546C370.012 27.4266 370.092 27.0996 370.166 26.7648C370.244 26.4314 370.325 26.103 370.402 25.775L370.39 25.7353L370.375 25.6987ZM370.384 24.3569C370 24.126 369.327 24.1992 368.874 24.5182C368.422 24.8308 368.371 25.2744 368.753 25.5084C369.13 25.7329 369.806 25.666 370.255 25.3443C370.706 25.025 370.762 24.5854 370.384 24.3569ZM372.703 29.7045C373.479 29.7045 374.275 29.4864 374.874 28.839C375.334 28.314 375.545 27.5329 375.619 27.2112C375.857 26.1451 375.671 25.6473 375.438 25.3442C375.084 24.882 374.459 24.7338 373.81 24.7338C373.42 24.7338 372.491 24.7731 371.765 25.4558C371.244 25.9482 371.003 26.6163 370.857 27.257C370.711 27.9097 370.542 29.0847 371.601 29.522C371.928 29.6652 372.4 29.7045 372.703 29.7045ZM372.643 27.3057C372.822 26.4984 373.033 25.8208 373.572 25.8208C373.994 25.8208 374.025 26.3249 373.837 27.1349C373.804 27.3148 373.649 27.9833 373.441 28.268C373.295 28.478 373.123 28.6054 372.932 28.6054C372.876 28.6054 372.539 28.6054 372.533 28.0949C372.531 27.8428 372.581 27.5853 372.643 27.3057ZM377.558 29.6007L377.619 29.5378C377.705 29.073 377.719 28.9637 377.91 28.0226C378.005 27.5763 378.202 26.5955 378.295 26.2463C378.47 26.1633 378.64 26.082 378.81 26.082C379.199 26.082 379.152 26.4312 379.137 26.5703C379.122 26.8043 378.979 27.5669 378.83 28.222L378.737 28.6448C378.667 28.9574 378.59 29.2605 378.521 29.5704L378.551 29.6323C379.348 29.5889 379.581 29.5889 380.263 29.6007L380.345 29.5378C380.465 28.8115 380.497 28.6172 380.721 27.5605L380.828 27.0745C381.041 26.124 381.15 25.6423 380.991 25.2498C380.816 24.8098 380.406 24.7036 380.036 24.7036C379.792 24.7036 379.342 24.7638 378.943 24.9647C378.801 25.041 378.658 25.1288 378.517 25.2168L378.64 24.7338L378.574 24.6522C377.723 24.8283 377.529 24.8518 376.744 24.9647L376.683 25.0094C376.588 25.7815 376.511 26.3616 376.172 27.8795C376.043 28.4387 375.91 29.0034 375.776 29.5613L375.812 29.6323C376.619 29.5889 376.86 29.5889 377.558 29.6007ZM383.412 29.6321C383.463 29.3827 383.76 27.9045 383.763 27.9045C383.763 27.9045 384.016 26.8199 384.032 26.7806C384.032 26.7806 384.111 26.6676 384.191 26.6229H384.308C385.415 26.6229 386.665 26.6229 387.645 25.8879C388.311 25.3837 388.767 24.6392 388.97 23.7344C389.023 23.5126 389.062 23.2488 389.062 22.9849C389.062 22.6384 388.994 22.2956 388.797 22.0277C388.297 21.3148 387.302 21.3017 386.154 21.2963C386.15 21.2963 385.588 21.3017 385.588 21.3017C384.118 21.3202 383.528 21.3148 383.286 21.2845C383.266 21.3938 383.227 21.588 383.227 21.588C383.227 21.588 382.701 24.0773 382.701 24.0813C382.701 24.0813 381.441 29.3736 381.381 29.623C382.665 29.6072 383.191 29.6072 383.412 29.6321ZM384.388 25.2103C384.388 25.2103 384.948 22.7261 384.945 22.7355L384.964 22.6081L384.971 22.511L385.195 22.5345C385.195 22.5345 386.35 22.6357 386.377 22.6384C386.833 22.8182 387.02 23.2817 386.889 23.8867C386.77 24.4396 386.418 24.9044 385.966 25.1289C385.594 25.3192 385.139 25.335 384.669 25.335H384.365L384.388 25.2103ZM387.874 27.3517C387.726 27.995 387.556 29.17 388.61 29.5888C388.946 29.7347 389.247 29.7781 389.554 29.7623C389.877 29.7444 390.176 29.5791 390.454 29.3411C390.429 29.4389 390.404 29.5367 390.379 29.6349L390.426 29.6977C391.185 29.6651 391.42 29.6651 392.241 29.6715L392.316 29.6137C392.436 28.8944 392.549 28.196 392.861 26.82C393.012 26.1609 393.164 25.5082 393.32 24.8517L393.296 24.7795C392.447 24.9398 392.221 24.9741 391.405 25.0921L391.343 25.1435C391.335 25.2104 391.326 25.2746 391.318 25.3388C391.191 25.1297 391.007 24.9512 390.724 24.84C390.361 24.6944 389.509 24.882 388.776 25.5623C388.261 26.0479 388.014 26.7134 387.874 27.3517ZM389.655 27.391C389.837 26.5982 390.045 25.9273 390.586 25.9273C390.928 25.9273 391.108 26.2489 391.071 26.7975C391.042 26.9343 391.011 27.0784 390.973 27.2415C390.919 27.4771 390.861 27.7107 390.804 27.9446C390.746 28.1046 390.678 28.2555 390.604 28.356C390.465 28.557 390.134 28.6817 389.944 28.6817C389.89 28.6817 389.556 28.6817 389.545 28.1802C389.542 27.9305 389.592 27.6734 389.655 27.391ZM398.958 24.7731L398.892 24.6968C398.053 24.8702 397.901 24.8978 397.13 25.004L397.073 25.0618C397.071 25.0712 397.068 25.0856 397.064 25.0987L397.062 25.0856C396.488 26.4365 396.505 26.145 396.037 27.2085C396.035 27.1601 396.035 27.1298 396.032 27.0784L395.915 24.7731L395.842 24.6968C394.962 24.8702 394.942 24.8978 394.13 25.004L394.066 25.0618C394.058 25.0893 394.058 25.1196 394.052 25.1525L394.058 25.1643C394.159 25.6933 394.135 25.5753 394.236 26.4102C394.284 26.82 394.347 27.232 394.395 27.6367C394.475 28.3139 394.519 28.6474 394.617 29.6809C394.069 30.6038 393.939 30.9531 393.411 31.7631L393.415 31.7711L393.043 32.3707C393.001 32.4339 392.962 32.4773 392.908 32.4958C392.849 32.5257 392.772 32.5311 392.665 32.5311H392.459L392.153 33.5696L393.203 33.5881C393.819 33.5854 394.207 33.2913 394.415 32.8961L395.076 31.7419H395.065L395.135 31.6606C395.579 30.6852 398.958 24.7731 398.958 24.7731ZM387.874 38.4131H387.428L389.077 32.8502H389.624L389.798 32.2771L389.815 32.9144C389.794 33.3083 390.098 33.6575 390.896 33.5997H391.819L392.137 32.5286H391.79C391.59 32.5286 391.497 32.4771 391.509 32.3669L391.492 31.7185H389.783V31.7219C389.23 31.7337 387.58 31.776 387.246 31.8668C386.842 31.973 386.415 32.2855 386.415 32.2855L386.583 31.7118H384.984L384.651 32.8502L382.98 38.4981H382.656L382.338 39.5616H385.522L385.415 39.9162H386.985L387.089 39.5616H387.529L387.874 38.4131ZM386.567 33.9805C386.311 34.0528 385.835 34.2719 385.835 34.2719L386.259 32.8502H387.529L387.222 33.8861C387.222 33.8861 386.83 33.9096 386.567 33.9805ZM386.592 36.0116C386.592 36.0116 386.193 36.0627 385.93 36.1232C385.671 36.2032 385.186 36.4553 385.186 36.4553L385.624 34.9757H386.901L386.592 36.0116ZM385.88 38.4262H384.606L384.975 37.1776H386.245L385.88 38.4262ZM388.949 34.9757H390.785L390.521 35.8476H388.66L388.381 36.8008H390.009L388.776 38.5717C388.69 38.7018 388.613 38.7479 388.527 38.7845C388.44 38.8292 388.327 38.8816 388.196 38.8816H387.744L387.434 39.9256H388.615C389.229 39.9256 389.592 39.6406 389.86 39.2665L390.706 38.0861L390.887 39.2846C390.926 39.5091 391.084 39.6406 391.191 39.6917C391.309 39.7522 391.432 39.856 391.604 39.8715C391.789 39.8795 391.923 39.8859 392.012 39.8859H392.593L392.941 38.7176H392.712C392.581 38.7176 392.355 38.6951 392.316 38.6531C392.277 38.602 392.277 38.5233 392.257 38.4037L392.073 37.2024H391.318L391.649 36.8008H393.507L393.792 35.8476H392.073L392.34 34.9757H394.055L394.373 33.9005H389.261L388.949 34.9757ZM373.436 38.669L373.864 37.2143H375.626L375.948 36.1324H374.185L374.454 35.237H376.177L376.496 34.1894H372.184L371.872 35.237H372.851L372.59 36.1324H371.608L371.282 37.2328H372.262L371.69 39.1573C371.613 39.4121 371.726 39.5092 371.798 39.6276C371.872 39.7428 371.946 39.8191 372.114 39.8625C372.286 39.9018 372.405 39.9253 372.565 39.9253H374.552L374.906 38.7268L374.025 38.8501C373.855 38.8501 373.384 38.8293 373.436 38.669ZM373.638 31.7053L373.191 32.5284C373.096 32.7082 373.01 32.8198 372.932 32.8712C372.864 32.9146 372.729 32.9327 372.533 32.9327H372.3L371.989 33.9857H372.763C373.135 33.9857 373.42 33.8466 373.557 33.777C373.703 33.697 373.742 33.7427 373.855 33.6311L374.116 33.4002H376.533L376.853 32.3039H375.085L375.393 31.7053H373.638ZM377.205 38.6901C377.163 38.6296 377.193 38.5231 377.256 38.3012L377.916 36.0719H380.265C380.608 36.0668 380.855 36.0628 381.016 36.051C381.188 36.0325 381.376 35.9697 381.581 35.8567C381.792 35.7384 381.9 35.6137 381.991 35.4706C382.093 35.3277 382.257 35.0151 382.397 34.5332L383.227 31.7119L380.789 31.7263C380.789 31.7263 380.039 31.8393 379.708 31.964C379.375 32.1031 378.898 32.4916 378.898 32.4916L379.118 31.7183H377.612L375.504 38.8501C375.429 39.1271 375.379 39.3281 375.368 39.4487C375.364 39.5788 375.529 39.7075 375.635 39.8047C375.762 39.9018 375.948 39.886 376.127 39.9018C376.315 39.9162 376.583 39.9253 376.952 39.9253H378.109L378.465 38.7019L377.429 38.8017C377.318 38.8017 377.238 38.7412 377.205 38.6901ZM378.342 34.5661H380.81L380.653 35.0676C380.631 35.0793 380.578 35.0427 380.327 35.0729H378.19L378.342 34.5661ZM378.837 32.8842H381.325L381.146 33.4882C381.146 33.4882 379.973 33.4764 379.785 33.5117C378.959 33.6576 378.476 34.108 378.476 34.108L378.837 32.8842ZM380.708 36.7469C380.688 36.8218 380.655 36.8675 380.61 36.9018C380.56 36.9347 380.479 36.9465 380.358 36.9465H380.007L380.027 36.3358H378.565L378.506 39.3214C378.503 39.5369 378.524 39.6616 378.678 39.7614C378.833 39.8861 379.309 39.9019 379.95 39.9019H380.866L381.197 38.7843L380.399 38.829L380.134 38.8448C380.098 38.829 380.063 38.8146 380.025 38.7753C379.991 38.7413 379.934 38.7621 379.944 38.5467L379.95 37.7814L380.787 37.7461C381.238 37.7461 381.431 37.5962 381.596 37.4534C381.753 37.3166 381.805 37.1593 381.864 36.9465L382.004 36.2689H380.855L380.708 36.7469Z" fill="#FEFEFE"/>
<path d="M498.721 30.7182C499.98 30.7461 501.247 30.6615 502.5 30.7622C503.77 31.0038 504.076 32.9648 502.948 33.607C502.178 34.0301 501.264 33.7646 500.429 33.8392H498.721V30.7182ZM503.228 27.1857C503.508 28.1928 502.556 29.097 501.606 28.9583H498.721C498.742 28.0086 498.682 26.9778 498.751 26.0781C499.906 26.1113 501.072 26.0104 502.221 26.1308C502.714 26.2573 503.127 26.6712 503.228 27.1857ZM510.17 12.2511C510.223 14.1744 510.177 16.1993 510.193 18.1615C510.189 26.1394 510.2 34.117 510.187 42.0953C510.136 45.0852 507.538 47.6832 504.627 47.7429C501.713 47.755 498.799 47.7448 495.885 47.7481V35.6872C499.06 35.6705 502.237 35.7212 505.411 35.6619C506.883 35.5676 508.496 34.5767 508.564 32.924C508.738 31.2642 507.204 30.1161 505.747 29.9348C505.187 29.92 505.203 29.7683 505.747 29.7022C507.136 29.3959 508.227 27.9292 507.818 26.4604C507.47 24.9155 505.796 24.3176 504.404 24.3205C501.564 24.3009 498.725 24.3178 495.886 24.3121C495.904 22.0605 495.847 19.8064 495.916 17.5565C496.141 14.6205 498.804 12.1993 501.674 12.2519C504.506 12.2514 507.338 12.2514 510.17 12.2513V12.2511Z" fill="url(#paint1_linear_179_8706)"/>
<path d="M463.801 17.8605C463.873 14.8753 466.482 12.2986 469.389 12.255C472.292 12.2459 475.196 12.2537 478.099 12.251C478.091 22.2388 478.115 32.2276 478.087 42.2147C477.975 45.1636 475.395 47.6912 472.519 47.7434C469.611 47.7542 466.702 47.7449 463.793 47.7479V35.2804C466.618 35.9612 469.581 36.251 472.463 35.7995C474.186 35.5167 476.071 34.6537 476.654 32.8306C477.084 31.2711 476.842 29.6298 476.906 28.0292V24.312H471.918C471.896 26.7705 471.964 29.2332 471.882 31.6887C471.747 33.1979 470.282 34.1569 468.886 34.1057C467.156 34.1243 463.726 32.8263 463.726 32.8263C463.717 28.2202 463.776 22.4517 463.801 17.8609V17.8605Z" fill="url(#paint2_linear_179_8706)"/>
<path d="M479.959 25.8115C479.697 25.8683 479.906 24.8992 479.839 24.5316C479.857 22.2074 479.802 19.8806 479.87 17.558C480.094 14.6096 482.778 12.1824 485.659 12.2514H494.146C494.138 22.2391 494.161 32.228 494.134 42.2151C494.022 45.164 491.441 47.6915 488.566 47.7438C485.657 47.755 482.748 47.7455 479.839 47.7484V34.0886C481.826 35.7512 484.526 36.01 487.001 36.0145C488.867 36.0138 490.721 35.7204 492.533 35.2815V32.779C490.491 33.817 488.091 34.4764 485.827 33.88C484.248 33.4791 483.102 31.9226 483.128 30.2604C482.945 28.5319 483.938 26.707 485.603 26.1931C487.671 25.5329 489.925 26.0379 491.863 26.8962C492.278 27.118 492.699 27.3931 492.533 26.6851V24.7181C489.292 23.9315 485.842 23.6421 482.586 24.4978C481.643 24.769 480.725 25.1803 479.959 25.8117V25.8115Z" fill="url(#paint3_linear_179_8706)"/>
<mask id="mask0_179_8706" style="mask-type:alpha" maskUnits="userSpaceOnUse" x="573" y="12" width="51" height="36">
<rect x="573.125" y="12.5" width="50.75" height="35" fill="#016FD0"/>
</mask>
<g mask="url(#mask0_179_8706)">
<rect x="573.125" y="12.5" width="50.75" height="35" fill="#016FD0"/>
<path d="M582.997 39.276V31.246H591.45L592.357 32.4352L593.294 31.246H623.979V38.7222C623.979 38.7222 623.176 39.268 622.248 39.276H605.258L604.235 38.0102V39.276H600.884V37.1152C600.884 37.1152 600.426 37.4168 599.437 37.4168H598.296V39.276H593.222L592.317 38.0613L591.397 39.276H582.997Z" fill="white"/>
<path d="M573.125 25.194L575.031 20.7241H578.328L579.41 23.228V20.7241H583.508L584.152 22.5338L584.777 20.7241H603.173V21.6339C603.173 21.6339 604.141 20.7241 605.73 20.7241L611.699 20.7451L612.762 23.2162V20.7241H616.192L617.136 22.1436V20.7241H620.597V28.7541H617.136L616.231 27.3301V28.7541H611.192L610.686 27.4883H609.331L608.832 28.7541H605.415C604.048 28.7541 603.173 27.8629 603.173 27.8629V28.7541H598.021L596.999 27.4883V28.7541H577.84L577.333 27.4883H575.983L575.48 28.7541H573.125V25.194Z" fill="white"/>
<path d="M575.705 21.7136L573.133 27.7262H574.807L575.282 26.5222H578.04L578.512 27.7262H580.223L577.654 21.7136H575.705ZM576.656 23.1129L577.497 25.2169H575.813L576.656 23.1129Z" fill="#016FD0"/>
<path d="M580.4 27.7249V21.7123L582.779 21.7212L584.162 25.5977L585.513 21.7123H587.873V27.7249H586.378V23.2945L584.794 27.7249H583.483L581.894 23.2945V27.7249H580.4Z" fill="#016FD0"/>
<path d="M588.896 27.7249V21.7123H593.773V23.0572H590.407V24.0857H593.695V25.3515H590.407V26.4195H593.773V27.7249H588.896Z" fill="#016FD0"/>
<path d="M594.637 21.7136V27.7263H596.132V25.5902H596.761L598.553 27.7263H600.38L598.413 25.5111C599.22 25.4426 600.053 24.7459 600.053 23.6643C600.053 22.399 599.065 21.7136 597.963 21.7136H594.637ZM596.132 23.0586H597.84C598.25 23.0586 598.548 23.381 598.548 23.6915C598.548 24.0909 598.162 24.3244 597.863 24.3244H596.132V23.0586Z" fill="#016FD0"/>
<path d="M602.191 27.7249H600.665V21.7123H602.191V27.7249Z" fill="#016FD0"/>
<path d="M605.809 27.7249H605.48C603.886 27.7249 602.918 26.4621 602.918 24.7433C602.918 22.9821 603.875 21.7123 605.888 21.7123H607.54V23.1363H605.827C605.01 23.1363 604.433 23.7776 604.433 24.7582C604.433 25.9226 605.093 26.4116 606.045 26.4116H606.438L605.809 27.7249Z" fill="#016FD0"/>
<path d="M609.062 21.7136L606.491 27.7262H608.165L608.64 26.5222H611.398L611.87 27.7262H613.581L611.012 21.7136H609.062ZM610.014 23.1129L610.854 25.2169H609.171L610.014 23.1129Z" fill="#016FD0"/>
<path d="M613.753 27.7249V21.7123H615.653L618.08 25.49V21.7123H619.574V27.7249H617.736L615.248 23.8484V27.7249H613.753Z" fill="#016FD0"/>
<path d="M584.02 38.2476V32.235H588.897V33.5799H585.53V34.6084H588.818V35.8742H585.53V36.9423H588.897V38.2476H584.02Z" fill="#016FD0"/>
<path d="M607.916 38.2476V32.235H612.793V33.5799H609.426V34.6084H612.698V35.8742H609.426V36.9423H612.793V38.2476H607.916Z" fill="#016FD0"/>
<path d="M589.086 38.2476L591.461 35.2784L589.03 32.235H590.913L592.361 34.1164L593.813 32.235H595.623L593.223 35.2413L595.602 38.2476H593.72L592.314 36.3958L590.942 38.2476H589.086Z" fill="#016FD0"/>
<path d="M595.778 32.2357V38.2484H597.312V36.3496H598.885C600.217 36.3496 601.226 35.6394 601.226 34.2581C601.226 33.1138 600.434 32.2357 599.08 32.2357H595.778ZM597.312 33.5955H598.969C599.399 33.5955 599.706 33.8606 599.706 34.2877C599.706 34.689 599.401 34.98 598.964 34.98H597.312V33.5955Z" fill="#016FD0"/>
<path d="M601.875 32.235V38.2476H603.37V36.1116H603.999L605.791 38.2476H607.618L605.651 36.0324C606.458 35.9639 607.291 35.2673 607.291 34.1856C607.291 32.9204 606.303 32.235 605.201 32.235H601.875ZM603.37 33.5799H605.078C605.488 33.5799 605.786 33.9023 605.786 34.2128C605.786 34.6123 605.4 34.8457 605.101 34.8457H603.37V33.5799Z" fill="#016FD0"/>
<path d="M613.486 38.2476V36.9423H616.477C616.92 36.9423 617.111 36.7017 617.111 36.4379C617.111 36.1851 616.92 35.9296 616.477 35.9296H615.126C613.951 35.9296 613.296 35.2097 613.296 34.1288C613.296 33.1647 613.896 32.235 615.641 32.235H618.552L617.923 33.5878H615.406C614.924 33.5878 614.776 33.8418 614.776 34.0843C614.776 34.3335 614.959 34.6084 615.327 34.6084H616.743C618.052 34.6084 618.621 35.3556 618.621 36.3341C618.621 37.386 617.988 38.2476 616.671 38.2476H613.486Z" fill="#016FD0"/>
<path d="M618.97 38.2476V36.9423H621.962C622.404 36.9423 622.596 36.7017 622.596 36.4379C622.596 36.1851 622.405 35.9296 621.962 35.9296H620.61C619.435 35.9296 618.781 35.2097 618.781 34.1288C618.781 33.1647 619.38 32.235 621.126 32.235H623.977L623.407 33.5878H620.89C620.409 33.5878 620.26 33.8418 620.26 34.0843C620.26 34.3335 620.444 34.6084 620.811 34.6084H622.227C623.537 34.6084 624.105 35.3556 624.105 36.3341C624.105 37.386 623.472 38.2476 622.156 38.2476H618.97Z" fill="#016FD0"/>
</g>
<defs>
<linearGradient id="paint0_linear_179_8706" x1="58.5218" y1="23.9782" x2="79.9092" y2="23.9782" gradientUnits="userSpaceOnUse">
<stop stop-color="#27B1E6"/>
<stop offset="1" stop-color="#148ACA"/>
</linearGradient>
<linearGradient id="paint1_linear_179_8706" x1="495.787" y1="29.2406" x2="510.102" y2="29.2406" gradientUnits="userSpaceOnUse">
<stop stop-color="#58B03A"/>
<stop offset="1" stop-color="#55B330"/>
</linearGradient>
<linearGradient id="paint2_linear_179_8706" x1="463.489" y1="30.3394" x2="477.864" y2="30.3394" gradientUnits="userSpaceOnUse">
<stop stop-color="#0F6EB6"/>
<stop offset="1" stop-color="#006DBA"/>
</linearGradient>
<linearGradient id="paint3_linear_179_8706" x1="479.818" y1="29.5848" x2="494.143" y2="29.5848" gradientUnits="userSpaceOnUse">
<stop stop-color="#DE0D3D"/>
<stop offset="1" stop-color="#E30138"/>
</linearGradient>
<clipPath id="clip0_179_8706">
<rect width="87" height="60" fill="white"/>
</clipPath>
</defs>
</svg>