<svg width="148" height="30" viewBox="0 0 148 30" fill="none" xmlns="http://www.w3.org/2000/svg">
<rect y="0.263184" width="29.2862" height="29.4737" rx="14.6431" fill="black"/>
<path d="M16.7066 23.8569H19.7659V6.17267H15.316C10.8409 6.17267 8.48961 8.48816 8.48961 11.8978C8.48961 14.6204 9.77905 16.2234 12.0798 17.8773L8.08508 23.8569H11.3972L15.847 17.1649L14.3047 16.1216C12.4338 14.8494 11.5236 13.857 11.5236 11.7197C11.5236 9.83674 12.8383 8.56449 15.3413 8.56449H16.7066V23.8569Z" fill="white"/>
<path d="M80.3283 26.5751C77.5726 26.5751 75.3981 25.5676 73.805 23.5525C72.2119 21.5159 71.4153 18.6559 71.4153 14.9725C71.4153 11.3758 72.2011 8.53749 73.7727 6.45748C75.3658 4.37747 77.6479 3.33746 80.6189 3.33746C81.6523 3.33746 82.578 3.48913 83.3961 3.79247C84.2142 4.07413 84.8816 4.39913 85.3983 4.76747V7.91998C84.8171 7.55165 84.1281 7.20498 83.3316 6.87998C82.535 6.55498 81.6954 6.39248 80.8127 6.39248C78.9181 6.39248 77.5403 7.09665 76.6791 8.50499C75.818 9.91332 75.3874 12.0692 75.3874 14.9725C75.3874 17.7892 75.818 19.9234 76.6791 21.375C77.5403 22.805 78.8535 23.52 80.6189 23.52C81.6523 23.52 82.5457 23.3684 83.2993 23.065C84.0528 22.74 84.7525 22.3392 85.3983 21.8625V25.0151C84.9032 25.3617 84.2358 25.7084 83.3961 26.0551C82.5565 26.4017 81.5339 26.5751 80.3283 26.5751Z" fill="black"/>
<path d="M87.8294 9.90249H100.488V26.2501H96.6455V12.9575H91.6723V26.2501H87.8294V9.90249Z" fill="black"/>
<path d="M102.432 22.9025C102.432 22.9025 102.507 22.9567 102.658 23.065C102.809 23.1517 103.024 23.195 103.304 23.195C103.928 23.195 104.337 22.87 104.531 22.22C104.725 21.57 104.854 20.3784 104.919 18.645L105.242 9.90249H116.254V26.2501H112.411V12.9575H108.503L108.277 18.8075C108.191 21.5159 107.857 23.4875 107.276 24.7225C106.695 25.9576 105.586 26.5751 103.95 26.5751C103.498 26.5751 103.132 26.5209 102.852 26.4126C102.572 26.3042 102.432 26.2501 102.432 26.2501V22.9025Z" fill="black"/>
<path d="M119.492 9.90249H123.238V20.01L129.18 9.90249H132.506V26.2501H128.76V16.1425L122.818 26.2501H119.492V9.90249Z" fill="black"/>
<path d="M147.65 12.9575H143.129V26.2501H139.286V12.9575H134.765V9.90249H147.65V12.9575Z" fill="black"/>
<g clip-path="url(#clip0_197_44645)">
<path d="M53.651 15.0719L64.1217 25.8627L63.9081 26.0586L63.8179 26.1446C60.886 28.7765 57.0443 30.1444 53.1201 29.9535C49.1958 29.7627 45.5031 28.0284 42.837 25.1242C40.1709 22.22 38.7448 18.3781 38.8659 14.4261C38.9869 10.474 40.6454 6.72785 43.4841 3.99438C46.4027 1.30635 50.2562 -0.1162 54.2096 0.0349029C58.1631 0.186006 61.8982 1.89859 64.6058 4.80167L53.651 15.0719Z" fill="#01B94F"/>
<path d="M43.4935 3.98971C46.4117 1.30403 50.2637 -0.116648 54.2152 0.035344C58.1668 0.187336 61.8997 1.89976 64.6058 4.80178C64.6058 4.80178 55.896 13.0084 55.7204 13.1517C55.7204 13.1517 53.7696 15.0003 53.7838 15.029C53.7981 15.0576 64.1026 25.8199 64.1026 25.8199L63.8938 26.0205L63.8036 26.1065C57.6522 31.5521 48.2258 31.3037 42.6582 25.2466C39.9844 22.3084 38.5721 18.4262 38.7285 14.4451C38.885 10.464 40.5976 6.70626 43.4935 3.98971V3.98971Z" fill="url(#paint0_radial_197_44645)"/>
<path d="M43.4982 3.98016C46.4188 1.29803 50.2709 -0.119421 54.2217 0.0343306C58.1725 0.188082 61.9044 1.90068 64.6104 4.80178C64.6104 4.80178 56.1333 12.8269 55.7868 13.1087C55.7868 13.1087 53.8882 14.9334 53.9214 14.9908C53.9926 15.1627 64.0883 25.7721 64.0883 25.7721L63.8795 25.9727L63.7893 26.0587C57.6522 31.4947 48.221 31.2272 42.6724 25.1893C40.0026 22.2592 38.5914 18.3861 38.7461 14.4136C38.9008 10.4411 40.6088 6.69106 43.4982 3.98016V3.98016Z" fill="url(#paint1_radial_197_44645)"/>
<path d="M43.508 3.9754C46.4286 1.29679 50.2791 -0.118016 54.2276 0.0366089C58.1761 0.191234 61.9057 1.90288 64.6107 4.8018C64.6107 4.8018 56.3756 12.6406 55.844 13.0657C55.844 13.0657 54.0118 14.8618 54.0451 14.9478C54.1542 15.2057 64.0696 25.7291 64.0696 25.7291L63.856 25.9297L63.7658 26.0109C57.6476 31.4327 48.2212 31.1556 42.6821 25.132C40.0166 22.2101 38.6076 18.3459 38.7623 14.3824C38.917 10.4189 40.623 6.67787 43.508 3.9754V3.9754Z" fill="url(#paint2_radial_197_44645)"/>
<path d="M43.5128 3.97068C46.4338 1.29412 50.2836 -0.118945 54.231 0.0365637C58.1783 0.192073 61.9066 1.90368 64.6108 4.80185C64.6108 4.80185 56.613 12.4448 55.9058 13.0228C55.9058 13.0228 54.1306 14.795 54.1781 14.9096C54.3205 15.2536 64.0507 25.6862 64.0507 25.6862L63.8419 25.882C63.8419 25.882 63.7517 25.9632 63.7517 25.968C57.6477 31.3706 48.2213 31.0745 42.6964 25.0747C40.0353 22.1617 38.6275 18.3074 38.7804 14.3533C38.9334 10.3992 40.6347 6.66667 43.5128 3.97068V3.97068Z" fill="url(#paint3_radial_197_44645)"/>
<path d="M43.522 3.96103C46.4438 1.2886 50.2922 -0.120983 54.2373 0.0362929C58.1824 0.193569 61.908 1.9051 64.6105 4.80176C64.6105 4.80176 56.8548 12.2727 55.9672 12.9797C55.9672 12.9797 54.249 14.7232 54.306 14.8665C54.4863 15.2965 64.0362 25.6383 64.0314 25.6431L63.8226 25.8389L63.7324 25.9249C57.6427 31.3036 48.221 31.0027 42.7104 25.0173C40.0538 22.1118 38.648 18.2661 38.8001 14.3207C38.9522 10.3752 40.6498 6.65073 43.522 3.96103V3.96103Z" fill="url(#paint4_radial_197_44645)"/>
<path d="M43.5268 3.95637C46.4489 1.286 50.2967 -0.121848 54.2406 0.0363114C58.1846 0.194471 61.9088 1.90597 64.6106 4.80187C64.6106 4.80187 57.0922 12.0913 56.029 12.9225C56.029 12.9225 54.3677 14.6374 54.4389 14.8093C54.6525 15.3252 64.0173 25.5763 64.0173 25.5763L63.8084 25.8199L63.7182 25.9012C57.638 31.2417 48.2211 30.9312 42.7199 24.9601C40.0683 22.0629 38.6645 18.2267 38.8158 14.2906C38.967 10.3546 40.6608 6.63894 43.5268 3.95637V3.95637Z" fill="url(#paint5_radial_197_44645)"/>
<path d="M43.5362 3.95153C46.4587 1.28322 50.3058 -0.122895 54.2486 0.0361477C58.1913 0.19519 61.9143 1.90666 64.6152 4.8018C64.6152 4.8018 57.3341 11.9097 56.0953 12.9224C56.0953 12.9224 54.4863 14.6086 54.5669 14.8093C54.8375 15.3873 64.0029 25.5524 63.9981 25.5524L63.7893 25.7482L63.6991 25.8342C57.6379 31.1795 48.2209 30.8546 42.734 24.9027C40.0861 22.0143 38.6837 18.1874 38.834 14.2603C38.9844 10.3333 40.6752 6.62631 43.5362 3.95153V3.95153Z" fill="url(#paint6_radial_197_44645)"/>
<path d="M43.5408 3.94199C46.4643 1.27634 50.3111 -0.1272 54.2527 0.0336201C58.1944 0.19444 61.9156 1.90675 64.6151 4.80182C64.6151 4.80182 57.5713 11.7234 56.1569 12.8556C56.1569 12.8556 54.6048 14.5179 54.6997 14.7663C54.9845 15.4542 63.9838 25.5285 63.979 25.5285C63.9743 25.5285 63.7844 25.7148 63.7702 25.7243L63.68 25.8055C57.633 31.1174 48.2161 30.783 42.7434 24.8645C40.093 21.9832 38.6881 18.1606 38.8377 14.2371C38.9872 10.3136 40.6789 6.61046 43.5408 3.94199V3.94199Z" fill="url(#paint7_radial_197_44645)"/>
<path d="M43.5506 3.93725C46.4742 1.27512 50.3192 -0.125786 54.2586 0.035906C58.1979 0.197598 61.9169 1.90897 64.6153 4.80186C64.6153 4.80186 57.8137 11.542 56.2189 12.8126C56.2189 12.8126 54.7237 14.4463 54.8329 14.7233C55.1509 15.4972 63.9651 25.4808 63.9651 25.4855L63.7562 25.6814L63.666 25.7626C57.6333 31.0744 48.2163 30.7257 42.7817 24.8072C40.1343 21.9368 38.7281 18.1257 38.8723 14.212C39.0165 10.2983 40.6993 6.60252 43.5506 3.93725V3.93725Z" fill="url(#paint8_radial_197_44645)"/>
<path d="M43.5553 3.93242C46.4792 1.27234 50.3236 -0.126829 54.2618 0.0357459C58.2 0.198321 61.9176 1.90966 64.6153 4.8018C64.6153 4.8018 58.0509 11.3556 56.2615 12.7696C56.2615 12.7696 54.8376 14.3794 54.942 14.6803C55.3122 15.5258 63.9508 25.4186 63.946 25.4234L63.7372 25.6145C63.7372 25.6145 63.6565 25.6909 63.647 25.7004C57.6285 30.9932 48.2163 30.6301 42.7626 24.7451C41.4567 23.3262 40.4413 21.6623 39.7744 19.8484C39.1074 18.0345 38.8021 16.1062 38.8757 14.1735C38.9493 12.2409 39.4004 10.3417 40.2034 8.58455C41.0063 6.82737 42.1453 5.24658 43.5553 3.93242V3.93242Z" fill="url(#paint9_radial_197_44645)"/>
<path d="M43.5648 3.9227C46.4895 1.26673 50.3325 -0.128973 54.2684 0.0353672C58.2044 0.199708 61.9193 1.91098 64.6153 4.80163C64.6153 4.80163 58.2931 11.1739 56.3423 12.7264C56.3423 12.7264 54.961 14.3123 55.0939 14.6371C55.4832 15.5925 63.9318 25.3898 63.9318 25.3946L63.723 25.5856L63.6328 25.6668C57.6238 30.9309 48.2163 30.5583 42.7816 24.678C40.1512 21.821 38.7559 18.0294 38.9028 14.1372C39.0497 10.2449 40.7266 6.57078 43.5648 3.9227V3.9227Z" fill="url(#paint10_radial_197_44645)"/>
<path d="M43.5695 3.91817C46.4954 1.26397 50.3385 -0.130133 54.2741 0.0350859C58.2097 0.200305 61.9241 1.91167 64.6201 4.80189C64.6201 4.80189 58.5304 11.0118 56.404 12.6884C56.404 12.6884 55.0844 14.2409 55.2221 14.5992C55.6493 15.6166 63.9176 25.3423 63.9128 25.3423L63.704 25.5381L63.6138 25.6193C57.6238 30.8739 48.2163 30.4917 42.7959 24.6305C41.4941 23.2201 40.4813 21.5651 39.8156 19.7604C39.1499 17.9557 38.8442 16.0366 38.916 14.1129C38.9879 12.1892 39.4359 10.2986 40.2344 8.54934C41.0329 6.80002 42.1662 5.2263 43.5695 3.91817V3.91817Z" fill="url(#paint11_radial_197_44645)"/>
<path d="M43.5791 3.91315C46.5051 1.26245 50.3465 -0.129019 54.2798 0.0370715C58.2131 0.203162 61.9252 1.91359 64.6202 4.80164C64.6202 4.80164 58.7725 10.8061 56.4658 12.6452C56.4658 12.6452 55.2032 14.1738 55.3551 14.5559C55.8297 15.6737 63.8987 25.299 63.8987 25.3038L63.6899 25.4997C63.6899 25.4997 63.6092 25.5713 63.6044 25.5809C57.6239 30.8354 48.2212 30.4198 42.8102 24.5777C37.3992 18.7357 37.6698 9.3062 43.5791 3.91315Z" fill="url(#paint12_radial_197_44645)"/>
<path d="M43.5838 3.90376C46.5106 1.25572 50.3517 -0.133186 54.2839 0.0346798C58.2161 0.202546 61.9265 1.91382 64.62 4.80181C64.62 4.80181 59.0097 10.6152 56.5511 12.5928C56.5511 12.5928 55.3407 14.0927 55.5068 14.5036C56.0052 15.7073 63.8986 25.2419 63.8986 25.2466L63.6897 25.4377L63.5995 25.5189C57.6143 30.74 48.1926 30.334 42.8196 24.5062C37.4466 18.6785 37.6887 9.28247 43.5838 3.90376Z" fill="url(#paint13_radial_197_44645)"/>
<path d="M43.5932 3.89887C46.5202 1.25433 50.3596 -0.131946 54.2894 0.0367904C58.2193 0.205527 61.9274 1.91587 64.62 4.80169C64.62 4.80169 59.2517 10.4384 56.5937 12.5593C56.5937 12.5593 55.4403 14.0353 55.616 14.47C56.1523 15.755 63.8558 25.1988 63.8558 25.2035L63.647 25.3946L63.5568 25.4758C57.6142 30.6778 48.1925 30.2574 42.829 24.4488C37.4655 18.6402 37.7076 9.25848 43.5932 3.89887Z" fill="url(#paint14_radial_197_44645)"/>
<path d="M43.598 3.89424C46.5253 1.25175 50.364 -0.132798 54.2928 0.0368206C58.2215 0.206439 61.9283 1.91675 64.62 4.80184C64.62 4.80184 59.4891 10.257 56.6555 12.5164C56.6555 12.5164 55.559 13.9495 55.7489 14.4272C56.3185 15.7886 63.8558 25.1559 63.8558 25.1607L63.6517 25.3518L63.5615 25.433C57.6095 30.5967 48.1925 30.1859 42.8433 24.3869C37.494 18.5878 37.7219 9.23952 43.598 3.89424Z" fill="url(#paint15_radial_197_44645)"/>
<path d="M43.6076 3.88462C46.5369 1.24709 50.3748 -0.133377 54.3017 0.0379848C58.2286 0.209347 61.9333 1.91896 64.6248 4.80177C64.6248 4.80177 59.7312 10.0563 56.7362 12.4734C56.7362 12.4734 55.6968 13.9064 55.8961 14.3841C56.4847 15.8458 63.8559 25.1081 63.8274 25.1129L63.6186 25.304C63.5908 25.3335 63.5606 25.3606 63.5284 25.3852C57.6096 30.5537 48.1926 30.119 42.8576 24.3343C37.5226 18.5495 37.7504 9.21557 43.6076 3.88462Z" fill="url(#paint16_radial_197_44645)"/>
<path d="M43.6124 3.87989C46.5453 1.24632 50.3855 -0.128106 54.312 0.050422C58.2386 0.22895 61.94 1.94627 64.625 4.83526C64.625 4.83526 59.9687 9.88915 56.7791 12.4448C56.7791 12.4448 55.7966 13.8396 56.0101 14.3555C56.6509 15.908 63.8133 25.0843 63.8086 25.089C63.8038 25.0938 63.6329 25.2562 63.5997 25.2801L63.5143 25.3613C57.605 30.4916 48.1927 30.0331 42.8672 24.277C37.5417 18.5209 37.7506 9.19173 43.6124 3.87989Z" fill="url(#paint17_radial_197_44645)"/>
<path d="M43.6217 3.875C46.5535 1.24318 50.3919 -0.130226 54.3165 0.0482948C58.2412 0.226815 61.9408 1.9431 64.6248 4.83037C64.6248 4.83037 60.2106 9.71707 56.8406 12.4064C56.8406 12.4064 55.915 13.7726 56.1381 14.3172C56.8168 15.9556 63.7989 25.0412 63.7894 25.0459L63.5853 25.237L63.4951 25.3182C57.6 30.4294 48.1925 29.9613 42.8813 24.2195C37.57 18.4778 37.7741 9.16774 43.6217 3.875Z" fill="url(#paint18_radial_197_44645)"/>
<path d="M43.6264 3.84638C46.5585 1.21715 50.3955 -0.1546 54.3187 0.0238926C58.2418 0.202385 61.9402 1.91698 64.6246 4.80175C64.6246 4.80175 60.4478 9.50693 56.9069 12.3348C56.9069 12.3348 56.0336 13.6723 56.2709 14.2456C56.9829 15.97 63.7798 24.9696 63.775 24.9743L63.5662 25.1654L63.476 25.2418C57.5999 30.3674 48.1924 29.8849 42.8907 24.167C37.5889 18.4492 37.793 9.14389 43.6264 3.84638Z" fill="url(#paint19_radial_197_44645)"/>
<path d="M43.636 3.84644C46.5671 1.21895 50.4023 -0.151776 54.3235 0.0267093C58.2447 0.205194 61.9414 1.91876 64.6248 4.80181C62.2651 7.49456 59.7057 10.0032 56.9688 12.3062C56.9688 12.3062 56.1524 13.6198 56.4039 14.2169C57.1491 16.0274 63.7609 24.9314 63.7562 24.9409L63.5521 25.1272L63.4619 25.2084C57.5953 30.3053 48.1926 29.8133 42.905 24.1098C37.6175 18.4062 37.8073 9.10096 43.636 3.84644Z" fill="url(#paint20_radial_197_44645)"/>
<path d="M43.6406 3.84638C46.5722 1.22004 50.4073 -0.149923 54.3281 0.0285452C58.2489 0.207014 61.9454 1.9198 64.6295 4.80175C62.3028 7.48715 59.763 9.97772 57.0351 12.2488C57.0351 12.2488 56.2805 13.5338 56.5605 14.1596C57.3437 16.0703 63.7751 24.874 63.7656 24.8788L63.5615 25.0698L63.4713 25.1511C57.5952 30.2384 48.1925 29.7368 42.9144 24.0524C37.6364 18.368 37.8262 9.1009 43.6406 3.84638Z" fill="url(#paint21_radial_197_44645)"/>
<path d="M43.6501 3.84646C46.5817 1.22416 50.4144 -0.143273 54.3326 0.0351558C58.2508 0.213584 61.9451 1.92378 64.6294 4.80182C62.3393 7.48915 59.817 9.96688 57.0921 12.2059C57.0921 12.2059 56.3943 13.467 56.6649 14.1167C57.4813 16.1182 63.7276 24.8645 63.7229 24.8645C63.7181 24.8645 63.5567 25.0222 63.514 25.0556L63.4286 25.132C57.5904 30.1764 48.1925 29.6414 42.9286 23.9952C37.6648 18.3489 37.8404 9.10098 43.6501 3.84646Z" fill="url(#paint22_radial_197_44645)"/>
<path d="M43.6549 3.8464C46.5863 1.22555 50.4179 -0.140995 54.335 0.0374211C58.252 0.215838 61.9454 1.92513 64.6295 4.80177C62.3764 7.49398 59.8732 9.96365 57.1538 12.1772C57.1538 12.1772 56.5131 13.4096 56.7931 14.0879C57.6522 16.1563 63.7134 24.7976 63.7039 24.8024L63.4998 24.9887L63.4097 25.0699C57.5858 30.119 48.1925 29.5888 42.9429 23.9378C37.6934 18.2868 37.8595 9.05315 43.6549 3.8464Z" fill="url(#paint23_radial_197_44645)"/>
<path d="M43.6597 3.84647C46.5908 1.22706 50.4215 -0.138596 54.3374 0.0398085C58.2533 0.218213 61.9456 1.92661 64.6296 4.80183C62.415 7.49877 59.9288 9.95762 57.2109 12.1391C57.2109 12.1391 56.6271 13.3428 56.9213 14.0498C57.8137 16.2041 63.6898 24.7499 63.685 24.7595L63.4762 24.9457L63.386 25.027C57.5858 30.0522 48.1926 29.5124 42.9715 23.8805C37.7504 18.2486 37.8786 9.02933 43.6597 3.84647Z" fill="url(#paint24_radial_197_44645)"/>
<path d="M43.6692 3.84648C46.5998 1.22995 50.4284 -0.13392 54.342 0.0444611C58.2556 0.222842 61.946 1.92943 64.6296 4.80185C62.4565 7.4997 59.9922 9.94613 57.282 12.0961C57.282 12.0961 56.7504 13.2759 57.059 14.0068C58.0082 16.2471 63.704 24.7069 63.6708 24.7165L63.4667 24.9028L63.3765 24.9792C57.5811 29.9901 48.1926 29.436 42.9715 23.8232C37.7504 18.2104 37.8928 9.00546 43.6692 3.84648Z" fill="url(#paint25_radial_197_44645)"/>
<path d="M43.6739 3.84651C46.6047 1.23257 50.432 -0.129669 54.3441 0.0486845C58.2562 0.227038 61.9454 1.93195 64.6295 4.80188C62.5001 7.50559 60.0537 9.94033 57.3436 12.0531C57.3436 12.0531 56.869 13.2043 57.187 13.9639C58.1363 16.2902 63.6612 24.6592 63.6517 24.664C63.6422 24.6687 63.4951 24.812 63.4476 24.8503L63.3574 24.9315C57.581 29.928 48.1925 29.3644 42.9714 23.7659C37.7503 18.1675 37.9117 8.98161 43.6739 3.84651Z" fill="url(#paint26_radial_197_44645)"/>
<path d="M43.6832 3.81782C46.6174 1.20893 50.4458 -0.147425 54.3568 0.03627C58.2678 0.219965 61.954 1.92927 64.634 4.80185C64.634 4.80185 62.3652 8.05009 57.4052 12.0101C57.4052 12.0101 56.9875 13.1374 57.3198 13.9208C58.3165 16.3092 63.642 24.6162 63.6373 24.6209L63.4284 24.8072L63.343 24.8884C57.5761 29.8659 48.1923 29.2879 42.9712 23.7086C37.7502 18.1292 37.9258 8.95769 43.6832 3.81782Z" fill="url(#paint27_radial_197_44645)"/>
<path d="M43.6882 3.80822C46.6238 1.20311 50.4516 -0.149945 54.3612 0.0355055C58.2707 0.220956 61.9551 1.93036 64.6343 4.8018C64.6343 4.8018 62.6076 7.84942 57.4671 11.9671C57.2756 12.5894 57.2756 13.2555 57.4671 13.8778C58.5019 16.3761 63.6375 24.5636 63.6375 24.5731L63.4334 24.7594L63.3432 24.8358C57.5716 29.8038 48.1926 29.2162 43.0047 23.656C37.8168 18.0957 37.945 8.93854 43.6882 3.80822Z" fill="url(#paint28_radial_197_44645)"/>
<path d="M43.6976 3.80347C46.6323 1.19957 50.4589 -0.152389 54.3669 0.0339631C58.2749 0.220315 61.9573 1.93034 64.6342 4.80183C64.6342 4.80183 62.8448 7.66793 57.5145 11.905C57.3468 12.5334 57.365 13.1975 57.5668 13.8157C58.6347 16.4334 63.609 24.5349 63.5995 24.5445L63.3954 24.7308L63.31 24.8072C57.5715 29.7417 48.1925 29.1637 43.0141 23.5987C37.8358 18.0337 37.9639 8.91469 43.6976 3.80347Z" fill="url(#paint29_radial_197_44645)"/>
<path d="M43.7025 3.79858C46.6375 1.19671 50.4634 -0.153526 54.3703 0.0337063C58.2772 0.220938 61.9583 1.93094 64.6344 4.80171C64.6344 4.80171 63.087 7.50062 57.5906 11.8858C57.4584 12.5218 57.4994 13.182 57.7093 13.7965C58.8152 16.4667 63.5949 24.4775 63.5854 24.487L63.3813 24.6686L63.2911 24.7498C57.5669 29.6794 48.1926 29.0632 43.0285 23.5412C37.7837 17.9428 37.9783 8.89068 43.7025 3.79858Z" fill="url(#paint30_radial_197_44645)"/>
<path d="M43.7119 3.78919C46.6481 1.19255 50.4724 -0.153515 54.3766 0.0354593C58.2809 0.224433 61.9592 1.93364 64.6342 4.80188C64.6342 4.80188 63.3242 7.30017 57.6522 11.8238C57.5543 12.4667 57.6196 13.124 57.842 13.7346C58.9812 16.4908 63.5758 24.4156 63.5663 24.4203L63.3622 24.6066L63.272 24.6831C57.5762 29.5793 48.202 28.9822 43.0379 23.4506C37.8737 17.9191 37.9971 8.86697 43.7119 3.78919Z" fill="url(#paint31_radial_197_44645)"/>
<path d="M43.7168 3.7842C46.6541 1.18929 50.4786 -0.155195 54.3825 0.0346536C58.2864 0.224502 61.9641 1.93382 64.6392 4.80166C64.6392 4.80166 63.5665 7.11365 57.7188 11.7806C57.6548 12.4289 57.7426 13.0833 57.9752 13.6914C59.1475 16.5718 63.557 24.3867 63.5475 24.4106L63.3434 24.5969L63.258 24.6733C57.5622 29.5504 48.1927 28.9151 43.0523 23.4313C37.8312 17.8615 38.0163 8.84286 43.7168 3.7842Z" fill="url(#paint32_radial_197_44645)"/>
<path d="M43.7262 3.77961C46.6631 1.18704 50.4861 -0.155598 54.3881 0.0351354C58.29 0.225869 61.9657 1.93505 64.6391 4.80185C64.6391 4.80185 63.8037 6.95143 57.7805 11.7569C57.7536 12.4096 57.8636 13.0606 58.1032 13.6677C59.3136 16.615 63.5427 24.3582 63.5332 24.3869L63.3291 24.5684L63.2389 24.6448C57.5574 29.4885 48.1927 28.8437 43.0617 23.3694C37.8549 17.8187 38.0305 8.81917 43.7262 3.77961Z" fill="url(#paint33_radial_197_44645)"/>
<path d="M43.7311 3.77004C46.6694 1.18125 50.4918 -0.158101 54.3923 0.0343855C58.2928 0.226872 61.9666 1.93615 64.6392 4.80184C64.6392 4.80184 64.0459 6.76511 57.8423 11.7139C57.8525 12.3779 57.9861 13.034 58.2362 13.6485C59.4845 16.6627 63.5238 24.3152 63.5143 24.3247L63.3102 24.5063L63.2248 24.5827C57.5575 29.4264 48.1927 28.7672 43.0761 23.3121C37.8787 17.7805 38.0496 8.79527 43.7311 3.77004Z" fill="url(#paint34_radial_197_44645)"/>
<path d="M43.7403 3.76521C46.6803 1.1866 50.4993 -0.144206 54.3941 0.0526748C58.289 0.249556 61.9563 1.95878 64.6247 4.82089C64.6247 4.82089 64.2687 6.58354 57.8895 11.6709C57.9446 12.337 58.1048 12.9901 58.3641 13.6055C59.6504 16.7104 63.5093 24.2721 63.4998 24.2817L63.2957 24.4632C63.2635 24.4861 63.2334 24.5116 63.2055 24.5397C57.5525 29.3643 48.1925 28.6859 43.0901 23.2547C37.9022 17.7374 38.0636 8.77611 43.7403 3.76521Z" fill="url(#paint35_radial_197_44645)"/>
<path d="M43.745 3.76053C46.685 1.18137 50.5046 -0.149344 54.3999 0.0484471C58.2951 0.246238 61.9622 1.95711 64.6294 4.82098C64.6294 4.82098 64.5155 6.40212 57.9559 11.628C58.049 12.2948 58.2277 12.9467 58.4875 13.5674C59.8165 16.744 63.4902 24.2245 63.4807 24.234L63.2766 24.4156C63.2482 24.4156 63.2149 24.4729 63.1865 24.492C57.5477 29.3023 48.1924 28.6192 43.0995 23.1975C37.9258 17.6993 38.0825 8.75232 43.745 3.76053Z" fill="url(#paint36_radial_197_44645)"/>
<path d="M43.7545 3.75088C46.6967 1.1752 50.5165 -0.152378 54.4111 0.0471596C58.3056 0.246697 61.9717 1.95781 64.6389 4.82089C64.6389 4.82089 64.7623 6.23484 58.027 11.5897C58.165 12.2533 58.3685 12.9014 58.6346 13.5243C59.9873 16.8012 63.4807 24.1814 63.4665 24.191C63.4522 24.2005 63.3288 24.3199 63.2624 24.3725L63.1769 24.4489C57.5524 29.2496 48.1924 28.5427 43.1137 23.1401C37.9448 17.6562 38.1014 8.72835 43.7545 3.75088Z" fill="url(#paint37_radial_197_44645)"/>
<path d="M43.7594 3.74607C46.7024 1.17044 50.5231 -0.156215 54.4181 0.0451243C58.313 0.246463 61.9786 1.96011 64.6438 4.82563C64.6438 4.82563 65.0045 6.03417 58.0937 11.5466C58.2712 12.2076 58.4932 12.8555 58.7582 13.486C60.1489 16.8298 63.4572 24.1384 63.4477 24.1479L63.2436 24.3295L63.1534 24.4059C57.5479 29.1636 48.1926 28.4662 43.1234 23.0875C37.9688 17.6132 38.1159 8.70442 43.7594 3.74607Z" fill="url(#paint38_radial_197_44645)"/>
<path d="M43.7691 3.74136C46.7126 1.16634 50.5337 -0.159493 54.4286 0.0427376C58.3236 0.244968 61.9888 1.9595 64.6535 4.8257C64.6535 4.8257 65.242 5.84794 58.1603 11.4894C58.1603 11.4894 58.4214 12.2919 58.896 13.4288C60.3199 16.8776 63.4431 24.0811 63.4336 24.0907L63.2295 24.2722L63.1441 24.3438C57.5433 29.1159 48.1927 28.3946 43.1378 23.0302C37.9926 17.5703 38.135 8.6806 43.7691 3.74136Z" fill="url(#paint39_radial_197_44645)"/>
<path d="M63.4098 24.062C57.866 29.0776 48.2829 28.4137 43.1472 22.9537C38.0116 17.4938 38.1492 8.62323 43.7738 3.71264C46.719 1.13995 50.5406 -0.183478 54.4352 0.020517C58.3298 0.224512 61.9942 1.94005 64.6582 4.80654C64.6582 4.80654 65.4983 5.64726 58.2315 11.4416C58.2172 11.4607 63.4288 24.0476 63.4098 24.062Z" fill="url(#paint40_radial_197_44645)"/>
<path d="M58.0082 11.6221C55.7347 13.4994 52.939 15.711 49.6877 18.1902C52.103 20.8189 54.9121 23.0512 58.013 24.8061C60.6757 26.2392 62.7594 26.5067 63.7799 25.5991C64.8004 24.6915 64.677 22.5992 63.4904 19.8669C62.0854 16.8568 60.2372 14.0772 58.0082 11.6221V11.6221Z" fill="url(#paint41_linear_197_44645)"/>
<path d="M58.2123 11.4358L57.0732 12.3912C59.1589 14.6987 60.8929 17.305 62.2183 20.1249C63.3812 22.819 63.3527 24.1708 62.9778 24.51C62.6028 24.8491 60.9842 24.9351 58.3974 23.5546C55.5319 21.9192 52.9402 19.8396 50.7177 17.3925L49.4456 18.3479L49.7446 18.6393C55.1319 24.2425 60.9605 27.4334 63.5236 26.2726C63.5995 26.2344 63.6755 26.1962 63.7467 26.1532H63.7752C63.8743 26.0913 63.968 26.021 64.0552 25.943C64.1476 25.8589 64.2318 25.7662 64.3068 25.666C65.9823 23.4543 63.4382 17.4976 58.3689 11.6603L58.2123 11.4358Z" fill="#84EEB1"/>
</g>
<defs>
<radialGradient id="paint0_radial_197_44645" cx="0" cy="0" r="1" gradientUnits="userSpaceOnUse" gradientTransform="translate(57.4332 1.69951) rotate(-2.30526) scale(68.333 50.8902)">
<stop stop-color="#03BA50"/>
<stop offset="0.8" stop-color="#01B64E"/>
</radialGradient>
<radialGradient id="paint1_radial_197_44645" cx="0" cy="0" r="1" gradientUnits="userSpaceOnUse" gradientTransform="translate(57.4262 1.69397) rotate(-2.30526) scale(68.1905 50.784)">
<stop stop-color="#04BC50"/>
<stop offset="0.8" stop-color="#01B34D"/>
</radialGradient>
<radialGradient id="paint2_radial_197_44645" cx="0" cy="0" r="1" gradientUnits="userSpaceOnUse" gradientTransform="translate(57.4102 1.70689) rotate(-2.30526) scale(68.048 50.6779)">
<stop stop-color="#06BD51"/>
<stop offset="0.72" stop-color="#02B24C"/>
<stop offset="0.8" stop-color="#01B04B"/>
</radialGradient>
<radialGradient id="paint3_radial_197_44645" cx="0" cy="0" r="1" gradientUnits="userSpaceOnUse" gradientTransform="translate(57.3846 1.72852) rotate(-2.30526) scale(67.9055 50.5718)">
<stop stop-color="#08BF52"/>
<stop offset="0.56" stop-color="#04B44D"/>
<stop offset="0.8" stop-color="#01AD4A"/>
</radialGradient>
<radialGradient id="paint4_radial_197_44645" cx="0" cy="0" r="1" gradientUnits="userSpaceOnUse" gradientTransform="translate(57.3589 1.74917) rotate(-2.30526) scale(67.763 50.4656)">
<stop stop-color="#0AC053"/>
<stop offset="0.48" stop-color="#05B54E"/>
<stop offset="0.8" stop-color="#01AA49"/>
</radialGradient>
<radialGradient id="paint5_radial_197_44645" cx="0" cy="0" r="1" gradientUnits="userSpaceOnUse" gradientTransform="translate(57.329 1.80092) rotate(-1.72935) scale(67.5918 50.3534)">
<stop stop-color="#0BC253"/>
<stop offset="0.42" stop-color="#07B74E"/>
<stop offset="0.8" stop-color="#01A848"/>
</radialGradient>
<radialGradient id="paint6_radial_197_44645" cx="0" cy="0" r="1" gradientUnits="userSpaceOnUse" gradientTransform="translate(57.2896 1.81389) rotate(-1.72935) scale(67.4493 50.2473)">
<stop stop-color="#0DC354"/>
<stop offset="0.37" stop-color="#08B84F"/>
<stop offset="0.8" stop-color="#01A546"/>
</radialGradient>
<radialGradient id="paint7_radial_197_44645" cx="0" cy="0" r="1" gradientUnits="userSpaceOnUse" gradientTransform="translate(57.7907 1.82724) rotate(-1.72935) scale(67.3068 50.1208)">
<stop stop-color="#0FC555"/>
<stop offset="0.33" stop-color="#0ABA50"/>
<stop offset="0.8" stop-color="#01A245"/>
</radialGradient>
<radialGradient id="paint8_radial_197_44645" cx="0" cy="0" r="1" gradientUnits="userSpaceOnUse" gradientTransform="translate(57.7409 1.8515) rotate(-1.71224) scale(67.8354 50.0148)">
<stop stop-color="#11C656"/>
<stop offset="0.3" stop-color="#0CBB51"/>
<stop offset="0.8" stop-color="#019F44"/>
</radialGradient>
<radialGradient id="paint9_radial_197_44645" cx="0" cy="0" r="1" gradientUnits="userSpaceOnUse" gradientTransform="translate(57.7242 1.87594) rotate(-1.71224) scale(67.6916 49.9087)">
<stop stop-color="#12C856"/>
<stop offset="0.28" stop-color="#0EBD51"/>
<stop offset="0.77" stop-color="#029E44"/>
<stop offset="0.8" stop-color="#019C43"/>
</radialGradient>
<radialGradient id="paint10_radial_197_44645" cx="0" cy="0" r="1" gradientUnits="userSpaceOnUse" gradientTransform="translate(57.7076 1.90888) rotate(-1.71224) scale(67.5429 49.7991)">
<stop stop-color="#14C957"/>
<stop offset="0.26" stop-color="#0FBE52"/>
<stop offset="0.72" stop-color="#049F44"/>
<stop offset="0.8" stop-color="#019941"/>
</radialGradient>
<radialGradient id="paint11_radial_197_44645" cx="0" cy="0" r="1" gradientUnits="userSpaceOnUse" gradientTransform="translate(57.6768 1.94973) rotate(-1.71224) scale(67.399 49.693)">
<stop stop-color="#16CB58"/>
<stop offset="0.24" stop-color="#11C053"/>
<stop offset="0.66" stop-color="#06A145"/>
<stop offset="0.8" stop-color="#019640"/>
</radialGradient>
<radialGradient id="paint12_radial_197_44645" cx="0" cy="0" r="1" gradientUnits="userSpaceOnUse" gradientTransform="translate(57.6413 1.99377) rotate(-1.71224) scale(67.2552 49.587)">
<stop stop-color="#18CC59"/>
<stop offset="0.23" stop-color="#13C154"/>
<stop offset="0.62" stop-color="#07A246"/>
<stop offset="0.8" stop-color="#01933F"/>
</radialGradient>
<radialGradient id="paint13_radial_197_44645" cx="0" cy="0" r="1" gradientUnits="userSpaceOnUse" gradientTransform="translate(57.6056 2.04681) rotate(-1.71224) scale(67.1064 49.4773)">
<stop stop-color="#19CD59"/>
<stop offset="0.21" stop-color="#15C254"/>
<stop offset="0.59" stop-color="#09A347"/>
<stop offset="0.8" stop-color="#01903E"/>
</radialGradient>
<radialGradient id="paint14_radial_197_44645" cx="0" cy="0" r="1" gradientUnits="userSpaceOnUse" gradientTransform="translate(57.5605 2.10341) rotate(-1.71224) scale(66.9626 49.3712)">
<stop stop-color="#1BCF5A"/>
<stop offset="0.2" stop-color="#17C455"/>
<stop offset="0.56" stop-color="#0BA547"/>
<stop offset="0.8" stop-color="#018D3C"/>
</radialGradient>
<radialGradient id="paint15_radial_197_44645" cx="0" cy="0" r="1" gradientUnits="userSpaceOnUse" gradientTransform="translate(57.5109 1.896) rotate(-1.14168) scale(66.8021 49.2642)">
<stop stop-color="#1DD05B"/>
<stop offset="0.19" stop-color="#18C556"/>
<stop offset="0.54" stop-color="#0CA648"/>
<stop offset="0.8" stop-color="#018B3B"/>
</radialGradient>
<radialGradient id="paint16_radial_197_44645" cx="0" cy="0" r="1" gradientUnits="userSpaceOnUse" gradientTransform="translate(57.4565 1.93902) rotate(-1.14168) scale(66.6534 49.1546)">
<stop stop-color="#1ED25B"/>
<stop offset="0.18" stop-color="#1AC756"/>
<stop offset="0.51" stop-color="#0EA848"/>
<stop offset="0.8" stop-color="#01883A"/>
</radialGradient>
<radialGradient id="paint17_radial_197_44645" cx="0" cy="0" r="1" gradientUnits="userSpaceOnUse" gradientTransform="translate(57.4022 1.98101) rotate(-1.14168) scale(66.5096 49.0485)">
<stop stop-color="#20D35C"/>
<stop offset="0.18" stop-color="#1BC857"/>
<stop offset="0.49" stop-color="#0FA949"/>
<stop offset="0.8" stop-color="#018539"/>
</radialGradient>
<radialGradient id="paint18_radial_197_44645" cx="0" cy="0" r="1" gradientUnits="userSpaceOnUse" gradientTransform="translate(57.3382 2.03975) rotate(-1.14168) scale(66.3658 48.9424)">
<stop stop-color="#22D55D"/>
<stop offset="0.17" stop-color="#1DCA58"/>
<stop offset="0.47" stop-color="#11AB4A"/>
<stop offset="0.8" stop-color="#018237"/>
</radialGradient>
<radialGradient id="paint19_radial_197_44645" cx="0" cy="0" r="1" gradientUnits="userSpaceOnUse" gradientTransform="translate(57.2647 2.09405) rotate(-1.14168) scale(66.2171 48.8328)">
<stop stop-color="#24D65E"/>
<stop offset="0.16" stop-color="#1FCB59"/>
<stop offset="0.45" stop-color="#13AC4B"/>
<stop offset="0.8" stop-color="#017F36"/>
</radialGradient>
<radialGradient id="paint20_radial_197_44645" cx="0" cy="0" r="1" gradientUnits="userSpaceOnUse" gradientTransform="translate(57.1867 2.1604) rotate(-1.14168) scale(66.0733 48.7267)">
<stop stop-color="#25D85E"/>
<stop offset="0.15" stop-color="#20CD59"/>
<stop offset="0.43" stop-color="#14AE4B"/>
<stop offset="0.79" stop-color="#017D36"/>
<stop offset="0.8" stop-color="#007C35"/>
</radialGradient>
<radialGradient id="paint21_radial_197_44645" cx="0" cy="0" r="1" gradientUnits="userSpaceOnUse" gradientTransform="translate(58.6233 2.23515) rotate(-1.14168) scale(65.9295 48.6076)">
<stop stop-color="#27D95F"/>
<stop offset="0.15" stop-color="#22CE5A"/>
<stop offset="0.42" stop-color="#16AF4C"/>
<stop offset="0.77" stop-color="#027E36"/>
<stop offset="0.8" stop-color="#007934"/>
</radialGradient>
<radialGradient id="paint22_radial_197_44645" cx="0" cy="0" r="1" gradientUnits="userSpaceOnUse" gradientTransform="translate(58.1322 2.31242) rotate(-1.13049) scale(66.4319 48.4982)">
<stop stop-color="#29DB60"/>
<stop offset="0.14" stop-color="#24D05B"/>
<stop offset="0.4" stop-color="#18B14D"/>
<stop offset="0.74" stop-color="#048037"/>
<stop offset="0.8" stop-color="#007632"/>
</radialGradient>
<radialGradient id="paint23_radial_197_44645" cx="0" cy="0" r="1" gradientUnits="userSpaceOnUse" gradientTransform="translate(58.0743 2.39816) rotate(-1.13049) scale(66.2866 48.3921)">
<stop stop-color="#2BDC61"/>
<stop offset="0.14" stop-color="#26D15C"/>
<stop offset="0.39" stop-color="#1AB24E"/>
<stop offset="0.71" stop-color="#068138"/>
<stop offset="0.8" stop-color="#007331"/>
</radialGradient>
<radialGradient id="paint24_radial_197_44645" cx="0" cy="0" r="1" gradientUnits="userSpaceOnUse" gradientTransform="translate(58.0164 2.49243) rotate(-1.13049) scale(66.1365 48.2825)">
<stop stop-color="#2CDE61"/>
<stop offset="0.13" stop-color="#27D35C"/>
<stop offset="0.37" stop-color="#1BB44E"/>
<stop offset="0.69" stop-color="#088339"/>
<stop offset="0.8" stop-color="#007030"/>
</radialGradient>
<radialGradient id="paint25_radial_197_44645" cx="0" cy="0" r="1" gradientUnits="userSpaceOnUse" gradientTransform="translate(57.9535 2.01418) rotate(-0.5653) scale(65.9816 48.1771)">
<stop stop-color="#2EDF62"/>
<stop offset="0.13" stop-color="#29D45D"/>
<stop offset="0.37" stop-color="#1DB54F"/>
<stop offset="0.67" stop-color="#098439"/>
<stop offset="0.8" stop-color="#006E2F"/>
</radialGradient>
<radialGradient id="paint26_radial_197_44645" cx="0" cy="0" r="1" gradientUnits="userSpaceOnUse" gradientTransform="translate(57.8808 2.08897) rotate(-0.5653) scale(65.8363 48.071)">
<stop stop-color="#30E163"/>
<stop offset="0.13" stop-color="#2BD65E"/>
<stop offset="0.35" stop-color="#1FB750"/>
<stop offset="0.65" stop-color="#0B8639"/>
<stop offset="0.8" stop-color="#006B2D"/>
</radialGradient>
<radialGradient id="paint27_radial_197_44645" cx="0" cy="0" r="1" gradientUnits="userSpaceOnUse" gradientTransform="translate(57.808 2.17206) rotate(-0.565301) scale(65.6862 47.9614)">
<stop stop-color="#31E263"/>
<stop offset="0.12" stop-color="#2CD75E"/>
<stop offset="0.34" stop-color="#20B850"/>
<stop offset="0.63" stop-color="#0D873A"/>
<stop offset="0.8" stop-color="#00682C"/>
</radialGradient>
<radialGradient id="paint28_radial_197_44645" cx="0" cy="0" r="1" gradientUnits="userSpaceOnUse" gradientTransform="translate(57.726 2.25876) rotate(-0.565301) scale(65.541 47.8554)">
<stop stop-color="#33E364"/>
<stop offset="0.12" stop-color="#2ED85F"/>
<stop offset="0.34" stop-color="#22B951"/>
<stop offset="0.62" stop-color="#0E883B"/>
<stop offset="0.8" stop-color="#00652B"/>
</radialGradient>
<radialGradient id="paint29_radial_197_44645" cx="0" cy="0" r="1" gradientUnits="userSpaceOnUse" gradientTransform="translate(57.6389 2.3527) rotate(-0.5653) scale(65.3909 47.7458)">
<stop stop-color="#35E565"/>
<stop offset="0.12" stop-color="#30DA60"/>
<stop offset="0.33" stop-color="#24BB52"/>
<stop offset="0.6" stop-color="#108A3C"/>
<stop offset="0.8" stop-color="#00622A"/>
</radialGradient>
<radialGradient id="paint30_radial_197_44645" cx="0" cy="0" r="1" gradientUnits="userSpaceOnUse" gradientTransform="translate(57.5518 2.45008) rotate(-0.5653) scale(65.2456 47.6397)">
<stop stop-color="#37E666"/>
<stop offset="0.11" stop-color="#32DB61"/>
<stop offset="0.32" stop-color="#26BC53"/>
<stop offset="0.59" stop-color="#128B3C"/>
<stop offset="0.8" stop-color="#005F28"/>
</radialGradient>
<radialGradient id="paint31_radial_197_44645" cx="0" cy="0" r="1" gradientUnits="userSpaceOnUse" gradientTransform="translate(57.4548 2.5562) rotate(-0.5653) scale(65.0956 47.5301)">
<stop stop-color="#38E866"/>
<stop offset="0.11" stop-color="#33DD61"/>
<stop offset="0.31" stop-color="#27BE53"/>
<stop offset="0.57" stop-color="#148D3D"/>
<stop offset="0.8" stop-color="#005C27"/>
</radialGradient>
<radialGradient id="paint32_radial_197_44645" cx="0" cy="0" r="1" gradientUnits="userSpaceOnUse" gradientTransform="translate(57.3534 2.66905) rotate(-0.565301) scale(64.9503 47.4241)">
<stop stop-color="#3AE967"/>
<stop offset="0.11" stop-color="#35DE62"/>
<stop offset="0.3" stop-color="#29BF54"/>
<stop offset="0.56" stop-color="#158E3E"/>
<stop offset="0.8" stop-color="#005926"/>
</radialGradient>
<radialGradient id="paint33_radial_197_44645" cx="0" cy="0" r="1" gradientUnits="userSpaceOnUse" gradientTransform="translate(57.2516 2.78593) rotate(-0.565301) scale(64.8051 47.318)">
<stop stop-color="#3CEB68"/>
<stop offset="0.11" stop-color="#37E063"/>
<stop offset="0.29" stop-color="#2BC155"/>
<stop offset="0.54" stop-color="#17903F"/>
<stop offset="0.8" stop-color="#005625"/>
</radialGradient>
<radialGradient id="paint34_radial_197_44645" cx="0" cy="0" r="1" gradientUnits="userSpaceOnUse" gradientTransform="translate(57.1354 2.91107) rotate(-0.5653) scale(64.655 47.2084)">
<stop stop-color="#3EEC69"/>
<stop offset="0.1" stop-color="#39E164"/>
<stop offset="0.29" stop-color="#2DC256"/>
<stop offset="0.53" stop-color="#19913F"/>
<stop offset="0.8" stop-color="#005323"/>
</radialGradient>
<radialGradient id="paint35_radial_197_44645" cx="0" cy="0" r="1" gradientUnits="userSpaceOnUse" gradientTransform="translate(57.019 2.16775) scale(64.5066 47.0984)">
<stop stop-color="#3FEE69"/>
<stop offset="0.1" stop-color="#3AE364"/>
<stop offset="0.28" stop-color="#2EC456"/>
<stop offset="0.52" stop-color="#1A9340"/>
<stop offset="0.8" stop-color="#005122"/>
</radialGradient>
<radialGradient id="paint36_radial_197_44645" cx="0" cy="0" r="1" gradientUnits="userSpaceOnUse" gradientTransform="translate(58.5418 2.27235) scale(64.9875 46.9889)">
<stop stop-color="#41EF6A"/>
<stop offset="0.1" stop-color="#3CE465"/>
<stop offset="0.28" stop-color="#30C557"/>
<stop offset="0.51" stop-color="#1C9441"/>
<stop offset="0.79" stop-color="#015022"/>
<stop offset="0.8" stop-color="#004E21"/>
</radialGradient>
<radialGradient id="paint37_radial_197_44645" cx="0" cy="0" r="1" gradientUnits="userSpaceOnUse" gradientTransform="translate(58.448 2.38509) scale(64.8456 46.8864)">
<stop stop-color="#43F16B"/>
<stop offset="0.1" stop-color="#3EE666"/>
<stop offset="0.27" stop-color="#32C758"/>
<stop offset="0.5" stop-color="#1E9642"/>
<stop offset="0.77" stop-color="#035223"/>
<stop offset="0.8" stop-color="#004B20"/>
</radialGradient>
<radialGradient id="paint38_radial_197_44645" cx="0" cy="0" r="1" gradientUnits="userSpaceOnUse" gradientTransform="translate(58.3591 2.50495) scale(64.6989 46.7803)">
<stop stop-color="#45F26C"/>
<stop offset="0.1" stop-color="#40E767"/>
<stop offset="0.27" stop-color="#34C859"/>
<stop offset="0.49" stop-color="#209742"/>
<stop offset="0.76" stop-color="#055323"/>
<stop offset="0.8" stop-color="#00481E"/>
</radialGradient>
<radialGradient id="paint39_radial_197_44645" cx="0" cy="0" r="1" gradientUnits="userSpaceOnUse" gradientTransform="translate(58.2651 2.63322) scale(64.5475 46.6707)">
<stop stop-color="#46F46C"/>
<stop offset="0.09" stop-color="#41E967"/>
<stop offset="0.26" stop-color="#35CA59"/>
<stop offset="0.48" stop-color="#229943"/>
<stop offset="0.74" stop-color="#065524"/>
<stop offset="0.8" stop-color="#00451D"/>
</radialGradient>
<radialGradient id="paint40_radial_197_44645" cx="0" cy="0" r="1" gradientUnits="userSpaceOnUse" gradientTransform="translate(58.1757 2.76845) scale(64.3959 46.5611)">
<stop stop-color="#48F56D"/>
<stop offset="0.09" stop-color="#43EA68"/>
<stop offset="0.25" stop-color="#37CB5A"/>
<stop offset="0.47" stop-color="#239A44"/>
<stop offset="0.73" stop-color="#085625"/>
<stop offset="0.8" stop-color="#00421C"/>
</radialGradient>
<linearGradient id="paint41_linear_197_44645" x1="59.2233" y1="36.2467" x2="53.6" y2="-3.82118" gradientUnits="userSpaceOnUse">
<stop offset="0.1" stop-color="#FF8475"/>
<stop offset="0.37" stop-color="#E84E43"/>
<stop offset="0.6" stop-color="#D6261F"/>
<stop offset="0.79" stop-color="#CC0E08"/>
<stop offset="0.9" stop-color="#C80500"/>
</linearGradient>
<clipPath id="clip0_197_44645">
<rect width="29.8092" height="30" fill="white" transform="translate(38.6996)"/>
</clipPath>
</defs>
</svg>
