<svg width="255" height="45" viewBox="0 0 255 45" fill="none" xmlns="http://www.w3.org/2000/svg">
<path d="M17.0271 36.0517L17.0271 0.794141H22.6369L22.6369 36.0517C22.8176 36.3588 23.1247 36.7382 23.5583 37.1899C24.7327 38.31 26.1238 38.8701 27.7318 38.8701C29.3397 38.8701 30.7309 38.301 31.9052 37.1628C33.0796 36.0065 33.6667 34.6244 33.6667 33.0164L33.6667 0.794141L39.3036 0.794141L39.3036 33.2332C39.2313 36.2865 38.1022 38.9062 35.9161 41.0923C33.6577 43.3688 30.9296 44.507 27.7318 44.507C24.552 44.507 21.9233 43.3868 19.8456 41.1465C17.7498 43.3868 15.1121 44.507 11.9323 44.507C8.73444 44.507 6.01538 43.3688 3.77508 41.0923C1.57092 38.9243 0.441741 36.3046 0.387541 33.2332L0.387541 0.794141L5.99731 0.794141L5.99731 33.0164C5.99731 34.6244 6.58448 36.0065 7.75883 37.1628C8.93318 38.301 10.3243 38.8701 11.9323 38.8701C13.5583 38.8701 14.9494 38.31 16.1057 37.1899C16.5574 36.7382 16.8645 36.3588 17.0271 36.0517ZM67.7319 0.225034C73.8565 0.225034 79.0869 2.39306 83.4229 6.72911C87.759 11.0652 89.927 16.2955 89.927 22.4202C89.927 28.5449 87.759 33.7752 83.4229 38.1113C79.0869 42.4473 73.8565 44.6154 67.7319 44.6154C61.6072 44.6154 56.3768 42.4473 52.0408 38.1113C47.7047 33.7752 45.5367 28.5449 45.5367 22.4202C45.5367 16.2955 47.7047 11.0652 52.0408 6.72911C56.3768 2.39306 61.6072 0.225034 67.7319 0.225034ZM67.7319 5.889C63.1609 5.889 59.2585 7.50599 56.0245 10.74C52.8086 13.9559 51.2007 17.8493 51.2007 22.4202C51.2007 26.9911 52.8176 30.8936 56.0516 34.1275C59.2856 37.3615 63.179 38.9785 67.7319 38.9785C72.3028 38.9785 76.1962 37.3615 79.4121 34.1275C82.6461 30.8936 84.2631 26.9911 84.2631 22.4202C84.2631 17.8493 82.6461 13.9559 79.4121 10.74C76.1962 7.50599 72.3028 5.889 67.7319 5.889ZM103.884 0.794141L117.949 25.1031L131.96 0.794141L137.082 0.794141V44.1547H131.472V12.8267L117.949 36.2414L104.371 12.8267L104.371 44.1547H98.7617L98.7617 0.794141L103.884 0.794141ZM163.64 34.8593C163.64 37.8584 162.818 40.189 161.174 41.8511C159.421 43.6217 157.298 44.507 154.805 44.507C152.33 44.507 150.216 43.6307 148.464 41.8782C146.729 40.1077 145.862 37.759 145.862 34.8322L150.307 33.0977C150.812 35.8439 151.454 37.5331 152.231 38.1655C152.809 38.6533 153.586 38.8972 154.561 38.8972H154.67C155.7 38.8791 156.549 38.5449 157.217 37.8945C157.759 37.3344 158.03 36.2414 158.03 34.6153V0.794141H163.64V34.8593ZM193.477 0.225034C199.602 0.225034 204.832 2.39306 209.168 6.72911C213.505 11.0652 215.673 16.2955 215.673 22.4202C215.673 28.5449 213.505 33.7752 209.168 38.1113C204.832 42.4473 199.602 44.6154 193.477 44.6154C187.353 44.6154 182.122 42.4473 177.786 38.1113C173.45 33.7752 171.282 28.5449 171.282 22.4202C171.282 16.2955 173.45 11.0652 177.786 6.72911C182.122 2.39306 187.353 0.225034 193.477 0.225034ZM193.477 5.889C188.906 5.889 185.004 7.50599 181.77 10.74C178.554 13.9559 176.946 17.8493 176.946 22.4202C176.946 26.9911 178.563 30.8936 181.797 34.1275C185.031 37.3615 188.925 38.9785 193.477 38.9785C198.048 38.9785 201.942 37.3615 205.158 34.1275C208.392 30.8936 210.009 26.9911 210.009 22.4202C210.009 17.8493 208.392 13.9559 205.158 10.74C201.942 7.50599 198.048 5.889 193.477 5.889ZM234.372 26.7563L219.385 0.794141L225.835 0.794141L237.163 20.4148L248.518 0.794141H254.995L239.982 26.7563V44.1547H234.372V26.7563Z" fill="white"/>
</svg>
