<svg width="20" height="20" viewBox="0 0 20 20" fill="none" xmlns="http://www.w3.org/2000/svg">
<path fill-rule="evenodd" clip-rule="evenodd" d="M18.1253 3.33314C18.1252 2.5278 17.4723 1.875 16.667 1.875H3.33354C2.52812 1.875 1.87521 2.52792 1.87521 3.33333V4.65482C1.87521 5.0416 2.02885 5.41253 2.30234 5.68602L7.64752 11.0312C7.68659 11.0703 7.70854 11.1233 7.70854 11.1785L7.70854 16.016C7.70854 16.6852 8.16397 17.2685 8.81318 17.4308L10.4798 17.8475C11.4003 18.0776 12.2919 17.3814 12.2919 16.4327L12.2919 11.1785C12.2919 11.1233 12.3138 11.0703 12.3529 11.0312L17.6983 5.68608C17.9719 5.41254 18.1255 5.04152 18.1255 4.65466L18.1253 3.33314ZM16.667 3.125C16.782 3.125 16.8753 3.21826 16.8753 3.33331L16.8755 4.65483C16.8755 4.71009 16.8535 4.76309 16.8145 4.80217L11.469 10.1473C11.1955 10.4208 11.0419 10.7917 11.0419 11.1785L11.0419 16.4327C11.0419 16.5682 10.9145 16.6677 10.783 16.6348L9.11634 16.2181C9.0236 16.1949 8.95854 16.1116 8.95854 16.016L8.95854 11.1785C8.95854 10.7917 8.8049 10.4208 8.53141 10.1473L3.18622 4.80214C3.14715 4.76307 3.12521 4.71008 3.12521 4.65482V3.33333C3.12521 3.21827 3.21848 3.125 3.33354 3.125H16.667Z" fill="#2F2B43"/>
</svg>
